<svg xmlns="http://www.w3.org/2000/svg" xmlns:xlink="http://www.w3.org/1999/xlink" xmlns:lucid="lucid" width="1229.5" height="1142"><g transform="translate(1206.5 -119)" lucid:page-tab-id="ki9Aw-4_d2LZ"><path d="M-1296 0H64v1760h-1360z" fill="#fff"/><g filter="url(#a)"><path d="M-700 1120h240v120h-240z" stroke="#000" stroke-width="5" fill="#fcc438"/><use xlink:href="#b" transform="matrix(1,0,0,1,-695,1125) translate(69.01960784313727 62.954248366013076)"/></g><g filter="url(#c)"><path d="M-1138 600h320v520h-320z" stroke="#000" stroke-width="5" fill="#834187" fill-opacity=".41"/><use xlink:href="#d" transform="matrix(1,0,0,1,-1133,605) translate(0 30.117647058823533)"/></g><g filter="url(#a)"><path d="M-1098 654h240v120h-240z" stroke="#000" stroke-width="5" fill="#0082b4"/><use xlink:href="#e" transform="matrix(1,0,0,1,-1093,659) translate(63.89542483660131 62.954248366013076)"/></g><g filter="url(#a)"><path d="M-1098 814h240v120h-240z" stroke="#000" stroke-width="5" fill="#0082b4"/><use xlink:href="#f" transform="matrix(1,0,0,1,-1093,819) translate(40.7843137254902 62.954248366013076)"/></g><g filter="url(#a)"><path d="M-1098 974h240v120h-240z" stroke="#000" stroke-width="5" fill="#0082b4"/><use xlink:href="#g" transform="matrix(1,0,0,1,-1093,979) translate(38.79738562091503 62.954248366013076)"/></g><g filter="url(#h)"><path d="M-1138 160h320v380h-320z" stroke="#000" stroke-width="5" fill="#ff8f80" fill-opacity=".41"/><use xlink:href="#i" transform="matrix(1,0,0,1,-1133,165) translate(0 30.117647058823533)"/></g><g filter="url(#a)"><path d="M-1098 220h240v120h-240z" stroke="#000" stroke-width="5" fill="#0082b4"/><use xlink:href="#j" transform="matrix(1,0,0,1,-1093,225) translate(34.66666666666666 62.954248366013076)"/></g><g filter="url(#a)"><path d="M-1098 380h240v120h-240z" stroke="#000" stroke-width="5" fill="#0082b4"/><use xlink:href="#k" transform="matrix(1,0,0,1,-1093,385) translate(5.385620915032671 62.954248366013076)"/></g><g filter="url(#l)"><path d="M-318 140H2v900h-320z" stroke="#000" stroke-width="5" fill="#c92d39" fill-opacity=".41"/><use xlink:href="#m" transform="matrix(1,0,0,1,-313,145) translate(0 30.117647058823533)"/></g><g filter="url(#a)"><path d="M-278 860h240v120h-240z" stroke="#000" stroke-width="5" fill="#0082b4"/><use xlink:href="#n" transform="matrix(1,0,0,1,-273,865) translate(75.39869281045752 62.954248366013076)"/></g><g filter="url(#a)"><path d="M-278 700h240v120h-240z" stroke="#000" stroke-width="5" fill="#0082b4"/><use xlink:href="#o" transform="matrix(1,0,0,1,-273,705) translate(47.111111111111114 62.954248366013076)"/></g><g filter="url(#a)"><path d="M-278 380h240v120h-240z" stroke="#000" stroke-width="5" fill="#0082b4"/><use xlink:href="#p" transform="matrix(1,0,0,1,-273,385) translate(76.44444444444444 62.954248366013076)"/></g><g filter="url(#a)"><path d="M-278 540h240v120h-240z" stroke="#000" stroke-width="5" fill="#0082b4"/><use xlink:href="#q" transform="matrix(1,0,0,1,-273,545) translate(61.751633986928105 62.954248366013076)"/></g><g filter="url(#a)"><path d="M-278 220h240v120h-240z" stroke="#000" stroke-width="5" fill="#0082b4"/><use xlink:href="#r" transform="matrix(1,0,0,1,-273,225) translate(72.15686274509804 62.954248366013076)"/></g><g filter="url(#a)"><path d="M-660 220h240v120h-240z" stroke="#000" stroke-width="5" fill="#fcc438"/><use xlink:href="#s" transform="matrix(1,0,0,1,-655,225) translate(56.52287581699346 62.954248366013076)"/></g><path d="M-283 920h-212v172.64" stroke="#19967d" stroke-width="5" fill="none"/><path d="M-280.5 922.5h-2.56v-5h2.56z" fill="#19967d"/><path d="M-495 1109.4l-4.65-14.26h9.27z" stroke="#19967d" stroke-width="5" fill="#19967d"/><path d="M-1143 350h-37.5v830h453.14" stroke="#0c7cba" stroke-width="5" fill="none"/><path d="M-1140.5 352.5h-2.56v-5h2.56z" fill="#0c7cba"/><path d="M-710.6 1180l-14.26 4.64v-9.28z" stroke="#0c7cba" stroke-width="5" fill="#0c7cba"/><path d="M-1143 860h-37.5v320h453.14" stroke="#0c7cba" stroke-width="5" fill="none"/><path d="M-1140.5 862.5h-2.56v-5h2.56z" fill="#0c7cba"/><path d="M-710.6 1180l-14.26 4.64v-9.28z" stroke="#0c7cba" stroke-width="5" fill="#0c7cba"/><path d="M-665 280h-75v367.66h-50.64" stroke="#fcc438" stroke-width="5" fill="none"/><path d="M-662.5 282.5h-2.56v-5h2.56z" fill="#fcc438"/><path d="M-807.4 647.66l14.26-4.64v9.27z" stroke="#fcc438" stroke-width="5" fill="#fcc438"/><path d="M-283 280h-109.64" stroke="#c92d39" stroke-width="5" fill="none"/><path d="M-280.5 282.5h-2.56v-5h2.56z" fill="#c92d39"/><path d="M-409.4 280l14.26-4.64v9.28z" stroke="#c92d39" stroke-width="5" fill="#c92d39"/><path d="M-665 280h-75v132.3h-90.64" stroke="#fcc438" stroke-width="5" fill="none"/><path d="M-662.5 282.5h-2.56v-5h2.56z" fill="#fcc438"/><path d="M-847.4 412.3l14.26-4.65v9.27z" stroke="#fcc438" stroke-width="5" fill="#fcc438"/><path d="M-283 760h-265v-.3h-242.64" stroke="#c92d39" stroke-width="5" fill="none"/><path d="M-280.5 762.5h-2.56v-5h2.56z" fill="#c92d39"/><path d="M-807.4 759.7l14.26-4.64v9.27z" stroke="#c92d39" stroke-width="5" fill="#c92d39"/><path d="M-283 600h-345v114h-202.64" stroke="#834187" stroke-width="5" fill="none"/><path d="M-280.5 602.5h-2.56v-5h2.56z" fill="#834187"/><path d="M-847.4 714l14.26-4.64v9.28z" stroke="#834187" stroke-width="5" fill="#834187"/><path d="M-283 440h-547.64" stroke="#0ff" stroke-width="5" fill="none"/><path d="M-280.5 442.5h-2.56v-5h2.56z" fill="#0ff"/><path d="M-847.4 440l14.26-4.64v9.28z" stroke="#0ff" stroke-width="5" fill="#0ff"/><path d="M-283 760h-297v332.64" stroke="#c92d39" stroke-width="5" fill="none"/><path d="M-280.5 762.5h-2.56v-5h2.56z" fill="#c92d39"/><path d="M-580 1109.4l-4.64-14.26h9.28z" stroke="#c92d39" stroke-width="5" fill="#c92d39"/><defs><path d="M33 0v-248h34V0H33" id="t"/><path d="M117-194c89-4 53 116 60 194h-32v-121c0-31-8-49-39-48C34-167 62-67 57 0H25l-1-190h30c1 10-1 24 2 32 11-22 29-35 61-36" id="u"/><path d="M85-194c31 0 48 13 60 33l-1-100h32l1 261h-30c-2-10 0-23-3-31C134-8 116 4 85 4 32 4 16-35 15-94c0-66 23-100 70-100zm9 24c-40 0-46 34-46 75 0 40 6 74 45 74 42 0 51-32 51-76 0-42-9-74-50-73" id="v"/><path d="M100-194c63 0 86 42 84 106H49c0 40 14 67 53 68 26 1 43-12 49-29l28 8c-11 28-37 45-77 45C44 4 14-33 15-96c1-61 26-98 85-98zm52 81c6-60-76-77-97-28-3 7-6 17-6 28h103" id="w"/><path d="M141 0L90-78 38 0H4l68-98-65-92h35l48 74 47-74h35l-64 92 68 98h-35" id="x"/><g id="b"><use transform="matrix(0.10457516339869281,0,0,0.10457516339869281,0,0)" xlink:href="#t"/><use transform="matrix(0.10457516339869281,0,0,0.10457516339869281,10.457516339869281,0)" xlink:href="#u"/><use transform="matrix(0.10457516339869281,0,0,0.10457516339869281,31.372549019607845,0)" xlink:href="#v"/><use transform="matrix(0.10457516339869281,0,0,0.10457516339869281,52.28758169934641,0)" xlink:href="#w"/><use transform="matrix(0.10457516339869281,0,0,0.10457516339869281,73.20261437908498,0)" xlink:href="#x"/></g><filter id="a" filterUnits="objectBoundingBox" x="-.04" y="-.03" width="1.08" height="1.17"><feOffset result="offOut" in="SourceAlpha" dy="6"/><feGaussianBlur result="blurOut" in="offOut" stdDeviation="5"/><feColorMatrix result="colorOut" in="blurOut" values="0 0 0 0 0 0 0 0 0 0 0 0 0 0 0 0 0 0 0.16862745098039217 0"/><feBlend in="SourceGraphic" in2="colorOut"/></filter><path fill="#3d4752" d="M233-177c-1 41-23 64-60 70L243 0h-38l-65-103H63V0H30v-248c88 3 205-21 203 71zM63-129c60-2 137 13 137-47 0-61-80-42-137-45v92" id="y"/><path fill="#3d4752" d="M100-194c62-1 85 37 85 99 1 63-27 99-86 99S16-35 15-95c0-66 28-99 85-99zM99-20c44 1 53-31 53-75 0-43-8-75-51-75s-53 32-53 75 10 74 51 75" id="z"/><path fill="#3d4752" d="M84 4C-5 8 30-112 23-190h32v120c0 31 7 50 39 49 72-2 45-101 50-169h31l1 190h-30c-1-10 1-25-2-33-11 22-28 36-60 37" id="A"/><path fill="#3d4752" d="M59-47c-2 24 18 29 38 22v24C64 9 27 4 27-40v-127H5v-23h24l9-43h21v43h35v23H59v120" id="B"/><path fill="#3d4752" d="M100-194c63 0 86 42 84 106H49c0 40 14 67 53 68 26 1 43-12 49-29l28 8c-11 28-37 45-77 45C44 4 14-33 15-96c1-61 26-98 85-98zm52 81c6-60-76-77-97-28-3 7-6 17-6 28h103" id="C"/><path fill="#3d4752" d="M135-143c-3-34-86-38-87 0 15 53 115 12 119 90S17 21 10-45l28-5c4 36 97 45 98 0-10-56-113-15-118-90-4-57 82-63 122-42 12 7 21 19 24 35" id="D"/><g id="d"><use transform="matrix(0.10457516339869281,0,0,0.10457516339869281,0,0)" xlink:href="#y"/><use transform="matrix(0.10457516339869281,0,0,0.10457516339869281,27.084967320261438,0)" xlink:href="#z"/><use transform="matrix(0.10457516339869281,0,0,0.10457516339869281,48.00000000000001,0)" xlink:href="#A"/><use transform="matrix(0.10457516339869281,0,0,0.10457516339869281,68.91503267973857,0)" xlink:href="#B"/><use transform="matrix(0.10457516339869281,0,0,0.10457516339869281,79.37254901960786,0)" xlink:href="#C"/><use transform="matrix(0.10457516339869281,0,0,0.10457516339869281,100.28758169934642,0)" xlink:href="#D"/></g><filter id="c" filterUnits="objectBoundingBox" x="-.03" y="-.01" width="1.06" height="1.04"><feOffset result="offOut" in="SourceAlpha" dy="6"/><feGaussianBlur result="blurOut" in="offOut" stdDeviation="5"/><feColorMatrix result="colorOut" in="blurOut" values="0 0 0 0 0 0 0 0 0 0 0 0 0 0 0 0 0 0 0.16862745098039217 0"/><feBlend in="SourceGraphic" in2="colorOut"/></filter><path fill="#fff" d="M30-248c87 1 191-15 191 75 0 78-77 80-158 76V0H30v-248zm33 125c57 0 124 11 124-50 0-59-68-47-124-48v98" id="E"/><path fill="#fff" d="M84 4C-5 8 30-112 23-190h32v120c0 31 7 50 39 49 72-2 45-101 50-169h31l1 190h-30c-1-10 1-25-2-33-11 22-28 36-60 37" id="F"/><path fill="#fff" d="M115-194c53 0 69 39 70 98 0 66-23 100-70 100C84 3 66-7 56-30L54 0H23l1-261h32v101c10-23 28-34 59-34zm-8 174c40 0 45-34 45-75 0-40-5-75-45-74-42 0-51 32-51 76 0 43 10 73 51 73" id="G"/><path fill="#fff" d="M24 0v-261h32V0H24" id="H"/><path fill="#fff" d="M24-231v-30h32v30H24zM24 0v-190h32V0H24" id="I"/><path fill="#fff" d="M96-169c-40 0-48 33-48 73s9 75 48 75c24 0 41-14 43-38l32 2c-6 37-31 61-74 61-59 0-76-41-82-99-10-93 101-131 147-64 4 7 5 14 7 22l-32 3c-4-21-16-35-41-35" id="J"/><g id="e"><use transform="matrix(0.10457516339869281,0,0,0.10457516339869281,0,0)" xlink:href="#E"/><use transform="matrix(0.10457516339869281,0,0,0.10457516339869281,25.098039215686278,0)" xlink:href="#F"/><use transform="matrix(0.10457516339869281,0,0,0.10457516339869281,46.01307189542484,0)" xlink:href="#G"/><use transform="matrix(0.10457516339869281,0,0,0.10457516339869281,66.9281045751634,0)" xlink:href="#H"/><use transform="matrix(0.10457516339869281,0,0,0.10457516339869281,75.18954248366015,0)" xlink:href="#I"/><use transform="matrix(0.10457516339869281,0,0,0.10457516339869281,83.45098039215688,0)" xlink:href="#J"/></g><path fill="#fff" d="M185-189c-5-48-123-54-124 2 14 75 158 14 163 119 3 78-121 87-175 55-17-10-28-26-33-46l33-7c5 56 141 63 141-1 0-78-155-14-162-118-5-82 145-84 179-34 5 7 8 16 11 25" id="K"/><path fill="#fff" d="M59-47c-2 24 18 29 38 22v24C64 9 27 4 27-40v-127H5v-23h24l9-43h21v43h35v23H59v120" id="L"/><path fill="#fff" d="M85-194c31 0 48 13 60 33l-1-100h32l1 261h-30c-2-10 0-23-3-31C134-8 116 4 85 4 32 4 16-35 15-94c0-66 23-100 70-100zm9 24c-40 0-46 34-46 75 0 40 6 74 45 74 42 0 51-32 51-76 0-42-9-74-50-73" id="M"/><path fill="#fff" d="M100-194c63 0 86 42 84 106H49c0 40 14 67 53 68 26 1 43-12 49-29l28 8c-11 28-37 45-77 45C44 4 14-33 15-96c1-61 26-98 85-98zm52 81c6-60-76-77-97-28-3 7-6 17-6 28h103" id="N"/><path fill="#fff" d="M117-194c89-4 53 116 60 194h-32v-121c0-31-8-49-39-48C34-167 62-67 57 0H25l-1-190h30c1 10-1 24 2 32 11-22 29-35 61-36" id="O"/><path fill="#fff" d="M135-143c-3-34-86-38-87 0 15 53 115 12 119 90S17 21 10-45l28-5c4 36 97 45 98 0-10-56-113-15-118-90-4-57 82-63 122-42 12 7 21 19 24 35" id="P"/><g id="f"><use transform="matrix(0.10457516339869281,0,0,0.10457516339869281,0,0)" xlink:href="#K"/><use transform="matrix(0.10457516339869281,0,0,0.10457516339869281,25.098039215686278,0)" xlink:href="#L"/><use transform="matrix(0.10457516339869281,0,0,0.10457516339869281,35.55555555555556,0)" xlink:href="#F"/><use transform="matrix(0.10457516339869281,0,0,0.10457516339869281,56.470588235294116,0)" xlink:href="#M"/><use transform="matrix(0.10457516339869281,0,0,0.10457516339869281,77.38562091503269,0)" xlink:href="#N"/><use transform="matrix(0.10457516339869281,0,0,0.10457516339869281,98.30065359477125,0)" xlink:href="#O"/><use transform="matrix(0.10457516339869281,0,0,0.10457516339869281,119.2156862745098,0)" xlink:href="#L"/><use transform="matrix(0.10457516339869281,0,0,0.10457516339869281,129.67320261437908,0)" xlink:href="#P"/></g><path fill="#fff" d="M127-220V0H93v-220H8v-28h204v28h-85" id="Q"/><path fill="#fff" d="M141-36C126-15 110 5 73 4 37 3 15-17 15-53c-1-64 63-63 125-63 3-35-9-54-41-54-24 1-41 7-42 31l-33-3c5-37 33-52 76-52 45 0 72 20 72 64v82c-1 20 7 32 28 27v20c-31 9-61-2-59-35zM48-53c0 20 12 33 32 33 41-3 63-29 60-74-43 2-92-5-92 41" id="R"/><path fill="#fff" d="M106-169C34-169 62-67 57 0H25v-261h32l-1 103c12-21 28-36 61-36 89 0 53 116 60 194h-32v-121c2-32-8-49-39-48" id="S"/><path fill="#fff" d="M114-163C36-179 61-72 57 0H25l-1-190h30c1 12-1 29 2 39 6-27 23-49 58-41v29" id="T"/><g id="g"><use transform="matrix(0.10457516339869281,0,0,0.10457516339869281,0,0)" xlink:href="#Q"/><use transform="matrix(0.10457516339869281,0,0,0.10457516339869281,18.718954248366018,0)" xlink:href="#N"/><use transform="matrix(0.10457516339869281,0,0,0.10457516339869281,39.633986928104584,0)" xlink:href="#R"/><use transform="matrix(0.10457516339869281,0,0,0.10457516339869281,60.54901960784315,0)" xlink:href="#J"/><use transform="matrix(0.10457516339869281,0,0,0.10457516339869281,79.37254901960786,0)" xlink:href="#S"/><use transform="matrix(0.10457516339869281,0,0,0.10457516339869281,100.28758169934642,0)" xlink:href="#N"/><use transform="matrix(0.10457516339869281,0,0,0.10457516339869281,121.20261437908498,0)" xlink:href="#T"/><use transform="matrix(0.10457516339869281,0,0,0.10457516339869281,133.64705882352942,0)" xlink:href="#P"/></g><path fill="#3d4752" d="M240 0l2-218c-23 76-54 145-80 218h-23L58-218 59 0H30v-248h44l77 211c21-75 51-140 76-211h43V0h-30" id="U"/><path fill="#3d4752" d="M24-231v-30h32v30H24zM24 0v-190h32V0H24" id="V"/><path fill="#3d4752" d="M85-194c31 0 48 13 60 33l-1-100h32l1 261h-30c-2-10 0-23-3-31C134-8 116 4 85 4 32 4 16-35 15-94c0-66 23-100 70-100zm9 24c-40 0-46 34-46 75 0 40 6 74 45 74 42 0 51-32 51-76 0-42-9-74-50-73" id="W"/><path fill="#3d4752" d="M24 0v-261h32V0H24" id="X"/><path fill="#3d4752" d="M206 0h-36l-40-164L89 0H53L-1-190h32L70-26l43-164h34l41 164 42-164h31" id="Y"/><path fill="#3d4752" d="M141-36C126-15 110 5 73 4 37 3 15-17 15-53c-1-64 63-63 125-63 3-35-9-54-41-54-24 1-41 7-42 31l-33-3c5-37 33-52 76-52 45 0 72 20 72 64v82c-1 20 7 32 28 27v20c-31 9-61-2-59-35zM48-53c0 20 12 33 32 33 41-3 63-29 60-74-43 2-92-5-92 41" id="Z"/><path fill="#3d4752" d="M114-163C36-179 61-72 57 0H25l-1-190h30c1 12-1 29 2 39 6-27 23-49 58-41v29" id="aa"/><g id="i"><use transform="matrix(0.10457516339869281,0,0,0.10457516339869281,0,0)" xlink:href="#U"/><use transform="matrix(0.10457516339869281,0,0,0.10457516339869281,31.267973856209153,0)" xlink:href="#V"/><use transform="matrix(0.10457516339869281,0,0,0.10457516339869281,39.52941176470589,0)" xlink:href="#W"/><use transform="matrix(0.10457516339869281,0,0,0.10457516339869281,60.44444444444444,0)" xlink:href="#W"/><use transform="matrix(0.10457516339869281,0,0,0.10457516339869281,81.35947712418303,0)" xlink:href="#X"/><use transform="matrix(0.10457516339869281,0,0,0.10457516339869281,89.62091503267976,0)" xlink:href="#C"/><use transform="matrix(0.10457516339869281,0,0,0.10457516339869281,110.53594771241833,0)" xlink:href="#Y"/><use transform="matrix(0.10457516339869281,0,0,0.10457516339869281,137.62091503267976,0)" xlink:href="#Z"/><use transform="matrix(0.10457516339869281,0,0,0.10457516339869281,158.53594771241833,0)" xlink:href="#aa"/><use transform="matrix(0.10457516339869281,0,0,0.10457516339869281,170.9803921568628,0)" xlink:href="#C"/></g><filter id="h" filterUnits="objectBoundingBox" x="-.03" y="-.01" width="1.06" height="1.05"><feOffset result="offOut" in="SourceAlpha" dy="6"/><feGaussianBlur result="blurOut" in="offOut" stdDeviation="5"/><feColorMatrix result="colorOut" in="blurOut" values="0 0 0 0 0 0 0 0 0 0 0 0 0 0 0 0 0 0 0.16862745098039217 0"/><feBlend in="SourceGraphic" in2="colorOut"/></filter><g id="j"><use transform="matrix(0.10457516339869281,0,0,0.10457516339869281,0,0)" xlink:href="#I"/><use transform="matrix(0.10457516339869281,0,0,0.10457516339869281,8.261437908496733,0)" xlink:href="#P"/><use transform="matrix(0.10457516339869281,0,0,0.10457516339869281,27.084967320261438,0)" xlink:href="#Q"/><use transform="matrix(0.10457516339869281,0,0,0.10457516339869281,45.80392156862745,0)" xlink:href="#N"/><use transform="matrix(0.10457516339869281,0,0,0.10457516339869281,66.71895424836602,0)" xlink:href="#R"/><use transform="matrix(0.10457516339869281,0,0,0.10457516339869281,87.63398692810458,0)" xlink:href="#J"/><use transform="matrix(0.10457516339869281,0,0,0.10457516339869281,106.45751633986929,0)" xlink:href="#S"/><use transform="matrix(0.10457516339869281,0,0,0.10457516339869281,127.37254901960785,0)" xlink:href="#N"/><use transform="matrix(0.10457516339869281,0,0,0.10457516339869281,148.28758169934642,0)" xlink:href="#T"/></g><path fill="#fff" d="M205 0l-28-72H64L36 0H1l101-248h38L239 0h-34zm-38-99l-47-123c-12 45-31 82-46 123h93" id="ab"/><path fill="#fff" d="M100-194c62-1 85 37 85 99 1 63-27 99-86 99S16-35 15-95c0-66 28-99 85-99zM99-20c44 1 53-31 53-75 0-43-8-75-51-75s-53 32-53 75 10 74 51 75" id="ac"/><path fill="#fff" d="M9 0v-24l116-142H16v-24h144v24L44-24h123V0H9" id="ad"/><g id="k"><use transform="matrix(0.10457516339869281,0,0,0.10457516339869281,0,0)" xlink:href="#ab"/><use transform="matrix(0.10457516339869281,0,0,0.10457516339869281,25.098039215686278,0)" xlink:href="#F"/><use transform="matrix(0.10457516339869281,0,0,0.10457516339869281,46.01307189542484,0)" xlink:href="#L"/><use transform="matrix(0.10457516339869281,0,0,0.10457516339869281,56.470588235294116,0)" xlink:href="#S"/><use transform="matrix(0.10457516339869281,0,0,0.10457516339869281,77.38562091503269,0)" xlink:href="#ac"/><use transform="matrix(0.10457516339869281,0,0,0.10457516339869281,98.30065359477125,0)" xlink:href="#T"/><use transform="matrix(0.10457516339869281,0,0,0.10457516339869281,110.74509803921572,0)" xlink:href="#I"/><use transform="matrix(0.10457516339869281,0,0,0.10457516339869281,119.00653594771245,0)" xlink:href="#ad"/><use transform="matrix(0.10457516339869281,0,0,0.10457516339869281,137.83006535947715,0)" xlink:href="#R"/><use transform="matrix(0.10457516339869281,0,0,0.10457516339869281,158.74509803921572,0)" xlink:href="#L"/><use transform="matrix(0.10457516339869281,0,0,0.10457516339869281,169.202614379085,0)" xlink:href="#I"/><use transform="matrix(0.10457516339869281,0,0,0.10457516339869281,177.46405228758172,0)" xlink:href="#ac"/><use transform="matrix(0.10457516339869281,0,0,0.10457516339869281,198.3790849673203,0)" xlink:href="#O"/></g><path fill="#3d4752" d="M30-248c87 1 191-15 191 75 0 78-77 80-158 76V0H30v-248zm33 125c57 0 124 11 124-50 0-59-68-47-124-48v98" id="ae"/><path fill="#3d4752" d="M96-169c-40 0-48 33-48 73s9 75 48 75c24 0 41-14 43-38l32 2c-6 37-31 61-74 61-59 0-76-41-82-99-10-93 101-131 147-64 4 7 5 14 7 22l-32 3c-4-21-16-35-41-35" id="af"/><path fill="#3d4752" d="M143 0L79-87 56-68V0H24v-261h32v163l83-92h37l-77 82L181 0h-38" id="ag"/><path fill="#3d4752" d="M177-190C167-65 218 103 67 71c-23-6-38-20-44-43l32-5c15 47 100 32 89-28v-30C133-14 115 1 83 1 29 1 15-40 15-95c0-56 16-97 71-98 29-1 48 16 59 35 1-10 0-23 2-32h30zM94-22c36 0 50-32 50-73 0-42-14-75-50-75-39 0-46 34-46 75s6 73 46 73" id="ah"/><g id="m"><use transform="matrix(0.10457516339869281,0,0,0.10457516339869281,0,0)" xlink:href="#ae"/><use transform="matrix(0.10457516339869281,0,0,0.10457516339869281,25.098039215686278,0)" xlink:href="#Z"/><use transform="matrix(0.10457516339869281,0,0,0.10457516339869281,46.01307189542484,0)" xlink:href="#af"/><use transform="matrix(0.10457516339869281,0,0,0.10457516339869281,64.83660130718954,0)" xlink:href="#ag"/><use transform="matrix(0.10457516339869281,0,0,0.10457516339869281,83.66013071895425,0)" xlink:href="#Z"/><use transform="matrix(0.10457516339869281,0,0,0.10457516339869281,104.57516339869282,0)" xlink:href="#ah"/><use transform="matrix(0.10457516339869281,0,0,0.10457516339869281,125.49019607843138,0)" xlink:href="#C"/><use transform="matrix(0.10457516339869281,0,0,0.10457516339869281,146.40522875816995,0)" xlink:href="#D"/></g><filter id="l" filterUnits="objectBoundingBox" x="-.03" y="0" width="1.06" height="1.02"><feOffset result="offOut" in="SourceAlpha" dy="6"/><feGaussianBlur result="blurOut" in="offOut" stdDeviation="5"/><feColorMatrix result="colorOut" in="blurOut" values="0 0 0 0 0 0 0 0 0 0 0 0 0 0 0 0 0 0 0.16862745098039217 0"/><feBlend in="SourceGraphic" in2="colorOut"/></filter><path fill="#fff" d="M212-179c-10-28-35-45-73-45-59 0-87 40-87 99 0 60 29 101 89 101 43 0 62-24 78-52l27 14C228-24 195 4 139 4 59 4 22-46 18-125c-6-104 99-153 187-111 19 9 31 26 39 46" id="ai"/><g id="n"><use transform="matrix(0.10457516339869281,0,0,0.10457516339869281,0,0)" xlink:href="#ai"/><use transform="matrix(0.10457516339869281,0,0,0.10457516339869281,27.084967320261438,0)" xlink:href="#ac"/><use transform="matrix(0.10457516339869281,0,0,0.10457516339869281,48.00000000000001,0)" xlink:href="#T"/><use transform="matrix(0.10457516339869281,0,0,0.10457516339869281,60.44444444444444,0)" xlink:href="#P"/></g><path fill="#fff" d="M30 0v-248h187v28H63v79h144v27H63v87h162V0H30" id="aj"/><path fill="#fff" d="M141 0L90-78 38 0H4l68-98-65-92h35l48 74 47-74h35l-64 92 68 98h-35" id="ak"/><path fill="#fff" d="M115-194c55 1 70 41 70 98S169 2 115 4C84 4 66-9 55-30l1 105H24l-1-265h31l2 30c10-21 28-34 59-34zm-8 174c40 0 45-34 45-75s-6-73-45-74c-42 0-51 32-51 76 0 43 10 73 51 73" id="al"/><g id="o"><use transform="matrix(0.10457516339869281,0,0,0.10457516339869281,0,0)" xlink:href="#aj"/><use transform="matrix(0.10457516339869281,0,0,0.10457516339869281,25.098039215686278,0)" xlink:href="#ak"/><use transform="matrix(0.10457516339869281,0,0,0.10457516339869281,43.92156862745098,0)" xlink:href="#al"/><use transform="matrix(0.10457516339869281,0,0,0.10457516339869281,64.83660130718954,0)" xlink:href="#T"/><use transform="matrix(0.10457516339869281,0,0,0.10457516339869281,77.281045751634,0)" xlink:href="#N"/><use transform="matrix(0.10457516339869281,0,0,0.10457516339869281,98.19607843137256,0)" xlink:href="#P"/><use transform="matrix(0.10457516339869281,0,0,0.10457516339869281,117.01960784313727,0)" xlink:href="#P"/></g><path fill="#fff" d="M153-248C145-148 188 4 80 4 36 3 13-21 6-62l32-5c4 25 16 42 43 43 27 0 39-20 39-49v-147H72v-28h81" id="am"/><path fill="#fff" d="M266 0h-40l-56-210L115 0H75L2-248h35L96-30l15-64 43-154h32l59 218 59-218h35" id="an"/><g id="p"><use transform="matrix(0.10457516339869281,0,0,0.10457516339869281,0,0)" xlink:href="#am"/><use transform="matrix(0.10457516339869281,0,0,0.10457516339869281,18.823529411764707,0)" xlink:href="#an"/><use transform="matrix(0.10457516339869281,0,0,0.10457516339869281,54.27450980392157,0)" xlink:href="#Q"/></g><path fill="#fff" d="M160-131c35 5 61 23 61 61C221 17 115-2 30 0v-248c76 3 177-17 177 60 0 33-19 50-47 57zm-97-11c50-1 110 9 110-42 0-47-63-36-110-37v79zm0 115c55-2 124 14 124-45 0-56-70-42-124-44v89" id="ao"/><path fill="#fff" d="M179-190L93 31C79 59 56 82 12 73V49c39 6 53-20 64-50L1-190h34L92-34l54-156h33" id="ap"/><g id="q"><use transform="matrix(0.10457516339869281,0,0,0.10457516339869281,0,0)" xlink:href="#ao"/><use transform="matrix(0.10457516339869281,0,0,0.10457516339869281,25.098039215686278,0)" xlink:href="#J"/><use transform="matrix(0.10457516339869281,0,0,0.10457516339869281,43.92156862745098,0)" xlink:href="#T"/><use transform="matrix(0.10457516339869281,0,0,0.10457516339869281,56.36601307189542,0)" xlink:href="#ap"/><use transform="matrix(0.10457516339869281,0,0,0.10457516339869281,75.18954248366015,0)" xlink:href="#al"/><use transform="matrix(0.10457516339869281,0,0,0.10457516339869281,96.1045751633987,0)" xlink:href="#L"/></g><path fill="#fff" d="M194 0L95-120 63-95V0H30v-248h33v124l119-124h40L117-140 236 0h-42" id="aq"/><g id="r"><use transform="matrix(0.10457516339869281,0,0,0.10457516339869281,0,0)" xlink:href="#aq"/><use transform="matrix(0.10457516339869281,0,0,0.10457516339869281,25.098039215686278,0)" xlink:href="#O"/><use transform="matrix(0.10457516339869281,0,0,0.10457516339869281,46.01307189542484,0)" xlink:href="#N"/><use transform="matrix(0.10457516339869281,0,0,0.10457516339869281,66.9281045751634,0)" xlink:href="#ak"/></g><path d="M143 0L79-87 56-68V0H24v-261h32v163l83-92h37l-77 82L181 0h-38" id="ar"/><path d="M33 0v-38h34V0H33" id="as"/><path d="M24-231v-30h32v30H24zM-9 49c24 4 33-6 33-30v-209h32V24c2 40-23 58-65 49V49" id="at"/><path d="M135-143c-3-34-86-38-87 0 15 53 115 12 119 90S17 21 10-45l28-5c4 36 97 45 98 0-10-56-113-15-118-90-4-57 82-63 122-42 12 7 21 19 24 35" id="au"/><g id="s"><use transform="matrix(0.10457516339869281,0,0,0.10457516339869281,0,0)" xlink:href="#ar"/><use transform="matrix(0.10457516339869281,0,0,0.10457516339869281,18.823529411764707,0)" xlink:href="#u"/><use transform="matrix(0.10457516339869281,0,0,0.10457516339869281,39.73856209150327,0)" xlink:href="#w"/><use transform="matrix(0.10457516339869281,0,0,0.10457516339869281,60.653594771241835,0)" xlink:href="#x"/><use transform="matrix(0.10457516339869281,0,0,0.10457516339869281,79.47712418300654,0)" xlink:href="#as"/><use transform="matrix(0.10457516339869281,0,0,0.10457516339869281,89.93464052287582,0)" xlink:href="#at"/><use transform="matrix(0.10457516339869281,0,0,0.10457516339869281,98.19607843137256,0)" xlink:href="#au"/></g></defs></g></svg>