<svg xmlns="http://www.w3.org/2000/svg" xmlns:xlink="http://www.w3.org/1999/xlink" xmlns:lucid="lucid" width="1180" height="1366"><g transform="translate(-100 -185)" lucid:page-tab-id="QRzAMTNtNnJs"><path d="M0 0h1360v1760H0z" fill="#fff"/><g filter="url(#a)"><path d="M589 400h160v120H589z" stroke="#3d4752" stroke-width="4" fill="#0082b4"/><use xlink:href="#b" transform="matrix(1,0,0,1,594,405) translate(27.740740740740733 42.733333333333334)"/><use xlink:href="#c" transform="matrix(1,0,0,1,594,405) translate(23.925925925925924 77.93333333333334)"/></g><g filter="url(#a)"><path d="M569 580l80 60-80 60-80-60z" stroke="#3d4752" stroke-width="4" fill="#0082b4"/><use xlink:href="#d" transform="matrix(1,0,0,1,494,585) translate(43.18518518518518 42.733333333333334)"/><use xlink:href="#e" transform="matrix(1,0,0,1,494,585) translate(27.629629629629633 77.93333333333334)"/></g><g filter="url(#f)"><path d="M729 734.95l160-22.4v134.9H729z" stroke="#3d4752" stroke-width="4" fill="#0082b4"/><use xlink:href="#g" transform="matrix(1,0,0,1,734,740.04) translate(17.29629629629629 21.633333333333326)"/><use xlink:href="#h" transform="matrix(1,0,0,1,734,740.04) translate(95.74074074074073 21.633333333333326)"/><use xlink:href="#i" transform="matrix(1,0,0,1,734,740.04) translate(37.25925925925925 56.83333333333333)"/><use xlink:href="#j" transform="matrix(1,0,0,1,734,740.04) translate(25.48148148148148 92.03333333333333)"/></g><g filter="url(#k)"><path d="M719 1485.44c0 6.63-40.3 12-90 12s-90-5.37-90-12v-96c0-6.63 40.3-12 90-12s90 5.37 90 12z" stroke="#3d4752" stroke-width="4" fill="#0082b4"/><path d="M719 1389.44c0 6.63-40.3 12-90 12s-90-5.37-90-12" stroke="#3d4752" stroke-width="4" fill="none"/><use xlink:href="#l" transform="matrix(1,0,0,1,544,1406.4400000000023) translate(20.592592592592595 48.333333333333336)"/></g><path d="M669 524v25.75H569v5" stroke="#494949" stroke-width="4" fill="none"/><path d="M671 524.05h-4V522h4z" fill="#494949"/><path d="M569 571.03l-4.64-14.27h9.28z" stroke="#494949" stroke-width="4" fill="#494949"/><path d="M691.67 778h12.6v4h-16.6v-56h4zm0-84h-4v-52h-33.34v-4h37.34z" fill="#494949"/><path d="M654.38 642h-4.7l2.65-2-2.66-2h4.7zM720.53 780l-14.27 4.64v-9.28z" fill="#494949"/><path d="M727 780l-22.74 7.4v-14.8zm-18.74 1.88l5.8-1.88-5.8-1.88z" fill="#494949"/><use xlink:href="#m" transform="matrix(1,0,0,1,667.925925925926,694) translate(0.004999999999999005 21.333333333333336)"/><path d="M811 719.74h-4v-274h-33.26v-4H811z" fill="#494949"/><path d="M811 721.46l-4 .56v-2.34h4zM771.74 448.37l-14.27-4.63 14.27-4.64z" fill="#494949"/><path d="M773.74 451.12L751 443.74l22.74-7.4zm-9.8-7.38l5.8 1.88v-3.77z" fill="#494949"/><g filter="url(#f)"><path d="M229 734.95l160-22.4v134.9H229z" stroke="#3d4752" stroke-width="4" fill="#0082b4"/><use xlink:href="#g" transform="matrix(1,0,0,1,234,740.04) translate(17.29629629629629 21.633333333333326)"/><use xlink:href="#h" transform="matrix(1,0,0,1,234,740.04) translate(95.74074074074073 21.633333333333326)"/><use xlink:href="#n" transform="matrix(1,0,0,1,234,740.04) translate(27.740740740740733 56.83333333333333)"/><use xlink:href="#c" transform="matrix(1,0,0,1,234,740.04) translate(23.925925925925924 92.03333333333333)"/></g><path d="M440.33 782h-26.6v-4h22.6v-52h4zm43.34-140h-43.34v52h-4v-56h47.34z" fill="#494949"/><path d="M485.67 640l2.66 2h-4.7v-4h4.7zM411.74 784.64L397.47 780l14.27-4.64z" fill="#494949"/><path d="M413.74 787.4L391 780l22.74-7.4zm-9.8-7.4l5.8 1.88v-3.76z" fill="#494949"/><use xlink:href="#o" transform="matrix(1,0,0,1,421.33333333333337,694) translate(0.004999999999999005 21.333333333333336)"/><g filter="url(#a)"><path d="M629 1140l80 60-80 60-80-60z" stroke="#3d4752" stroke-width="4" fill="#0082b4"/><use xlink:href="#p" transform="matrix(1,0,0,1,554,1145) translate(39.48148148148148 42.733333333333334)"/><use xlink:href="#q" transform="matrix(1,0,0,1,554,1145) translate(26.925925925925924 77.93333333333334)"/></g><g filter="url(#r)"><path d="M1177 980c17.67 0 32 17.9 32 40s-14.33 40-32 40h-96c-17.67 0-32-17.9-32-40s14.33-40 32-40z" stroke="#3d4752" stroke-width="4" fill="#0082b4"/><use xlink:href="#s" transform="matrix(1,0,0,1,1054,985.0000000000001) translate(11.407407407407405 40.333333333333336)"/><use xlink:href="#t" transform="matrix(1,0,0,1,1054,985.0000000000001) translate(94.14814814814815 40.333333333333336)"/></g><path d="M309 851.44v83.32" stroke="#494949" stroke-width="4" fill="none"/><path d="M311 851.5h-4v-2.06h4z" fill="#494949"/><path d="M309 951.03l-4.64-14.27h9.28z" stroke="#494949" stroke-width="4" fill="#494949"/><g filter="url(#a)"><path d="M309 960l80 60-80 60-80-60z" stroke="#3d4752" stroke-width="4" fill="#0082b4"/><use xlink:href="#u" transform="matrix(1,0,0,1,234,965.0000000000001) translate(11.370370370370367 60.333333333333336)"/></g><g filter="url(#r)"><path d="M977 980c17.67 0 32 17.9 32 40s-14.33 40-32 40h-96c-17.67 0-32-17.9-32-40s14.33-40 32-40z" stroke="#3d4752" stroke-width="4" fill="#0082b4"/><use xlink:href="#s" transform="matrix(1,0,0,1,854,985.0000000000001) translate(11.407407407407405 40.333333333333336)"/><use xlink:href="#v" transform="matrix(1,0,0,1,854,985.0000000000001) translate(94.14814814814815 40.333333333333336)"/></g><path d="M631 1108v6.76h-4V1112H490.74v-4zm-183.74 0v4H307v-27.5h4v23.5z" fill="#494949"/><path d="M311 1084.55h-4V1081l2 1.5 2-1.5zM629 1131.03l-4.64-14.27h9.28z" fill="#494949"/><path d="M629 1137.5l-7.4-22.74h14.8zm-1.88-18.74l1.88 5.8 1.88-5.8z" fill="#494949"/><use xlink:href="#m" transform="matrix(1,0,0,1,447.25925925925924,1094) translate(0.004999999999999005 21.333333333333336)"/><path d="M602.67 1022H394.33v-4h208.34zm221.6 0h-187.6v-4h187.6z" fill="#494949"/><path d="M394.38 1022h-4.7l2.65-2-2.66-2h4.7zM840.53 1020l-14.27 4.64v-9.28z" fill="#494949"/><path d="M847 1020l-22.74 7.4v-14.8zm-18.74 1.88l5.8-1.88-5.8-1.88z" fill="#494949"/><use xlink:href="#o" transform="matrix(1,0,0,1,602.6660444481391,1004.0000000000001) translate(0.004999999999999005 21.333333333333336)"/><g filter="url(#w)"><path d="M111 880h1138v460H111z" stroke="#7ab648" stroke-width="4" fill="#7ab648" fill-opacity=".06"/><path d="M111 880h56v56h-56v-56z" stroke="#fff" stroke-opacity="0" fill="#7ab648"/><path d="M150.25 928h-22.5c-.44 0-.8-.36-.8-.8v-38.4c0-.44.36-.8.8-.8h22.5c.44 0 .8.36.8.8v38.4c0 .44-.36.8-.8.8zm-21.66-1.6h20.8v-36.8h-20.8z" stroke="#fff" stroke-opacity="0" fill="#fff"/><path d="M131.08 893.76h15.84v1.6h-15.84v-1.6zM131.08 900.78h15.84v1.6h-15.84v-1.6zM131.08 907.8h15.84v1.6h-15.84v-1.6z" stroke="#fff" stroke-opacity="0" fill="#fff"/><use xlink:href="#x" transform="matrix(1,0,0,1,182,900) translate(0 21.333333333333336)"/></g><path d="M972.67 1202H714.33v-4h258.34zm158.33 0h-124.33v-4H1127v-113.26h4z" fill="#494949"/><path d="M714.38 1202h-4.7l2.65-2-2.66-2h4.7zM1133.64 1082.74h-9.28l4.64-14.27z" fill="#494949"/><path d="M1136.4 1084.74h-14.8l7.4-22.74zm-9.28-4h3.76l-1.88-5.8z" fill="#494949"/><use xlink:href="#o" transform="matrix(1,0,0,1,972.6666666666667,1184) translate(0.004999999999999005 21.333333333333336)"/><g filter="url(#y)"><path d="M229 300h880v60H229z" fill="#0082b4"/><path d="M1109 300H229v60h880" stroke="#3d4752" stroke-width="4" fill="none"/><use xlink:href="#z" transform="matrix(1,0,0,1,405,312) translate(210.7037037037037 23.333333333333336)"/></g><path d="M669 364v11.26" stroke="#494949" stroke-width="4" fill="none"/><path d="M671 364.05h-4V362h4z" fill="#494949"/><path d="M669 391.53l-4.64-14.27h9.28z" stroke="#494949" stroke-width="4" fill="#494949"/><g filter="url(#A)"><path d="M111 200h1138v680H111z" stroke="#fcc438" stroke-width="4" fill="#ffeca9" fill-opacity=".1"/><path d="M111 200h56v56h-56v-56z" stroke="#fff" stroke-opacity="0" fill="#fcc438"/><path d="M151.5 221.2h-5.85v-12.4c0-.44-.37-.8-.8-.8h-11.7c-.43 0-.8.36-.8.8v12.4h-5.85c-.45 0-.8.36-.8.8v25.2c0 .44.35.8.8.8h25c.45 0 .8-.36.8-.8V222c0-.44-.35-.8-.8-.8zm-.8 25.2h-23.4v-23.6h5.85c.45 0 .8-.36.8-.8v-12.4h10.1V222c0 .44.35.8.8.8h5.85z" stroke="#fff" stroke-opacity="0" fill="#fff"/><path d="M130.8 226.1h1.6v4.16h-1.6v-4.16zM130.8 232.77h1.6v4.16h-1.6v-4.16zM130.8 239.44h1.6v4.16h-1.6v-4.16zM138.3 226.1h1.6v4.16h-1.6v-4.16zM138.3 232.77h1.6v4.16h-1.6v-4.16zM138.3 239.44h1.6v4.16h-1.6v-4.16zM145.82 226.1h1.6v4.16h-1.6v-4.16zM145.82 232.77h1.6v4.16h-1.6v-4.16zM145.82 239.44h1.6v4.16h-1.6v-4.16zM138.3 213.3h1.6v4.16h-1.6v-4.16zM138.3 219.97h1.6v4.16h-1.6v-4.16z" stroke="#fff" stroke-opacity="0" fill="#fff"/><use xlink:href="#B" transform="matrix(1,0,0,1,182,220) translate(0 21.333333333333336)"/></g><path d="M929 976v-56h158V384.74" stroke="#494949" stroke-width="4" fill="none"/><path d="M931 978h-4v-2.05h4z" fill="#494949"/><path d="M1087 368.47l4.64 14.27h-9.28z" stroke="#494949" stroke-width="4" fill="#494949"/><path d="M1129 976v-56h-42V384.74" stroke="#494949" stroke-width="4" fill="none"/><path d="M1131 978h-4v-2.05h4z" fill="#494949"/><path d="M1087 368.47l4.64 14.27h-9.28z" stroke="#494949" stroke-width="4" fill="#494949"/><path d="M809 851.44v52.03H309v31.3" stroke="#494949" stroke-width="4" fill="none"/><path d="M811 851.5h-4v-2.06h4z" fill="#494949"/><path d="M309 951.03l-4.64-14.27h9.28z" stroke="#494949" stroke-width="4" fill="#494949"/><g filter="url(#C)"><path d="M111 1340h1138v194.88H111z" stroke="#5a6c86" stroke-width="4" fill="#b2b2b2" fill-opacity=".05"/><path d="M111 1340h56v56h-56v-56z" stroke="#fff" stroke-opacity="0" fill="#5a6c86"/><path d="M150.25 1388h-22.5c-.44 0-.8-.36-.8-.8v-38.4c0-.44.36-.8.8-.8h22.5c.44 0 .8.36.8.8v38.4c0 .44-.36.8-.8.8zm-21.66-1.6h20.8v-36.8h-20.8z" stroke="#fff" stroke-opacity="0" fill="#fff"/><path d="M131.08 1353.76h15.84v1.6h-15.84v-1.6zM131.08 1360.78h15.84v1.6h-15.84v-1.6zM131.08 1367.8h15.84v1.6h-15.84v-1.6z" stroke="#fff" stroke-opacity="0" fill="#fff"/><use xlink:href="#D" transform="matrix(1,0,0,1,182,1360) translate(0 21.333333333333336)"/></g><path d="M631 1352.7h-4v-17.73h4zm0-49.73h-4v-38.47h4z" fill="#494949"/><path d="M631 1264.55h-4V1261l2 1.5 2-1.5zM629 1368.97l-4.64-14.27h9.28z" fill="#494949"/><path d="M629 1375.44l-7.4-22.74h14.8zm-1.88-18.74l1.88 5.8 1.88-5.8z" fill="#494949"/><use xlink:href="#E" transform="matrix(1,0,0,1,607.2592592592592,1302.9699717882809) translate(0.004999999999999005 21.333333333333336)"/><defs><path fill="#fff" d="M240 0l2-218c-23 76-54 145-80 218h-23L58-218 59 0H30v-248h44l77 211c21-75 51-140 76-211h43V0h-30" id="F"/><path fill="#fff" d="M141-36C126-15 110 5 73 4 37 3 15-17 15-53c-1-64 63-63 125-63 3-35-9-54-41-54-24 1-41 7-42 31l-33-3c5-37 33-52 76-52 45 0 72 20 72 64v82c-1 20 7 32 28 27v20c-31 9-61-2-59-35zM48-53c0 20 12 33 32 33 41-3 63-29 60-74-43 2-92-5-92 41" id="G"/><path fill="#fff" d="M59-47c-2 24 18 29 38 22v24C64 9 27 4 27-40v-127H5v-23h24l9-43h21v43h35v23H59v120" id="H"/><path fill="#fff" d="M100-194c63 0 86 42 84 106H49c0 40 14 67 53 68 26 1 43-12 49-29l28 8c-11 28-37 45-77 45C44 4 14-33 15-96c1-61 26-98 85-98zm52 81c6-60-76-77-97-28-3 7-6 17-6 28h103" id="I"/><path fill="#fff" d="M114-163C36-179 61-72 57 0H25l-1-190h30c1 12-1 29 2 39 6-27 23-49 58-41v29" id="J"/><path fill="#fff" d="M24-231v-30h32v30H24zM24 0v-190h32V0H24" id="K"/><path fill="#fff" d="M24 0v-261h32V0H24" id="L"/><g id="b"><use transform="matrix(0.07407407407407408,0,0,0.07407407407407408,0,0)" xlink:href="#F"/><use transform="matrix(0.07407407407407408,0,0,0.07407407407407408,22.148148148148152,0)" xlink:href="#G"/><use transform="matrix(0.07407407407407408,0,0,0.07407407407407408,36.96296296296297,0)" xlink:href="#H"/><use transform="matrix(0.07407407407407408,0,0,0.07407407407407408,44.37037037037039,0)" xlink:href="#I"/><use transform="matrix(0.07407407407407408,0,0,0.07407407407407408,59.185185185185205,0)" xlink:href="#J"/><use transform="matrix(0.07407407407407408,0,0,0.07407407407407408,68.00000000000001,0)" xlink:href="#K"/><use transform="matrix(0.07407407407407408,0,0,0.07407407407407408,73.85185185185186,0)" xlink:href="#G"/><use transform="matrix(0.07407407407407408,0,0,0.07407407407407408,88.66666666666667,0)" xlink:href="#L"/></g><path fill="#fff" d="M101-234c-31-9-42 10-38 44h38v23H63V0H32v-167H5v-23h27c-7-52 17-82 69-68v24" id="M"/><path fill="#fff" d="M135-143c-3-34-86-38-87 0 15 53 115 12 119 90S17 21 10-45l28-5c4 36 97 45 98 0-10-56-113-15-118-90-4-57 82-63 122-42 12 7 21 19 24 35" id="N"/><path fill="#fff" d="M117-194c89-4 53 116 60 194h-32v-121c0-31-8-49-39-48C34-167 62-67 57 0H25l-1-190h30c1 10-1 24 2 32 11-22 29-35 61-36" id="O"/><g id="c"><use transform="matrix(0.07407407407407408,0,0,0.07407407407407408,0,0)" xlink:href="#I"/><use transform="matrix(0.07407407407407408,0,0,0.07407407407407408,14.814814814814817,0)" xlink:href="#J"/><use transform="matrix(0.07407407407407408,0,0,0.07407407407407408,23.629629629629633,0)" xlink:href="#M"/><use transform="matrix(0.07407407407407408,0,0,0.07407407407407408,31.03703703703704,0)" xlink:href="#G"/><use transform="matrix(0.07407407407407408,0,0,0.07407407407407408,45.851851851851855,0)" xlink:href="#N"/><use transform="matrix(0.07407407407407408,0,0,0.07407407407407408,59.185185185185205,0)" xlink:href="#N"/><use transform="matrix(0.07407407407407408,0,0,0.07407407407407408,72.51851851851853,0)" xlink:href="#I"/><use transform="matrix(0.07407407407407408,0,0,0.07407407407407408,87.33333333333334,0)" xlink:href="#O"/></g><filter id="a" filterUnits="objectBoundingBox" x="-.06" y="-.03" width="1.13" height="1.17"><feOffset result="offOut" in="SourceAlpha" dy="6"/><feGaussianBlur result="blurOut" in="offOut" stdDeviation="5"/><feColorMatrix result="colorOut" in="blurOut" values="0 0 0 0 0 0 0 0 0 0 0 0 0 0 0 0 0 0 0.16862745098039217 0"/><feBlend in="SourceGraphic" in2="colorOut"/></filter><path fill="#fff" d="M190 0L58-211 59 0H30v-248h39L202-35l-2-213h31V0h-41" id="P"/><path fill="#fff" d="M84 4C-5 8 30-112 23-190h32v120c0 31 7 50 39 49 72-2 45-101 50-169h31l1 190h-30c-1-10 1-25-2-33-11 22-28 36-60 37" id="Q"/><g id="d"><use transform="matrix(0.07407407407407408,0,0,0.07407407407407408,0,0)" xlink:href="#P"/><use transform="matrix(0.07407407407407408,0,0,0.07407407407407408,19.185185185185187,0)" xlink:href="#I"/><use transform="matrix(0.07407407407407408,0,0,0.07407407407407408,34,0)" xlink:href="#Q"/><use transform="matrix(0.07407407407407408,0,0,0.07407407407407408,48.81481481481481,0)" xlink:href="#I"/></g><path fill="#fff" d="M194 0L95-120 63-95V0H30v-248h33v124l119-124h40L117-140 236 0h-42" id="R"/><path fill="#fff" d="M103-251c84 0 111 97 45 133-19 10-37 24-39 52H78c0-63 77-55 77-114 0-30-21-42-52-43-32 0-53 17-56 46l-32-2c7-45 34-72 88-72zM77 0v-35h34V0H77" id="S"/><g id="e"><use transform="matrix(0.07407407407407408,0,0,0.07407407407407408,0,0)" xlink:href="#R"/><use transform="matrix(0.07407407407407408,0,0,0.07407407407407408,17.77777777777778,0)" xlink:href="#L"/><use transform="matrix(0.07407407407407408,0,0,0.07407407407407408,23.629629629629633,0)" xlink:href="#G"/><use transform="matrix(0.07407407407407408,0,0,0.07407407407407408,38.44444444444445,0)" xlink:href="#N"/><use transform="matrix(0.07407407407407408,0,0,0.07407407407407408,51.777777777777786,0)" xlink:href="#N"/><use transform="matrix(0.07407407407407408,0,0,0.07407407407407408,65.11111111111111,0)" xlink:href="#I"/><use transform="matrix(0.07407407407407408,0,0,0.07407407407407408,79.92592592592592,0)" xlink:href="#S"/></g><path fill="#fff" d="M30-248c118-7 216 8 213 122C240-48 200 0 122 0H30v-248zM63-27c89 8 146-16 146-99s-60-101-146-95v194" id="T"/><g id="g"><use transform="matrix(0.07407407407407408,0,0,0.07407407407407408,0,0)" xlink:href="#T"/><use transform="matrix(0.07407407407407408,0,0,0.07407407407407408,19.185185185185187,0)" xlink:href="#G"/><use transform="matrix(0.07407407407407408,0,0,0.07407407407407408,34,0)" xlink:href="#H"/><use transform="matrix(0.07407407407407408,0,0,0.07407407407407408,41.407407407407405,0)" xlink:href="#I"/><use transform="matrix(0.07407407407407408,0,0,0.07407407407407408,56.22222222222222,0)" xlink:href="#O"/></g><path fill="#fff" d="M9 0v-24l116-142H16v-24h144v24L44-24h123V0H9" id="U"/><g id="h"><use transform="matrix(0.07407407407407408,0,0,0.07407407407407408,0,0)" xlink:href="#U"/><use transform="matrix(0.07407407407407408,0,0,0.07407407407407408,13.333333333333336,0)" xlink:href="#Q"/><use transform="matrix(0.07407407407407408,0,0,0.07407407407407408,28.148148148148152,0)" xlink:href="#J"/></g><path fill="#fff" d="M143 0L79-87 56-68V0H24v-261h32v163l83-92h37l-77 82L181 0h-38" id="V"/><g id="i"><use transform="matrix(0.07407407407407408,0,0,0.07407407407407408,0,0)" xlink:href="#V"/><use transform="matrix(0.07407407407407408,0,0,0.07407407407407408,13.333333333333336,0)" xlink:href="#L"/><use transform="matrix(0.07407407407407408,0,0,0.07407407407407408,19.18518518518519,0)" xlink:href="#G"/><use transform="matrix(0.07407407407407408,0,0,0.07407407407407408,34.00000000000001,0)" xlink:href="#N"/><use transform="matrix(0.07407407407407408,0,0,0.07407407407407408,47.33333333333334,0)" xlink:href="#N"/><use transform="matrix(0.07407407407407408,0,0,0.07407407407407408,60.66666666666667,0)" xlink:href="#I"/></g><path fill="#fff" d="M85 4C-4 8 31-112 24-190h32v120c0 31 7 50 39 49 72-2 45-101 50-169h31l1 190h-30c-1-10 1-25-2-33-11 22-28 36-60 37zm34-218v-33h29v33h-29zm-69 0v-33h29v33H50" id="W"/><g id="j"><use transform="matrix(0.07407407407407408,0,0,0.07407407407407408,0,0)" xlink:href="#I"/><use transform="matrix(0.07407407407407408,0,0,0.07407407407407408,14.814814814814817,0)" xlink:href="#K"/><use transform="matrix(0.07407407407407408,0,0,0.07407407407407408,20.666666666666668,0)" xlink:href="#O"/><use transform="matrix(0.07407407407407408,0,0,0.07407407407407408,35.48148148148149,0)" xlink:href="#M"/><use transform="matrix(0.07407407407407408,0,0,0.07407407407407408,42.8888888888889,0)" xlink:href="#W"/><use transform="matrix(0.07407407407407408,0,0,0.07407407407407408,57.70370370370372,0)" xlink:href="#L"/><use transform="matrix(0.07407407407407408,0,0,0.07407407407407408,63.55555555555557,0)" xlink:href="#L"/><use transform="matrix(0.07407407407407408,0,0,0.07407407407407408,69.40740740740742,0)" xlink:href="#I"/><use transform="matrix(0.07407407407407408,0,0,0.07407407407407408,84.22222222222223,0)" xlink:href="#O"/></g><filter id="f" filterUnits="objectBoundingBox" x="-.06" y="-.03" width="1.13" height="1.15"><feOffset result="offOut" in="SourceAlpha" dy="6"/><feGaussianBlur result="blurOut" in="offOut" stdDeviation="5"/><feColorMatrix result="colorOut" in="blurOut" values="0 0 0 0 0 0 0 0 0 0 0 0 0 0 0 0 0 0 0.16862745098039217 0"/><feBlend in="SourceGraphic" in2="colorOut"/></filter><path fill="#fff" d="M115-194c53 0 69 39 70 98 0 66-23 100-70 100C84 3 66-7 56-30L54 0H23l1-261h32v101c10-23 28-34 59-34zm-8 174c40 0 45-34 45-75 0-40-5-75-45-74-42 0-51 32-51 76 0 43 10 73 51 73" id="X"/><g id="l"><use transform="matrix(0.07407407407407408,0,0,0.07407407407407408,0,0)" xlink:href="#T"/><use transform="matrix(0.07407407407407408,0,0,0.07407407407407408,19.185185185185187,0)" xlink:href="#G"/><use transform="matrix(0.07407407407407408,0,0,0.07407407407407408,34,0)" xlink:href="#H"/><use transform="matrix(0.07407407407407408,0,0,0.07407407407407408,41.407407407407405,0)" xlink:href="#I"/><use transform="matrix(0.07407407407407408,0,0,0.07407407407407408,56.22222222222222,0)" xlink:href="#O"/><use transform="matrix(0.07407407407407408,0,0,0.07407407407407408,71.03703703703704,0)" xlink:href="#X"/><use transform="matrix(0.07407407407407408,0,0,0.07407407407407408,85.85185185185185,0)" xlink:href="#G"/><use transform="matrix(0.07407407407407408,0,0,0.07407407407407408,100.66666666666666,0)" xlink:href="#O"/><use transform="matrix(0.07407407407407408,0,0,0.07407407407407408,115.48148148148147,0)" xlink:href="#V"/></g><filter id="k" filterUnits="objectBoundingBox" x="-.06" y="-.03" width="1.11" height="1.17"><feOffset result="offOut" in="SourceAlpha" dy="6"/><feGaussianBlur result="blurOut" in="offOut" stdDeviation="5"/><feColorMatrix result="colorOut" in="blurOut" values="0 0 0 0 0 0 0 0 0 0 0 0 0 0 0 0 0 0 0.16862745098039217 0"/><feBlend in="SourceGraphic" in2="colorOut"/></filter><path fill="#333" d="M137-103V0h-34v-103L8-248h37l75 118 75-118h37" id="Y"/><path fill="#333" d="M100-194c63 0 86 42 84 106H49c0 40 14 67 53 68 26 1 43-12 49-29l28 8c-11 28-37 45-77 45C44 4 14-33 15-96c1-61 26-98 85-98zm52 81c6-60-76-77-97-28-3 7-6 17-6 28h103" id="Z"/><path fill="#333" d="M135-143c-3-34-86-38-87 0 15 53 115 12 119 90S17 21 10-45l28-5c4 36 97 45 98 0-10-56-113-15-118-90-4-57 82-63 122-42 12 7 21 19 24 35" id="aa"/><g id="m"><use transform="matrix(0.07407407407407408,0,0,0.07407407407407408,0,0)" xlink:href="#Y"/><use transform="matrix(0.07407407407407408,0,0,0.07407407407407408,15.333333333333334,0)" xlink:href="#Z"/><use transform="matrix(0.07407407407407408,0,0,0.07407407407407408,30.148148148148152,0)" xlink:href="#aa"/></g><g id="n"><use transform="matrix(0.07407407407407408,0,0,0.07407407407407408,0,0)" xlink:href="#F"/><use transform="matrix(0.07407407407407408,0,0,0.07407407407407408,22.148148148148152,0)" xlink:href="#G"/><use transform="matrix(0.07407407407407408,0,0,0.07407407407407408,36.96296296296297,0)" xlink:href="#H"/><use transform="matrix(0.07407407407407408,0,0,0.07407407407407408,44.37037037037039,0)" xlink:href="#I"/><use transform="matrix(0.07407407407407408,0,0,0.07407407407407408,59.185185185185205,0)" xlink:href="#J"/><use transform="matrix(0.07407407407407408,0,0,0.07407407407407408,68.00000000000001,0)" xlink:href="#K"/><use transform="matrix(0.07407407407407408,0,0,0.07407407407407408,73.85185185185186,0)" xlink:href="#G"/><use transform="matrix(0.07407407407407408,0,0,0.07407407407407408,88.66666666666667,0)" xlink:href="#L"/></g><path fill="#333" d="M190 0L58-211 59 0H30v-248h39L202-35l-2-213h31V0h-41" id="ab"/><path fill="#333" d="M100-194c62-1 85 37 85 99 1 63-27 99-86 99S16-35 15-95c0-66 28-99 85-99zM99-20c44 1 53-31 53-75 0-43-8-75-51-75s-53 32-53 75 10 74 51 75" id="ac"/><g id="o"><use transform="matrix(0.07407407407407408,0,0,0.07407407407407408,0,0)" xlink:href="#ab"/><use transform="matrix(0.07407407407407408,0,0,0.07407407407407408,19.185185185185187,0)" xlink:href="#ac"/></g><g id="p"><use transform="matrix(0.07407407407407408,0,0,0.07407407407407408,0,0)" xlink:href="#T"/><use transform="matrix(0.07407407407407408,0,0,0.07407407407407408,19.185185185185187,0)" xlink:href="#G"/><use transform="matrix(0.07407407407407408,0,0,0.07407407407407408,34,0)" xlink:href="#H"/><use transform="matrix(0.07407407407407408,0,0,0.07407407407407408,41.407407407407405,0)" xlink:href="#I"/><use transform="matrix(0.07407407407407408,0,0,0.07407407407407408,56.22222222222222,0)" xlink:href="#O"/></g><path fill="#fff" d="M100-194c62-1 85 37 85 99 1 63-27 99-86 99S16-35 15-95c0-66 28-99 85-99zM99-20c44 1 53-31 53-75 0-43-8-75-51-75s-53 32-53 75 10 74 51 75" id="ad"/><g id="q"><use transform="matrix(0.07407407407407408,0,0,0.07407407407407408,0,0)" xlink:href="#V"/><use transform="matrix(0.07407407407407408,0,0,0.07407407407407408,13.333333333333336,0)" xlink:href="#ad"/><use transform="matrix(0.07407407407407408,0,0,0.07407407407407408,28.148148148148152,0)" xlink:href="#J"/><use transform="matrix(0.07407407407407408,0,0,0.07407407407407408,36.96296296296297,0)" xlink:href="#J"/><use transform="matrix(0.07407407407407408,0,0,0.07407407407407408,45.777777777777786,0)" xlink:href="#I"/><use transform="matrix(0.07407407407407408,0,0,0.07407407407407408,60.5925925925926,0)" xlink:href="#V"/><use transform="matrix(0.07407407407407408,0,0,0.07407407407407408,73.92592592592594,0)" xlink:href="#H"/><use transform="matrix(0.07407407407407408,0,0,0.07407407407407408,81.33333333333334,0)" xlink:href="#S"/></g><path fill="#fff" d="M63-220v92h138v28H63V0H30v-248h175v28H63" id="ae"/><path fill="#fff" d="M106-169C34-169 62-67 57 0H25v-261h32l-1 103c12-21 28-36 61-36 89 0 53 116 60 194h-32v-121c2-32-8-49-39-48" id="af"/><g id="s"><use transform="matrix(0.07407407407407408,0,0,0.07407407407407408,0,0)" xlink:href="#ae"/><use transform="matrix(0.07407407407407408,0,0,0.07407407407407408,16.222222222222225,0)" xlink:href="#I"/><use transform="matrix(0.07407407407407408,0,0,0.07407407407407408,31.03703703703704,0)" xlink:href="#af"/><use transform="matrix(0.07407407407407408,0,0,0.07407407407407408,45.851851851851855,0)" xlink:href="#L"/><use transform="matrix(0.07407407407407408,0,0,0.07407407407407408,51.70370370370372,0)" xlink:href="#I"/><use transform="matrix(0.07407407407407408,0,0,0.07407407407407408,66.51851851851853,0)" xlink:href="#J"/></g><path fill="#fff" d="M54-142c48-35 137-8 131 61C196 18 31 33 14-55l32-4c7 23 22 37 52 37 35-1 51-22 54-58 4-55-73-65-99-34H22l8-134h141v27H59" id="ag"/><path fill="#fff" d="M101-251c68 0 85 55 85 127S166 4 100 4C33 4 14-52 14-124c0-73 17-127 87-127zm-1 229c47 0 54-49 54-102s-4-102-53-102c-51 0-55 48-55 102 0 53 5 102 54 102" id="ah"/><g id="t"><use transform="matrix(0.07407407407407408,0,0,0.07407407407407408,0,0)" xlink:href="#ag"/><use transform="matrix(0.07407407407407408,0,0,0.07407407407407408,14.814814814814817,0)" xlink:href="#ah"/><use transform="matrix(0.07407407407407408,0,0,0.07407407407407408,29.629629629629633,0)" xlink:href="#ah"/></g><filter id="r" filterUnits="objectBoundingBox" x="-.06" y="-.05" width="1.13" height="1.25"><feOffset result="offOut" in="SourceAlpha" dy="6"/><feGaussianBlur result="blurOut" in="offOut" stdDeviation="5"/><feColorMatrix result="colorOut" in="blurOut" values="0 0 0 0 0 0 0 0 0 0 0 0 0 0 0 0 0 0 0.16862745098039217 0"/><feBlend in="SourceGraphic" in2="colorOut"/></filter><path fill="#fff" d="M205 0l-28-72H64L36 0H1l101-248h38L239 0h-34zm-38-99l-47-123c-12 45-31 82-46 123h93" id="ai"/><path fill="#fff" d="M85-194c31 0 48 13 60 33l-1-100h32l1 261h-30c-2-10 0-23-3-31C134-8 116 4 85 4 32 4 16-35 15-94c0-66 23-100 70-100zm9 24c-40 0-46 34-46 75 0 40 6 74 45 74 42 0 51-32 51-76 0-42-9-74-50-73" id="aj"/><g id="u"><use transform="matrix(0.07407407407407408,0,0,0.07407407407407408,0,0)" xlink:href="#ai"/><use transform="matrix(0.07407407407407408,0,0,0.07407407407407408,17.77777777777778,0)" xlink:href="#Q"/><use transform="matrix(0.07407407407407408,0,0,0.07407407407407408,32.592592592592595,0)" xlink:href="#H"/><use transform="matrix(0.07407407407407408,0,0,0.07407407407407408,40,0)" xlink:href="#af"/><use transform="matrix(0.07407407407407408,0,0,0.07407407407407408,54.81481481481482,0)" xlink:href="#ad"/><use transform="matrix(0.07407407407407408,0,0,0.07407407407407408,69.62962962962963,0)" xlink:href="#J"/><use transform="matrix(0.07407407407407408,0,0,0.07407407407407408,78.44444444444446,0)" xlink:href="#K"/><use transform="matrix(0.07407407407407408,0,0,0.07407407407407408,84.2962962962963,0)" xlink:href="#U"/><use transform="matrix(0.07407407407407408,0,0,0.07407407407407408,97.62962962962965,0)" xlink:href="#I"/><use transform="matrix(0.07407407407407408,0,0,0.07407407407407408,112.44444444444446,0)" xlink:href="#aj"/></g><path fill="#fff" d="M155-56V0h-30v-56H8v-25l114-167h33v167h35v25h-35zm-30-156c-27 46-58 90-88 131h88v-131" id="ak"/><path fill="#fff" d="M126-127c33 6 58 20 58 59 0 88-139 92-164 29-3-8-5-16-6-25l32-3c6 27 21 44 54 44 32 0 52-15 52-46 0-38-36-46-79-43v-28c39 1 72-4 72-42 0-27-17-43-46-43-28 0-47 15-49 41l-32-3c6-42 35-63 81-64 48-1 79 21 79 65 0 36-21 52-52 59" id="al"/><g id="v"><use transform="matrix(0.07407407407407408,0,0,0.07407407407407408,0,0)" xlink:href="#ak"/><use transform="matrix(0.07407407407407408,0,0,0.07407407407407408,14.814814814814817,0)" xlink:href="#ah"/><use transform="matrix(0.07407407407407408,0,0,0.07407407407407408,29.629629629629633,0)" xlink:href="#al"/></g><path fill="#333" d="M205 0l-28-72H64L36 0H1l101-248h38L239 0h-34zm-38-99l-47-123c-12 45-31 82-46 123h93" id="am"/><path fill="#333" d="M30-248c87 1 191-15 191 75 0 78-77 80-158 76V0H30v-248zm33 125c57 0 124 11 124-50 0-59-68-47-124-48v98" id="an"/><path fill="#333" d="M33 0v-248h34V0H33" id="ao"/><g id="x"><use transform="matrix(0.07407407407407408,0,0,0.07407407407407408,0,0)" xlink:href="#am"/><use transform="matrix(0.07407407407407408,0,0,0.07407407407407408,17.77777777777778,0)" xlink:href="#an"/><use transform="matrix(0.07407407407407408,0,0,0.07407407407407408,35.55555555555556,0)" xlink:href="#ao"/></g><filter id="w" filterUnits="objectBoundingBox" x="-.01" y="-.01" width="1.02" height="1.04"><feOffset result="offOut" in="SourceAlpha" dy="6"/><feGaussianBlur result="blurOut" in="offOut" stdDeviation="5"/><feColorMatrix result="colorOut" in="blurOut" values="0 0 0 0 0 0 0 0 0 0 0 0 0 0 0 0 0 0 0.16862745098039217 0"/><feBlend in="SourceGraphic" in2="colorOut"/></filter><path fill="#fff" d="M160-131c35 5 61 23 61 61C221 17 115-2 30 0v-248c76 3 177-17 177 60 0 33-19 50-47 57zm-97-11c50-1 110 9 110-42 0-47-63-36-110-37v79zm0 115c55-2 124 14 124-45 0-56-70-42-124-44v89" id="ap"/><g id="z"><use transform="matrix(0.07407407407407408,0,0,0.07407407407407408,0,0)" xlink:href="#ap"/><use transform="matrix(0.07407407407407408,0,0,0.07407407407407408,17.77777777777778,0)" xlink:href="#I"/><use transform="matrix(0.07407407407407408,0,0,0.07407407407407408,32.592592592592595,0)" xlink:href="#O"/><use transform="matrix(0.07407407407407408,0,0,0.07407407407407408,47.40740740740741,0)" xlink:href="#Q"/><use transform="matrix(0.07407407407407408,0,0,0.07407407407407408,62.22222222222223,0)" xlink:href="#H"/><use transform="matrix(0.07407407407407408,0,0,0.07407407407407408,69.62962962962963,0)" xlink:href="#U"/><use transform="matrix(0.07407407407407408,0,0,0.07407407407407408,82.96296296296296,0)" xlink:href="#I"/><use transform="matrix(0.07407407407407408,0,0,0.07407407407407408,97.77777777777777,0)" xlink:href="#J"/></g><filter id="y" filterUnits="objectBoundingBox" x="-.01" y="-.07" width="1.02" height="1.33"><feOffset result="offOut" in="SourceAlpha" dy="6"/><feGaussianBlur result="blurOut" in="offOut" stdDeviation="5"/><feColorMatrix result="colorOut" in="blurOut" values="0 0 0 0 0 0 0 0 0 0 0 0 0 0 0 0 0 0 0.16862745098039217 0"/><feBlend in="SourceGraphic" in2="colorOut"/></filter><path fill="#333" d="M212-179c-10-28-35-45-73-45-59 0-87 40-87 99 0 60 29 101 89 101 43 0 62-24 78-52l27 14C228-24 195 4 139 4 59 4 22-46 18-125c-6-104 99-153 187-111 19 9 31 26 39 46" id="aq"/><path fill="#333" d="M30 0v-248h33v221h125V0H30" id="ar"/><path fill="#333" d="M30 0v-248h187v28H63v79h144v27H63v87h162V0H30" id="as"/><path fill="#333" d="M127-220V0H93v-220H8v-28h204v28h-85" id="at"/><g id="B"><use transform="matrix(0.07407407407407408,0,0,0.07407407407407408,0,0)" xlink:href="#aq"/><use transform="matrix(0.07407407407407408,0,0,0.07407407407407408,19.185185185185187,0)" xlink:href="#ar"/><use transform="matrix(0.07407407407407408,0,0,0.07407407407407408,34,0)" xlink:href="#ao"/><use transform="matrix(0.07407407407407408,0,0,0.07407407407407408,41.407407407407405,0)" xlink:href="#as"/><use transform="matrix(0.07407407407407408,0,0,0.07407407407407408,59.18518518518518,0)" xlink:href="#ab"/><use transform="matrix(0.07407407407407408,0,0,0.07407407407407408,78.37037037037037,0)" xlink:href="#at"/></g><filter id="A" filterUnits="objectBoundingBox" x="-.01" y="-.01" width="1.02" height="1.03"><feOffset result="offOut" in="SourceAlpha" dy="6"/><feGaussianBlur result="blurOut" in="offOut" stdDeviation="5"/><feColorMatrix result="colorOut" in="blurOut" values="0 0 0 0 0 0 0 0 0 0 0 0 0 0 0 0 0 0 0.16862745098039217 0"/><feBlend in="SourceGraphic" in2="colorOut"/></filter><path fill="#333" d="M30-248c118-7 216 8 213 122C240-48 200 0 122 0H30v-248zM63-27c89 8 146-16 146-99s-60-101-146-95v194" id="au"/><path fill="#333" d="M141-36C126-15 110 5 73 4 37 3 15-17 15-53c-1-64 63-63 125-63 3-35-9-54-41-54-24 1-41 7-42 31l-33-3c5-37 33-52 76-52 45 0 72 20 72 64v82c-1 20 7 32 28 27v20c-31 9-61-2-59-35zM48-53c0 20 12 33 32 33 41-3 63-29 60-74-43 2-92-5-92 41" id="av"/><path fill="#333" d="M59-47c-2 24 18 29 38 22v24C64 9 27 4 27-40v-127H5v-23h24l9-43h21v43h35v23H59v120" id="aw"/><path fill="#333" d="M117-194c89-4 53 116 60 194h-32v-121c0-31-8-49-39-48C34-167 62-67 57 0H25l-1-190h30c1 10-1 24 2 32 11-22 29-35 61-36" id="ax"/><path fill="#333" d="M115-194c53 0 69 39 70 98 0 66-23 100-70 100C84 3 66-7 56-30L54 0H23l1-261h32v101c10-23 28-34 59-34zm-8 174c40 0 45-34 45-75 0-40-5-75-45-74-42 0-51 32-51 76 0 43 10 73 51 73" id="ay"/><path fill="#333" d="M143 0L79-87 56-68V0H24v-261h32v163l83-92h37l-77 82L181 0h-38" id="az"/><g id="D"><use transform="matrix(0.07407407407407408,0,0,0.07407407407407408,0,0)" xlink:href="#au"/><use transform="matrix(0.07407407407407408,0,0,0.07407407407407408,19.185185185185187,0)" xlink:href="#av"/><use transform="matrix(0.07407407407407408,0,0,0.07407407407407408,34,0)" xlink:href="#aw"/><use transform="matrix(0.07407407407407408,0,0,0.07407407407407408,41.407407407407405,0)" xlink:href="#Z"/><use transform="matrix(0.07407407407407408,0,0,0.07407407407407408,56.22222222222222,0)" xlink:href="#ax"/><use transform="matrix(0.07407407407407408,0,0,0.07407407407407408,71.03703703703704,0)" xlink:href="#ay"/><use transform="matrix(0.07407407407407408,0,0,0.07407407407407408,85.85185185185185,0)" xlink:href="#av"/><use transform="matrix(0.07407407407407408,0,0,0.07407407407407408,100.66666666666666,0)" xlink:href="#ax"/><use transform="matrix(0.07407407407407408,0,0,0.07407407407407408,115.48148148148147,0)" xlink:href="#az"/></g><filter id="C" filterUnits="objectBoundingBox" x="-.01" y="-.02" width="1.02" height="1.1"><feOffset result="offOut" in="SourceAlpha" dy="6"/><feGaussianBlur result="blurOut" in="offOut" stdDeviation="5"/><feColorMatrix result="colorOut" in="blurOut" values="0 0 0 0 0 0 0 0 0 0 0 0 0 0 0 0 0 0 0.16862745098039217 0"/><feBlend in="SourceGraphic" in2="colorOut"/></filter><path fill="#3d4752" d="M137-103V0h-34v-103L8-248h37l75 118 75-118h37" id="aA"/><path fill="#3d4752" d="M100-194c63 0 86 42 84 106H49c0 40 14 67 53 68 26 1 43-12 49-29l28 8c-11 28-37 45-77 45C44 4 14-33 15-96c1-61 26-98 85-98zm52 81c6-60-76-77-97-28-3 7-6 17-6 28h103" id="aB"/><path fill="#3d4752" d="M135-143c-3-34-86-38-87 0 15 53 115 12 119 90S17 21 10-45l28-5c4 36 97 45 98 0-10-56-113-15-118-90-4-57 82-63 122-42 12 7 21 19 24 35" id="aC"/><g id="E"><use transform="matrix(0.07407407407407408,0,0,0.07407407407407408,0,0)" xlink:href="#aA"/><use transform="matrix(0.07407407407407408,0,0,0.07407407407407408,15.333333333333334,0)" xlink:href="#aB"/><use transform="matrix(0.07407407407407408,0,0,0.07407407407407408,30.148148148148152,0)" xlink:href="#aC"/></g></defs></g></svg>