<svg xmlns="http://www.w3.org/2000/svg" xmlns:xlink="http://www.w3.org/1999/xlink" xmlns:lucid="lucid" width="960" height="700"><g transform="translate(-480 -100)" lucid:page-tab-id="0_0"><path d="M0 0h1870.4v1323.2H0z" fill="#fff"/><path d="M500 320h400v320H500z" stroke="#000" stroke-width="2" fill="#fff"/><use xlink:href="#a" transform="matrix(1,0,0,1,505,325) translate(0 14.4)"/><path d="M1100 381.6h160v120h-160z" stroke="#000" stroke-width="2" fill="#fff"/><use xlink:href="#b" transform="matrix(1,0,0,1,1100,381.5999999999999) translate(64.00500000000001 63.15)"/><path d="M1260 240h160v120h-160z" stroke="#000" stroke-width="2" fill="#fff"/><use xlink:href="#c" transform="matrix(1,0,0,1,1260,240) translate(52.855 63.15)"/><path d="M720 120h160v120H720z" stroke="#000" stroke-width="2" fill="#fff"/><use xlink:href="#d" transform="matrix(1,0,0,1,720,120) translate(58.029999999999994 63.15)"/><path d="M530 120h160v120H530z" stroke="#000" stroke-width="2" fill="#fff"/><use xlink:href="#e" transform="matrix(1,0,0,1,530,120) translate(56.029999999999994 63.15)"/><path d="M1181 362.1h-2v-19.25h2zM801 289h380v32.25h-2V291H799v-49h2z"/><path d="M801 242.03h-2V241h2zM1180 377.36l-4.64-14.26h9.28z"/><path d="M1180 380.6l-6-18.5h12zm-3.26-16.5l3.26 10.03 3.26-10.03zM1181 362.1h-2v-19.25h2zM611 289h570v32.25h-2V291H609v-49h2z"/><path d="M611 242.03h-2V241h2zM1180 377.36l-4.64-14.26h9.28z"/><path d="M1180 380.6l-6-18.5h12zm-3.26-16.5l3.26 10.03 3.26-10.03z"/><use xlink:href="#f" transform="matrix(1,0,0,1,1144.55,321.252460789616) translate(0 14.4)"/><path d="M910 120h160v120H910z" stroke="#000" stroke-width="2" fill="#fff"/><use xlink:href="#g" transform="matrix(1,0,0,1,910,120) translate(64.33 63.15)"/><path d="M1181 362.1h-2v-19.25h2zM991 289h190v32.25h-2V291H989v-49h2z"/><path d="M991 242.03h-2V241h2zM1180 377.36l-4.64-14.26h9.28z"/><path d="M1180 380.6l-6-18.5h12zm-3.26-16.5l3.26 10.03 3.26-10.03z"/><path d="M1258 300h-28V180h-140.5" stroke="#000" stroke-width="2" fill="none"/><path d="M1259 301h-1.03v-2h1.03z"/><path d="M1074.24 180l14.26-4.64v9.28z" stroke="#000" stroke-width="2"/><path d="M520 360h160v120H520z" stroke="#000" stroke-width="2" fill="#fff"/><use xlink:href="#h" transform="matrix(1,0,0,1,520,360) translate(31.62999999999999 63.15)"/><path d="M720 360h160v120H720z" stroke="#000" stroke-width="2" fill="#fff"/><use xlink:href="#i" transform="matrix(1,0,0,1,720,360) translate(46.55499999999999 63.15)"/><path d="M520 501.6h160v120H520z" stroke="#000" stroke-width="2" fill="#fff"/><use xlink:href="#j" transform="matrix(1,0,0,1,520,501.5999999999999) translate(43.55499999999999 63.15)"/><path d="M720 501.6h160v120H720z" stroke="#000" stroke-width="2" fill="#fff"/><use xlink:href="#k" transform="matrix(1,0,0,1,720,501.5999999999999) translate(57.529999999999994 63.15)"/><path d="M1098 441.6H919.5" stroke="#000" stroke-width="2" fill="none"/><path d="M1099 442.6h-1.03v-2h1.03z"/><path d="M904.24 441.6l14.26-4.64v9.28z" stroke="#000" stroke-width="2"/><path d="M950 560h400v220H950z" stroke="#000" stroke-width="2" fill="#fff"/><use xlink:href="#l" transform="matrix(1,0,0,1,955,565) translate(0 14.4)"/><path d="M970 650h160v120H970z" stroke="#000" stroke-width="2" fill="#fff"/><use xlink:href="#m" transform="matrix(1,0,0,1,970,650) translate(57.529999999999994 63.15)"/><path d="M1170 650h160v120h-160z" stroke="#000" stroke-width="2" fill="#fff"/><use xlink:href="#d" transform="matrix(1,0,0,1,1170,650) translate(58.029999999999994 63.15)"/><path d="M700 642v28h230.5" stroke="#000" stroke-width="2" fill="none"/><path d="M701 642.03h-2V641h2z"/><path d="M945.76 670l-14.26 4.64v-9.28z" stroke="#000" stroke-width="2"/><defs><path d="M30-248c87 1 191-15 191 75 0 78-77 80-158 76V0H30v-248zm33 125c57 0 124 11 124-50 0-59-68-47-124-48v98" id="n"/><path d="M141-36C126-15 110 5 73 4 37 3 15-17 15-53c-1-64 63-63 125-63 3-35-9-54-41-54-24 1-41 7-42 31l-33-3c5-37 33-52 76-52 45 0 72 20 72 64v82c-1 20 7 32 28 27v20c-31 9-61-2-59-35zM48-53c0 20 12 33 32 33 41-3 63-29 60-74-43 2-92-5-92 41" id="o"/><path d="M177-190C167-65 218 103 67 71c-23-6-38-20-44-43l32-5c15 47 100 32 89-28v-30C133-14 115 1 83 1 29 1 15-40 15-95c0-56 16-97 71-98 29-1 48 16 59 35 1-10 0-23 2-32h30zM94-22c36 0 50-32 50-73 0-42-14-75-50-75-39 0-46 34-46 75s6 73 46 73" id="p"/><path d="M100-194c63 0 86 42 84 106H49c0 40 14 67 53 68 26 1 43-12 49-29l28 8c-11 28-37 45-77 45C44 4 14-33 15-96c1-61 26-98 85-98zm52 81c6-60-76-77-97-28-3 7-6 17-6 28h103" id="q"/><path d="M135-143c-3-34-86-38-87 0 15 53 115 12 119 90S17 21 10-45l28-5c4 36 97 45 98 0-10-56-113-15-118-90-4-57 82-63 122-42 12 7 21 19 24 35" id="r"/><g id="a"><use transform="matrix(0.05,0,0,0.05,0,0)" xlink:href="#n"/><use transform="matrix(0.05,0,0,0.05,12,0)" xlink:href="#o"/><use transform="matrix(0.05,0,0,0.05,22,0)" xlink:href="#p"/><use transform="matrix(0.05,0,0,0.05,32,0)" xlink:href="#q"/><use transform="matrix(0.05,0,0,0.05,42,0)" xlink:href="#r"/></g><path d="M205 0l-28-72H64L36 0H1l101-248h38L239 0h-34zm-38-99l-47-123c-12 45-31 82-46 123h93" id="s"/><path d="M115-194c55 1 70 41 70 98S169 2 115 4C84 4 66-9 55-30l1 105H24l-1-265h31l2 30c10-21 28-34 59-34zm-8 174c40 0 45-34 45-75s-6-73-45-74c-42 0-51 32-51 76 0 43 10 73 51 73" id="t"/><g id="b"><use transform="matrix(0.05,0,0,0.05,0,0)" xlink:href="#s"/><use transform="matrix(0.05,0,0,0.05,12,0)" xlink:href="#t"/><use transform="matrix(0.05,0,0,0.05,22,0)" xlink:href="#t"/></g><path d="M137 0h-34L2-248h35l83 218 83-218h36" id="u"/><path d="M84 4C-5 8 30-112 23-190h32v120c0 31 7 50 39 49 72-2 45-101 50-169h31l1 190h-30c-1-10 1-25-2-33-11 22-28 36-60 37" id="v"/><path d="M59-47c-2 24 18 29 38 22v24C64 9 27 4 27-40v-127H5v-23h24l9-43h21v43h35v23H59v120" id="w"/><path d="M24-231v-30h32v30H24zM24 0v-190h32V0H24" id="x"/><path d="M101-234c-31-9-42 10-38 44h38v23H63V0H32v-167H5v-23h27c-7-52 17-82 69-68v24" id="y"/><path d="M179-190L93 31C79 59 56 82 12 73V49c39 6 53-20 64-50L1-190h34L92-34l54-156h33" id="z"/><g id="c"><use transform="matrix(0.05,0,0,0.05,0,0)" xlink:href="#u"/><use transform="matrix(0.05,0,0,0.05,11.35,0)" xlink:href="#v"/><use transform="matrix(0.05,0,0,0.05,21.35,0)" xlink:href="#q"/><use transform="matrix(0.05,0,0,0.05,31.35,0)" xlink:href="#w"/><use transform="matrix(0.05,0,0,0.05,36.35,0)" xlink:href="#x"/><use transform="matrix(0.05,0,0,0.05,40.300000000000004,0)" xlink:href="#y"/><use transform="matrix(0.05,0,0,0.05,45.300000000000004,0)" xlink:href="#z"/></g><path d="M141 0L90-78 38 0H4l68-98-65-92h35l48 74 47-74h35l-64 92 68 98h-35" id="A"/><path d="M100-194c62-1 85 37 85 99 1 63-27 99-86 99S16-35 15-95c0-66 28-99 85-99zM99-20c44 1 53-31 53-75 0-43-8-75-51-75s-53 32-53 75 10 74 51 75" id="B"/><g id="d"><use transform="matrix(0.05,0,0,0.05,0,0)" xlink:href="#s"/><use transform="matrix(0.05,0,0,0.05,12,0)" xlink:href="#A"/><use transform="matrix(0.05,0,0,0.05,21,0)" xlink:href="#x"/><use transform="matrix(0.05,0,0,0.05,24.95,0)" xlink:href="#B"/><use transform="matrix(0.05,0,0,0.05,34.95,0)" xlink:href="#r"/></g><path d="M33 0v-38h34V0H33" id="C"/><path d="M24-231v-30h32v30H24zM-9 49c24 4 33-6 33-30v-209h32V24c2 40-23 58-65 49V49" id="D"/><g id="e"><use transform="matrix(0.05,0,0,0.05,0,0)" xlink:href="#t"/><use transform="matrix(0.05,0,0,0.05,10,0)" xlink:href="#v"/><use transform="matrix(0.05,0,0,0.05,20,0)" xlink:href="#p"/><use transform="matrix(0.05,0,0,0.05,30,0)" xlink:href="#C"/><use transform="matrix(0.05,0,0,0.05,35,0)" xlink:href="#D"/><use transform="matrix(0.05,0,0,0.05,38.95,0)" xlink:href="#r"/></g><path d="M33 0v-248h34V0H33" id="E"/><path d="M210-169c-67 3-38 105-44 169h-31v-121c0-29-5-50-35-48C34-165 62-65 56 0H25l-1-190h30c1 10-1 24 2 32 10-44 99-50 107 0 11-21 27-35 58-36 85-2 47 119 55 194h-31v-121c0-29-5-49-35-48" id="F"/><path d="M114-163C36-179 61-72 57 0H25l-1-190h30c1 12-1 29 2 39 6-27 23-49 58-41v29" id="G"/><path d="M85-194c31 0 48 13 60 33l-1-100h32l1 261h-30c-2-10 0-23-3-31C134-8 116 4 85 4 32 4 16-35 15-94c0-66 23-100 70-100zm9 24c-40 0-46 34-46 75 0 40 6 74 45 74 42 0 51-32 51-76 0-42-9-74-50-73" id="H"/><g id="f"><use transform="matrix(0.05,0,0,0.05,0,0)" xlink:href="#E"/><use transform="matrix(0.05,0,0,0.05,5,0)" xlink:href="#F"/><use transform="matrix(0.05,0,0,0.05,19.950000000000003,0)" xlink:href="#t"/><use transform="matrix(0.05,0,0,0.05,29.950000000000003,0)" xlink:href="#B"/><use transform="matrix(0.05,0,0,0.05,39.95,0)" xlink:href="#G"/><use transform="matrix(0.05,0,0,0.05,45.900000000000006,0)" xlink:href="#w"/><use transform="matrix(0.05,0,0,0.05,50.900000000000006,0)" xlink:href="#q"/><use transform="matrix(0.05,0,0,0.05,60.900000000000006,0)" xlink:href="#H"/></g><g id="g"><use transform="matrix(0.05,0,0,0.05,0,0)" xlink:href="#u"/><use transform="matrix(0.05,0,0,0.05,11.35,0)" xlink:href="#v"/><use transform="matrix(0.05,0,0,0.05,21.35,0)" xlink:href="#q"/></g><path d="M117-194c89-4 53 116 60 194h-32v-121c0-31-8-49-39-48C34-167 62-67 57 0H25l-1-190h30c1 10-1 24 2 32 11-22 29-35 61-36" id="I"/><path d="M206 0h-36l-40-164L89 0H53L-1-190h32L70-26l43-164h34l41 164 42-164h31" id="J"/><path d="M240 0l2-218c-23 76-54 145-80 218h-23L58-218 59 0H30v-248h44l77 211c21-75 51-140 76-211h43V0h-30" id="K"/><path d="M24 0v-261h32V0H24" id="L"/><g id="h"><use transform="matrix(0.05,0,0,0.05,0,0)" xlink:href="#I"/><use transform="matrix(0.05,0,0,0.05,10,0)" xlink:href="#q"/><use transform="matrix(0.05,0,0,0.05,20,0)" xlink:href="#J"/><use transform="matrix(0.05,0,0,0.05,32.95,0)" xlink:href="#K"/><use transform="matrix(0.05,0,0,0.05,47.900000000000006,0)" xlink:href="#o"/><use transform="matrix(0.05,0,0,0.05,57.900000000000006,0)" xlink:href="#w"/><use transform="matrix(0.05,0,0,0.05,62.900000000000006,0)" xlink:href="#x"/><use transform="matrix(0.05,0,0,0.05,66.85000000000001,0)" xlink:href="#q"/><use transform="matrix(0.05,0,0,0.05,76.85000000000001,0)" xlink:href="#G"/><use transform="matrix(0.05,0,0,0.05,82.80000000000001,0)" xlink:href="#o"/><use transform="matrix(0.05,0,0,0.05,92.80000000000001,0)" xlink:href="#L"/></g><g id="i"><use transform="matrix(0.05,0,0,0.05,0,0)" xlink:href="#L"/><use transform="matrix(0.05,0,0,0.05,3.95,0)" xlink:href="#q"/><use transform="matrix(0.05,0,0,0.05,13.949999999999998,0)" xlink:href="#I"/><use transform="matrix(0.05,0,0,0.05,23.95,0)" xlink:href="#H"/><use transform="matrix(0.05,0,0,0.05,33.95,0)" xlink:href="#x"/><use transform="matrix(0.05,0,0,0.05,37.900000000000006,0)" xlink:href="#I"/><use transform="matrix(0.05,0,0,0.05,47.900000000000006,0)" xlink:href="#p"/><use transform="matrix(0.05,0,0,0.05,57.900000000000006,0)" xlink:href="#r"/></g><path d="M108 0H70L1-190h34L89-25l56-165h34" id="M"/><g id="j"><use transform="matrix(0.05,0,0,0.05,0,0)" xlink:href="#x"/><use transform="matrix(0.05,0,0,0.05,3.95,0)" xlink:href="#I"/><use transform="matrix(0.05,0,0,0.05,13.949999999999998,0)" xlink:href="#M"/><use transform="matrix(0.05,0,0,0.05,22.95,0)" xlink:href="#q"/><use transform="matrix(0.05,0,0,0.05,32.95,0)" xlink:href="#I"/><use transform="matrix(0.05,0,0,0.05,42.95,0)" xlink:href="#w"/><use transform="matrix(0.05,0,0,0.05,47.95,0)" xlink:href="#B"/><use transform="matrix(0.05,0,0,0.05,57.95,0)" xlink:href="#G"/><use transform="matrix(0.05,0,0,0.05,63.900000000000006,0)" xlink:href="#z"/></g><path d="M106-169C34-169 62-67 57 0H25v-261h32l-1 103c12-21 28-36 61-36 89 0 53 116 60 194h-32v-121c2-32-8-49-39-48" id="N"/><g id="k"><use transform="matrix(0.05,0,0,0.05,0,0)" xlink:href="#N"/><use transform="matrix(0.05,0,0,0.05,10,0)" xlink:href="#B"/><use transform="matrix(0.05,0,0,0.05,20,0)" xlink:href="#F"/><use transform="matrix(0.05,0,0,0.05,34.95,0)" xlink:href="#q"/></g><path d="M194 0L95-120 63-95V0H30v-248h33v124l119-124h40L117-140 236 0h-42" id="O"/><g id="l"><use transform="matrix(0.05,0,0,0.05,0,0)" xlink:href="#O"/><use transform="matrix(0.05,0,0,0.05,12,0)" xlink:href="#B"/><use transform="matrix(0.05,0,0,0.05,22,0)" xlink:href="#F"/><use transform="matrix(0.05,0,0,0.05,36.95,0)" xlink:href="#t"/><use transform="matrix(0.05,0,0,0.05,46.95,0)" xlink:href="#B"/><use transform="matrix(0.05,0,0,0.05,56.95,0)" xlink:href="#I"/><use transform="matrix(0.05,0,0,0.05,66.95,0)" xlink:href="#q"/><use transform="matrix(0.05,0,0,0.05,76.95,0)" xlink:href="#I"/><use transform="matrix(0.05,0,0,0.05,86.95,0)" xlink:href="#w"/><use transform="matrix(0.05,0,0,0.05,91.95,0)" xlink:href="#q"/></g><g id="m"><use transform="matrix(0.05,0,0,0.05,0,0)" xlink:href="#K"/><use transform="matrix(0.05,0,0,0.05,14.950000000000001,0)" xlink:href="#q"/><use transform="matrix(0.05,0,0,0.05,24.950000000000003,0)" xlink:href="#I"/><use transform="matrix(0.05,0,0,0.05,34.95,0)" xlink:href="#v"/></g></defs></g></svg>