<svg xmlns="http://www.w3.org/2000/svg" xmlns:xlink="http://www.w3.org/1999/xlink" xmlns:lucid="lucid" width="850" height="1702"><g transform="translate(-559 141)" lucid:page-tab-id="YGcM5DNywbTK"><path d="M0-1696h2656v3456H0z" fill="#fff"/><path d="M1047.56 802h-22.95V550h216V424.74" stroke="#000" stroke-width="4" fill="none"/><path d="M1049.56 804h-2.05v-4h2.06z"/><path d="M1240.6 408.47l4.63 14.27h-9.27z" stroke="#000" stroke-width="4"/><path d="M1047.56 962h-22.95V550h216V424.74" stroke="#000" stroke-width="4" fill="none"/><path d="M1049.56 964h-2.05v-4h2.06z"/><path d="M1240.6 408.47l4.63 14.27h-9.27z" stroke="#000" stroke-width="4"/><path d="M1047.56 1122h-22.95V550h216V424.74" stroke="#000" stroke-width="4" fill="none"/><path d="M1049.56 1124h-2.05v-4h2.06z"/><path d="M1240.6 408.47l4.63 14.27h-9.27z" stroke="#000" stroke-width="4"/><path d="M1047.56 1282h-22.95V550h216V424.74" stroke="#000" stroke-width="4" fill="none"/><path d="M1049.56 1284h-2.05v-4h2.06z"/><path d="M1240.6 408.47l4.63 14.27h-9.27z" stroke="#000" stroke-width="4"/><path d="M1047.56 1442h-22.95V550h216V424.74" stroke="#000" stroke-width="4" fill="none"/><path d="M1049.56 1444h-2.05v-4h2.06z"/><path d="M1240.6 408.47l4.63 14.27h-9.27z" stroke="#000" stroke-width="4"/><path d="M1156.6 340H960v15.26" stroke="#000" stroke-width="4" fill="none"/><path d="M1158.6 342h-2.05v-4h2.05z"/><path d="M960 371.53l-4.64-14.27h9.28z" stroke="#000" stroke-width="4"/><path d="M809.3 838.5V550H960v-25.26" stroke="#000" stroke-width="4" fill="none"/><path d="M811.3 840.5h-4v-2.05h4z"/><path d="M960 508.47l4.64 14.27h-9.28z" stroke="#000" stroke-width="4"/><path d="M1156.6 180H960v175.26" stroke="#000" stroke-width="4" fill="none"/><path d="M1158.6 182h-2.05v-4h2.05z"/><path d="M960 371.53l-4.64-14.27h9.28z" stroke="#000" stroke-width="4"/><path d="M824 104h136v251.26" stroke="#000" stroke-width="4" fill="none"/><path d="M824.05 106H822v-4h2.05z"/><path d="M960 371.53l-4.64-14.27h9.28z" stroke="#000" stroke-width="4"/><path d="M824 264h136v91.26" stroke="#000" stroke-width="4" fill="none"/><path d="M824.05 266H822v-4h2.05z"/><path d="M960 371.53l-4.64-14.27h9.28z" stroke="#000" stroke-width="4"/><path d="M1156.6 20H960v335.26" stroke="#000" stroke-width="4" fill="none"/><path d="M1158.6 22h-2.05v-4h2.05z"/><path d="M960 371.53l-4.64-14.27h9.28z" stroke="#000" stroke-width="4"/><path d="M809.3 1058v-70.76" stroke="#000" stroke-width="4" fill="none"/><path d="M811.3 1060h-4v-2.05h4z"/><path d="M809.3 970.97l4.64 14.27h-9.27z" stroke="#000" stroke-width="4"/><g filter="url(#a)"><path d="M880 380h160v120H880z" stroke="#000" stroke-width="4" fill="#fcc438"/><use xlink:href="#b" transform="matrix(1,0,0,1,885,385) translate(34.61437908496732 62.954248366013076)"/></g><g filter="url(#c)"><path d="M580 640h808v900H580z" stroke="#000" stroke-width="4" fill="#834187" fill-opacity=".41"/><use xlink:href="#d" transform="matrix(1,0,0,1,585,645) translate(0 30.117647058823533)"/></g><g filter="url(#e)"><path d="M720 842.5h178.6v120H720z" stroke="#000" stroke-width="4" fill="#0082b4"/><use xlink:href="#f" transform="matrix(1,0,0,1,725,847.5) translate(51.24183006535948 62.954248366013076)"/></g><g filter="url(#e)"><path d="M720 1062h178.6v120H720z" stroke="#000" stroke-width="4" fill="#0082b4"/><use xlink:href="#g" transform="matrix(1,0,0,1,725,1067) translate(37.69934640522876 62.954248366013076)"/></g><g filter="url(#h)"><path d="M932.56 672h424.18v860H932.56z" stroke="#000" stroke-width="4" fill="#ffeca9" fill-opacity=".41"/><use xlink:href="#i" transform="matrix(1,0,0,1,937.5581395348837,677) translate(158.37908496732027 30.117647058823533)"/></g><g filter="url(#j)"><path d="M1051.56 742h256.26v120h-256.26z" stroke="#000" stroke-width="4" fill="#0082b4"/><use xlink:href="#k" transform="matrix(1,0,0,1,1056.5631951466125,747) translate(32.52287581699346 62.954248366013076)"/></g><g filter="url(#j)"><path d="M1051.56 902h256.26v120h-256.26z" stroke="#000" stroke-width="4" fill="#0082b4"/><use xlink:href="#l" transform="matrix(1,0,0,1,1056.5631951466125,907) translate(47.111111111111114 62.954248366013076)"/></g><g filter="url(#j)"><path d="M1051.56 1062h256.26v120h-256.26z" stroke="#000" stroke-width="4" fill="#0082b4"/><use xlink:href="#m" transform="matrix(1,0,0,1,1056.5631951466125,1067) translate(48.15686274509804 62.954248366013076)"/></g><g filter="url(#j)"><path d="M1051.56 1222h256.26v120h-256.26z" stroke="#000" stroke-width="4" fill="#0082b4"/><use xlink:href="#n" transform="matrix(1,0,0,1,1056.5631951466125,1227) translate(78.48366013071896 62.954248366013076)"/></g><g filter="url(#j)"><path d="M1051.56 1382h256.26v120h-256.26z" stroke="#000" stroke-width="4" fill="#0082b4"/><use xlink:href="#o" transform="matrix(1,0,0,1,1056.5631951466125,1387) translate(20.183006535947694 62.954248366013076)"/></g><g filter="url(#p)"><path d="M1100-120h281.2v560H1100z" stroke="#000" stroke-width="4" fill="#c92d39" fill-opacity=".41"/><use xlink:href="#q" transform="matrix(1,0,0,1,1105,-115) translate(0 30.117647058823533)"/></g><g filter="url(#a)"><path d="M1160.6 280h160v120h-160z" stroke="#000" stroke-width="4" fill="#0082b4"/><use xlink:href="#r" transform="matrix(1,0,0,1,1165.598079710145,285) translate(18.928104575163395 62.954248366013076)"/></g><g filter="url(#a)"><path d="M1160.6 120h160v120h-160z" stroke="#000" stroke-width="4" fill="#0082b4"/><use xlink:href="#s" transform="matrix(1,0,0,1,1165.598079710145,125) translate(33.51633986928105 62.954248366013076)"/></g><g filter="url(#a)"><path d="M1160.6-40h160V80h-160z" stroke="#000" stroke-width="4" fill="#0082b4"/><use xlink:href="#t" transform="matrix(1,0,0,1,1165.598079710145,-35) translate(26.19607843137255 62.954248366013076)"/></g><g filter="url(#u)"><path d="M620-40h240v406H620z" stroke="#000" stroke-width="4" fill="#ff8f80" fill-opacity=".41"/><use xlink:href="#v" transform="matrix(1,0,0,1,625,-35) translate(0 30.117647058823533)"/></g><g filter="url(#a)"><path d="M660 44h160v120H660z" stroke="#000" stroke-width="4" fill="#0082b4"/><use xlink:href="#w" transform="matrix(1,0,0,1,665,49) translate(20.967320261437905 62.954248366013076)"/></g><g filter="url(#a)"><path d="M660 204h160v120H660z" stroke="#000" stroke-width="4" fill="#0082b4"/><use xlink:href="#x" transform="matrix(1,0,0,1,665,209) translate(25.15032679738562 62.954248366013076)"/></g><defs><path d="M240 0l2-218c-23 76-54 145-80 218h-23L58-218 59 0H30v-248h44l77 211c21-75 51-140 76-211h43V0h-30" id="y"/><path d="M141-36C126-15 110 5 73 4 37 3 15-17 15-53c-1-64 63-63 125-63 3-35-9-54-41-54-24 1-41 7-42 31l-33-3c5-37 33-52 76-52 45 0 72 20 72 64v82c-1 20 7 32 28 27v20c-31 9-61-2-59-35zM48-53c0 20 12 33 32 33 41-3 63-29 60-74-43 2-92-5-92 41" id="z"/><path d="M24-231v-30h32v30H24zM24 0v-190h32V0H24" id="A"/><path d="M117-194c89-4 53 116 60 194h-32v-121c0-31-8-49-39-48C34-167 62-67 57 0H25l-1-190h30c1 10-1 24 2 32 11-22 29-35 61-36" id="B"/><g id="b"><use transform="matrix(0.10457516339869281,0,0,0.10457516339869281,0,0)" xlink:href="#y"/><use transform="matrix(0.10457516339869281,0,0,0.10457516339869281,31.267973856209153,0)" xlink:href="#z"/><use transform="matrix(0.10457516339869281,0,0,0.10457516339869281,52.18300653594772,0)" xlink:href="#A"/><use transform="matrix(0.10457516339869281,0,0,0.10457516339869281,60.44444444444444,0)" xlink:href="#B"/></g><filter id="a" filterUnits="objectBoundingBox" x="-.06" y="-.03" width="1.13" height="1.17"><feOffset result="offOut" in="SourceAlpha" dy="6"/><feGaussianBlur result="blurOut" in="offOut" stdDeviation="5"/><feColorMatrix result="colorOut" in="blurOut" values="0 0 0 0 0 0 0 0 0 0 0 0 0 0 0 0 0 0 0.16862745098039217 0"/><feBlend in="SourceGraphic" in2="colorOut"/></filter><path fill="#3d4752" d="M96-169c-40 0-48 33-48 73s9 75 48 75c24 0 41-14 43-38l32 2c-6 37-31 61-74 61-59 0-76-41-82-99-10-93 101-131 147-64 4 7 5 14 7 22l-32 3c-4-21-16-35-41-35" id="C"/><path fill="#3d4752" d="M100-194c62-1 85 37 85 99 1 63-27 99-86 99S16-35 15-95c0-66 28-99 85-99zM99-20c44 1 53-31 53-75 0-43-8-75-51-75s-53 32-53 75 10 74 51 75" id="D"/><path fill="#3d4752" d="M210-169c-67 3-38 105-44 169h-31v-121c0-29-5-50-35-48C34-165 62-65 56 0H25l-1-190h30c1 10-1 24 2 32 10-44 99-50 107 0 11-21 27-35 58-36 85-2 47 119 55 194h-31v-121c0-29-5-49-35-48" id="E"/><path fill="#3d4752" d="M115-194c55 1 70 41 70 98S169 2 115 4C84 4 66-9 55-30l1 105H24l-1-265h31l2 30c10-21 28-34 59-34zm-8 174c40 0 45-34 45-75s-6-73-45-74c-42 0-51 32-51 76 0 43 10 73 51 73" id="F"/><path fill="#3d4752" d="M117-194c89-4 53 116 60 194h-32v-121c0-31-8-49-39-48C34-167 62-67 57 0H25l-1-190h30c1 10-1 24 2 32 11-22 29-35 61-36" id="G"/><path fill="#3d4752" d="M100-194c63 0 86 42 84 106H49c0 40 14 67 53 68 26 1 43-12 49-29l28 8c-11 28-37 45-77 45C44 4 14-33 15-96c1-61 26-98 85-98zm52 81c6-60-76-77-97-28-3 7-6 17-6 28h103" id="H"/><path fill="#3d4752" d="M59-47c-2 24 18 29 38 22v24C64 9 27 4 27-40v-127H5v-23h24l9-43h21v43h35v23H59v120" id="I"/><path fill="#3d4752" d="M135-143c-3-34-86-38-87 0 15 53 115 12 119 90S17 21 10-45l28-5c4 36 97 45 98 0-10-56-113-15-118-90-4-57 82-63 122-42 12 7 21 19 24 35" id="J"/><g id="d"><use transform="matrix(0.10457516339869281,0,0,0.10457516339869281,0,0)" xlink:href="#C"/><use transform="matrix(0.10457516339869281,0,0,0.10457516339869281,18.823529411764707,0)" xlink:href="#D"/><use transform="matrix(0.10457516339869281,0,0,0.10457516339869281,39.73856209150327,0)" xlink:href="#E"/><use transform="matrix(0.10457516339869281,0,0,0.10457516339869281,71.00653594771242,0)" xlink:href="#F"/><use transform="matrix(0.10457516339869281,0,0,0.10457516339869281,91.921568627451,0)" xlink:href="#D"/><use transform="matrix(0.10457516339869281,0,0,0.10457516339869281,112.83660130718954,0)" xlink:href="#G"/><use transform="matrix(0.10457516339869281,0,0,0.10457516339869281,133.7516339869281,0)" xlink:href="#H"/><use transform="matrix(0.10457516339869281,0,0,0.10457516339869281,154.66666666666669,0)" xlink:href="#G"/><use transform="matrix(0.10457516339869281,0,0,0.10457516339869281,175.58169934640526,0)" xlink:href="#I"/><use transform="matrix(0.10457516339869281,0,0,0.10457516339869281,186.03921568627453,0)" xlink:href="#J"/></g><filter id="c" filterUnits="objectBoundingBox" x="-.01" y="0" width="1.02" height="1.02"><feOffset result="offOut" in="SourceAlpha" dy="6"/><feGaussianBlur result="blurOut" in="offOut" stdDeviation="5"/><feColorMatrix result="colorOut" in="blurOut" values="0 0 0 0 0 0 0 0 0 0 0 0 0 0 0 0 0 0 0.16862745098039217 0"/><feBlend in="SourceGraphic" in2="colorOut"/></filter><path fill="#fff" d="M205 0l-28-72H64L36 0H1l101-248h38L239 0h-34zm-38-99l-47-123c-12 45-31 82-46 123h93" id="K"/><path fill="#fff" d="M115-194c55 1 70 41 70 98S169 2 115 4C84 4 66-9 55-30l1 105H24l-1-265h31l2 30c10-21 28-34 59-34zm-8 174c40 0 45-34 45-75s-6-73-45-74c-42 0-51 32-51 76 0 43 10 73 51 73" id="L"/><g id="f"><use transform="matrix(0.10457516339869281,0,0,0.10457516339869281,0,0)" xlink:href="#K"/><use transform="matrix(0.10457516339869281,0,0,0.10457516339869281,25.098039215686278,0)" xlink:href="#L"/><use transform="matrix(0.10457516339869281,0,0,0.10457516339869281,46.01307189542484,0)" xlink:href="#L"/></g><filter id="e" filterUnits="objectBoundingBox" x="-.06" y="-.03" width="1.11" height="1.17"><feOffset result="offOut" in="SourceAlpha" dy="6"/><feGaussianBlur result="blurOut" in="offOut" stdDeviation="5"/><feColorMatrix result="colorOut" in="blurOut" values="0 0 0 0 0 0 0 0 0 0 0 0 0 0 0 0 0 0 0.16862745098039217 0"/><feBlend in="SourceGraphic" in2="colorOut"/></filter><path fill="#fff" d="M240 0l2-218c-23 76-54 145-80 218h-23L58-218 59 0H30v-248h44l77 211c21-75 51-140 76-211h43V0h-30" id="M"/><path fill="#fff" d="M100-194c63 0 86 42 84 106H49c0 40 14 67 53 68 26 1 43-12 49-29l28 8c-11 28-37 45-77 45C44 4 14-33 15-96c1-61 26-98 85-98zm52 81c6-60-76-77-97-28-3 7-6 17-6 28h103" id="N"/><path fill="#fff" d="M117-194c89-4 53 116 60 194h-32v-121c0-31-8-49-39-48C34-167 62-67 57 0H25l-1-190h30c1 10-1 24 2 32 11-22 29-35 61-36" id="O"/><path fill="#fff" d="M84 4C-5 8 30-112 23-190h32v120c0 31 7 50 39 49 72-2 45-101 50-169h31l1 190h-30c-1-10 1-25-2-33-11 22-28 36-60 37" id="P"/><g id="g"><use transform="matrix(0.10457516339869281,0,0,0.10457516339869281,0,0)" xlink:href="#M"/><use transform="matrix(0.10457516339869281,0,0,0.10457516339869281,31.267973856209153,0)" xlink:href="#N"/><use transform="matrix(0.10457516339869281,0,0,0.10457516339869281,52.18300653594772,0)" xlink:href="#O"/><use transform="matrix(0.10457516339869281,0,0,0.10457516339869281,73.09803921568628,0)" xlink:href="#P"/></g><path fill="#3d4752" d="M137 0h-34L2-248h35l83 218 83-218h36" id="Q"/><path fill="#3d4752" d="M24-231v-30h32v30H24zM24 0v-190h32V0H24" id="R"/><path fill="#3d4752" d="M206 0h-36l-40-164L89 0H53L-1-190h32L70-26l43-164h34l41 164 42-164h31" id="S"/><g id="i"><use transform="matrix(0.10457516339869281,0,0,0.10457516339869281,0,0)" xlink:href="#Q"/><use transform="matrix(0.10457516339869281,0,0,0.10457516339869281,24.366013071895427,0)" xlink:href="#R"/><use transform="matrix(0.10457516339869281,0,0,0.10457516339869281,32.62745098039216,0)" xlink:href="#H"/><use transform="matrix(0.10457516339869281,0,0,0.10457516339869281,53.542483660130735,0)" xlink:href="#S"/><use transform="matrix(0.10457516339869281,0,0,0.10457516339869281,80.62745098039217,0)" xlink:href="#J"/></g><filter id="h" filterUnits="objectBoundingBox" x="-.02" y="0" width="1.05" height="1.02"><feOffset result="offOut" in="SourceAlpha" dy="6"/><feGaussianBlur result="blurOut" in="offOut" stdDeviation="5"/><feColorMatrix result="colorOut" in="blurOut" values="0 0 0 0 0 0 0 0 0 0 0 0 0 0 0 0 0 0 0.16862745098039217 0"/><feBlend in="SourceGraphic" in2="colorOut"/></filter><path fill="#fff" d="M30-248c118-7 216 8 213 122C240-48 200 0 122 0H30v-248zM63-27c89 8 146-16 146-99s-60-101-146-95v194" id="T"/><path fill="#fff" d="M141-36C126-15 110 5 73 4 37 3 15-17 15-53c-1-64 63-63 125-63 3-35-9-54-41-54-24 1-41 7-42 31l-33-3c5-37 33-52 76-52 45 0 72 20 72 64v82c-1 20 7 32 28 27v20c-31 9-61-2-59-35zM48-53c0 20 12 33 32 33 41-3 63-29 60-74-43 2-92-5-92 41" id="U"/><path fill="#fff" d="M135-143c-3-34-86-38-87 0 15 53 115 12 119 90S17 21 10-45l28-5c4 36 97 45 98 0-10-56-113-15-118-90-4-57 82-63 122-42 12 7 21 19 24 35" id="V"/><path fill="#fff" d="M106-169C34-169 62-67 57 0H25v-261h32l-1 103c12-21 28-36 61-36 89 0 53 116 60 194h-32v-121c2-32-8-49-39-48" id="W"/><path fill="#fff" d="M115-194c53 0 69 39 70 98 0 66-23 100-70 100C84 3 66-7 56-30L54 0H23l1-261h32v101c10-23 28-34 59-34zm-8 174c40 0 45-34 45-75 0-40-5-75-45-74-42 0-51 32-51 76 0 43 10 73 51 73" id="X"/><path fill="#fff" d="M100-194c62-1 85 37 85 99 1 63-27 99-86 99S16-35 15-95c0-66 28-99 85-99zM99-20c44 1 53-31 53-75 0-43-8-75-51-75s-53 32-53 75 10 74 51 75" id="Y"/><path fill="#fff" d="M114-163C36-179 61-72 57 0H25l-1-190h30c1 12-1 29 2 39 6-27 23-49 58-41v29" id="Z"/><path fill="#fff" d="M85-194c31 0 48 13 60 33l-1-100h32l1 261h-30c-2-10 0-23-3-31C134-8 116 4 85 4 32 4 16-35 15-94c0-66 23-100 70-100zm9 24c-40 0-46 34-46 75 0 40 6 74 45 74 42 0 51-32 51-76 0-42-9-74-50-73" id="aa"/><g id="k"><use transform="matrix(0.10457516339869281,0,0,0.10457516339869281,0,0)" xlink:href="#T"/><use transform="matrix(0.10457516339869281,0,0,0.10457516339869281,27.084967320261438,0)" xlink:href="#U"/><use transform="matrix(0.10457516339869281,0,0,0.10457516339869281,48.00000000000001,0)" xlink:href="#V"/><use transform="matrix(0.10457516339869281,0,0,0.10457516339869281,66.82352941176471,0)" xlink:href="#W"/><use transform="matrix(0.10457516339869281,0,0,0.10457516339869281,87.73856209150328,0)" xlink:href="#X"/><use transform="matrix(0.10457516339869281,0,0,0.10457516339869281,108.65359477124183,0)" xlink:href="#Y"/><use transform="matrix(0.10457516339869281,0,0,0.10457516339869281,129.56862745098042,0)" xlink:href="#U"/><use transform="matrix(0.10457516339869281,0,0,0.10457516339869281,150.48366013071896,0)" xlink:href="#Z"/><use transform="matrix(0.10457516339869281,0,0,0.10457516339869281,162.92810457516342,0)" xlink:href="#aa"/></g><filter id="j" filterUnits="objectBoundingBox" x="-.04" y="-.03" width="1.08" height="1.17"><feOffset result="offOut" in="SourceAlpha" dy="6"/><feGaussianBlur result="blurOut" in="offOut" stdDeviation="5"/><feColorMatrix result="colorOut" in="blurOut" values="0 0 0 0 0 0 0 0 0 0 0 0 0 0 0 0 0 0 0.16862745098039217 0"/><feBlend in="SourceGraphic" in2="colorOut"/></filter><path fill="#fff" d="M33 0v-248h34V0H33" id="ab"/><path fill="#fff" d="M108 0H70L1-190h34L89-25l56-165h34" id="ac"/><path fill="#fff" d="M59-47c-2 24 18 29 38 22v24C64 9 27 4 27-40v-127H5v-23h24l9-43h21v43h35v23H59v120" id="ad"/><path fill="#fff" d="M179-190L93 31C79 59 56 82 12 73V49c39 6 53-20 64-50L1-190h34L92-34l54-156h33" id="ae"/><g id="l"><use transform="matrix(0.10457516339869281,0,0,0.10457516339869281,0,0)" xlink:href="#ab"/><use transform="matrix(0.10457516339869281,0,0,0.10457516339869281,10.457516339869281,0)" xlink:href="#O"/><use transform="matrix(0.10457516339869281,0,0,0.10457516339869281,31.372549019607845,0)" xlink:href="#ac"/><use transform="matrix(0.10457516339869281,0,0,0.10457516339869281,50.196078431372555,0)" xlink:href="#N"/><use transform="matrix(0.10457516339869281,0,0,0.10457516339869281,71.11111111111111,0)" xlink:href="#O"/><use transform="matrix(0.10457516339869281,0,0,0.10457516339869281,92.02614379084967,0)" xlink:href="#ad"/><use transform="matrix(0.10457516339869281,0,0,0.10457516339869281,102.48366013071896,0)" xlink:href="#Y"/><use transform="matrix(0.10457516339869281,0,0,0.10457516339869281,123.39869281045752,0)" xlink:href="#Z"/><use transform="matrix(0.10457516339869281,0,0,0.10457516339869281,135.84313725490196,0)" xlink:href="#ae"/></g><path fill="#fff" d="M30 0v-248h33v221h125V0H30" id="af"/><path fill="#fff" d="M24-231v-30h32v30H24zM24 0v-190h32V0H24" id="ag"/><path fill="#fff" d="M177-190C167-65 218 103 67 71c-23-6-38-20-44-43l32-5c15 47 100 32 89-28v-30C133-14 115 1 83 1 29 1 15-40 15-95c0-56 16-97 71-98 29-1 48 16 59 35 1-10 0-23 2-32h30zM94-22c36 0 50-32 50-73 0-42-14-75-50-75-39 0-46 34-46 75s6 73 46 73" id="ah"/><g id="m"><use transform="matrix(0.10457516339869281,0,0,0.10457516339869281,0,0)" xlink:href="#af"/><use transform="matrix(0.10457516339869281,0,0,0.10457516339869281,20.915032679738562,0)" xlink:href="#N"/><use transform="matrix(0.10457516339869281,0,0,0.10457516339869281,41.830065359477125,0)" xlink:href="#O"/><use transform="matrix(0.10457516339869281,0,0,0.10457516339869281,62.74509803921569,0)" xlink:href="#aa"/><use transform="matrix(0.10457516339869281,0,0,0.10457516339869281,83.66013071895425,0)" xlink:href="#ag"/><use transform="matrix(0.10457516339869281,0,0,0.10457516339869281,91.921568627451,0)" xlink:href="#O"/><use transform="matrix(0.10457516339869281,0,0,0.10457516339869281,112.83660130718954,0)" xlink:href="#ah"/><use transform="matrix(0.10457516339869281,0,0,0.10457516339869281,133.7516339869281,0)" xlink:href="#V"/></g><g id="n"><use transform="matrix(0.10457516339869281,0,0,0.10457516339869281,0,0)" xlink:href="#af"/><use transform="matrix(0.10457516339869281,0,0,0.10457516339869281,20.915032679738562,0)" xlink:href="#Y"/><use transform="matrix(0.10457516339869281,0,0,0.10457516339869281,41.830065359477125,0)" xlink:href="#ah"/><use transform="matrix(0.10457516339869281,0,0,0.10457516339869281,62.74509803921569,0)" xlink:href="#ag"/><use transform="matrix(0.10457516339869281,0,0,0.10457516339869281,71.00653594771242,0)" xlink:href="#O"/></g><path fill="#fff" d="M190 0L58-211 59 0H30v-248h39L202-35l-2-213h31V0h-41" id="ai"/><path fill="#fff" d="M206 0h-36l-40-164L89 0H53L-1-190h32L70-26l43-164h34l41 164 42-164h31" id="aj"/><path fill="#fff" d="M24 0v-261h32V0H24" id="ak"/><g id="o"><use transform="matrix(0.10457516339869281,0,0,0.10457516339869281,0,0)" xlink:href="#ai"/><use transform="matrix(0.10457516339869281,0,0,0.10457516339869281,27.084967320261438,0)" xlink:href="#N"/><use transform="matrix(0.10457516339869281,0,0,0.10457516339869281,48.00000000000001,0)" xlink:href="#aj"/><use transform="matrix(0.10457516339869281,0,0,0.10457516339869281,75.08496732026146,0)" xlink:href="#M"/><use transform="matrix(0.10457516339869281,0,0,0.10457516339869281,106.35294117647061,0)" xlink:href="#U"/><use transform="matrix(0.10457516339869281,0,0,0.10457516339869281,127.26797385620918,0)" xlink:href="#ad"/><use transform="matrix(0.10457516339869281,0,0,0.10457516339869281,137.72549019607845,0)" xlink:href="#N"/><use transform="matrix(0.10457516339869281,0,0,0.10457516339869281,158.64052287581703,0)" xlink:href="#Z"/><use transform="matrix(0.10457516339869281,0,0,0.10457516339869281,171.08496732026148,0)" xlink:href="#ag"/><use transform="matrix(0.10457516339869281,0,0,0.10457516339869281,179.34640522875821,0)" xlink:href="#U"/><use transform="matrix(0.10457516339869281,0,0,0.10457516339869281,200.26143790849676,0)" xlink:href="#ak"/></g><path fill="#3d4752" d="M30-248c87 1 191-15 191 75 0 78-77 80-158 76V0H30v-248zm33 125c57 0 124 11 124-50 0-59-68-47-124-48v98" id="al"/><path fill="#3d4752" d="M141-36C126-15 110 5 73 4 37 3 15-17 15-53c-1-64 63-63 125-63 3-35-9-54-41-54-24 1-41 7-42 31l-33-3c5-37 33-52 76-52 45 0 72 20 72 64v82c-1 20 7 32 28 27v20c-31 9-61-2-59-35zM48-53c0 20 12 33 32 33 41-3 63-29 60-74-43 2-92-5-92 41" id="am"/><path fill="#3d4752" d="M143 0L79-87 56-68V0H24v-261h32v163l83-92h37l-77 82L181 0h-38" id="an"/><path fill="#3d4752" d="M177-190C167-65 218 103 67 71c-23-6-38-20-44-43l32-5c15 47 100 32 89-28v-30C133-14 115 1 83 1 29 1 15-40 15-95c0-56 16-97 71-98 29-1 48 16 59 35 1-10 0-23 2-32h30zM94-22c36 0 50-32 50-73 0-42-14-75-50-75-39 0-46 34-46 75s6 73 46 73" id="ao"/><g id="q"><use transform="matrix(0.10457516339869281,0,0,0.10457516339869281,0,0)" xlink:href="#al"/><use transform="matrix(0.10457516339869281,0,0,0.10457516339869281,25.098039215686278,0)" xlink:href="#am"/><use transform="matrix(0.10457516339869281,0,0,0.10457516339869281,46.01307189542484,0)" xlink:href="#C"/><use transform="matrix(0.10457516339869281,0,0,0.10457516339869281,64.83660130718954,0)" xlink:href="#an"/><use transform="matrix(0.10457516339869281,0,0,0.10457516339869281,83.66013071895425,0)" xlink:href="#am"/><use transform="matrix(0.10457516339869281,0,0,0.10457516339869281,104.57516339869282,0)" xlink:href="#ao"/><use transform="matrix(0.10457516339869281,0,0,0.10457516339869281,125.49019607843138,0)" xlink:href="#H"/><use transform="matrix(0.10457516339869281,0,0,0.10457516339869281,146.40522875816995,0)" xlink:href="#J"/></g><filter id="p" filterUnits="objectBoundingBox" x="-.04" y="-.01" width="1.07" height="1.04"><feOffset result="offOut" in="SourceAlpha" dy="6"/><feGaussianBlur result="blurOut" in="offOut" stdDeviation="5"/><feColorMatrix result="colorOut" in="blurOut" values="0 0 0 0 0 0 0 0 0 0 0 0 0 0 0 0 0 0 0.16862745098039217 0"/><feBlend in="SourceGraphic" in2="colorOut"/></filter><path fill="#fff" d="M233-177c-1 41-23 64-60 70L243 0h-38l-65-103H63V0H30v-248c88 3 205-21 203 71zM63-129c60-2 137 13 137-47 0-61-80-42-137-45v92" id="ap"/><g id="r"><use transform="matrix(0.10457516339869281,0,0,0.10457516339869281,0,0)" xlink:href="#ap"/><use transform="matrix(0.10457516339869281,0,0,0.10457516339869281,27.084967320261438,0)" xlink:href="#Y"/><use transform="matrix(0.10457516339869281,0,0,0.10457516339869281,48.00000000000001,0)" xlink:href="#P"/><use transform="matrix(0.10457516339869281,0,0,0.10457516339869281,68.91503267973857,0)" xlink:href="#ad"/><use transform="matrix(0.10457516339869281,0,0,0.10457516339869281,79.37254901960786,0)" xlink:href="#N"/><use transform="matrix(0.10457516339869281,0,0,0.10457516339869281,100.28758169934642,0)" xlink:href="#Z"/></g><g id="s"><use transform="matrix(0.10457516339869281,0,0,0.10457516339869281,0,0)" xlink:href="#V"/><use transform="matrix(0.10457516339869281,0,0,0.10457516339869281,18.823529411764707,0)" xlink:href="#ad"/><use transform="matrix(0.10457516339869281,0,0,0.10457516339869281,29.28104575163399,0)" xlink:href="#Y"/><use transform="matrix(0.10457516339869281,0,0,0.10457516339869281,50.196078431372555,0)" xlink:href="#Z"/><use transform="matrix(0.10457516339869281,0,0,0.10457516339869281,62.640522875817,0)" xlink:href="#N"/></g><path fill="#fff" d="M33 0v-38h34V0H33" id="aq"/><path fill="#fff" d="M24-231v-30h32v30H24zM-9 49c24 4 33-6 33-30v-209h32V24c2 40-23 58-65 49V49" id="ar"/><g id="t"><use transform="matrix(0.10457516339869281,0,0,0.10457516339869281,0,0)" xlink:href="#ac"/><use transform="matrix(0.10457516339869281,0,0,0.10457516339869281,18.823529411764707,0)" xlink:href="#P"/><use transform="matrix(0.10457516339869281,0,0,0.10457516339869281,39.73856209150327,0)" xlink:href="#N"/><use transform="matrix(0.10457516339869281,0,0,0.10457516339869281,60.653594771241835,0)" xlink:href="#aq"/><use transform="matrix(0.10457516339869281,0,0,0.10457516339869281,71.11111111111111,0)" xlink:href="#ar"/><use transform="matrix(0.10457516339869281,0,0,0.10457516339869281,79.37254901960786,0)" xlink:href="#V"/></g><path fill="#3d4752" d="M24 0v-261h32V0H24" id="as"/><path fill="#3d4752" d="M84 4C-5 8 30-112 23-190h32v120c0 31 7 50 39 49 72-2 45-101 50-169h31l1 190h-30c-1-10 1-25-2-33-11 22-28 36-60 37" id="at"/><g id="v"><use transform="matrix(0.10457516339869281,0,0,0.10457516339869281,0,0)" xlink:href="#al"/><use transform="matrix(0.10457516339869281,0,0,0.10457516339869281,25.098039215686278,0)" xlink:href="#as"/><use transform="matrix(0.10457516339869281,0,0,0.10457516339869281,33.35947712418301,0)" xlink:href="#at"/><use transform="matrix(0.10457516339869281,0,0,0.10457516339869281,54.27450980392157,0)" xlink:href="#ao"/><use transform="matrix(0.10457516339869281,0,0,0.10457516339869281,75.18954248366015,0)" xlink:href="#R"/><use transform="matrix(0.10457516339869281,0,0,0.10457516339869281,83.45098039215688,0)" xlink:href="#G"/><use transform="matrix(0.10457516339869281,0,0,0.10457516339869281,104.36601307189544,0)" xlink:href="#J"/></g><filter id="u" filterUnits="objectBoundingBox" x="-.04" y="-.01" width="1.08" height="1.05"><feOffset result="offOut" in="SourceAlpha" dy="6"/><feGaussianBlur result="blurOut" in="offOut" stdDeviation="5"/><feColorMatrix result="colorOut" in="blurOut" values="0 0 0 0 0 0 0 0 0 0 0 0 0 0 0 0 0 0 0.16862745098039217 0"/><feBlend in="SourceGraphic" in2="colorOut"/></filter><path fill="#fff" d="M101-234c-31-9-42 10-38 44h38v23H63V0H32v-167H5v-23h27c-7-52 17-82 69-68v24" id="au"/><g id="w"><use transform="matrix(0.10457516339869281,0,0,0.10457516339869281,0,0)" xlink:href="#ac"/><use transform="matrix(0.10457516339869281,0,0,0.10457516339869281,18.823529411764707,0)" xlink:href="#P"/><use transform="matrix(0.10457516339869281,0,0,0.10457516339869281,39.73856209150327,0)" xlink:href="#N"/><use transform="matrix(0.10457516339869281,0,0,0.10457516339869281,60.653594771241835,0)" xlink:href="#ad"/><use transform="matrix(0.10457516339869281,0,0,0.10457516339869281,71.11111111111111,0)" xlink:href="#ag"/><use transform="matrix(0.10457516339869281,0,0,0.10457516339869281,79.37254901960786,0)" xlink:href="#au"/><use transform="matrix(0.10457516339869281,0,0,0.10457516339869281,89.83006535947713,0)" xlink:href="#ae"/></g><g id="x"><use transform="matrix(0.10457516339869281,0,0,0.10457516339869281,0,0)" xlink:href="#L"/><use transform="matrix(0.10457516339869281,0,0,0.10457516339869281,20.915032679738562,0)" xlink:href="#P"/><use transform="matrix(0.10457516339869281,0,0,0.10457516339869281,41.830065359477125,0)" xlink:href="#ah"/><use transform="matrix(0.10457516339869281,0,0,0.10457516339869281,62.74509803921569,0)" xlink:href="#aq"/><use transform="matrix(0.10457516339869281,0,0,0.10457516339869281,73.20261437908498,0)" xlink:href="#ar"/><use transform="matrix(0.10457516339869281,0,0,0.10457516339869281,81.46405228758171,0)" xlink:href="#V"/></g></defs></g></svg>