<svg xmlns="http://www.w3.org/2000/svg" xmlns:xlink="http://www.w3.org/1999/xlink" xmlns:lucid="lucid" width="1193.71" height="802"><g transform="translate(9 9)" lucid:page-tab-id="YGcM5DNywbTK"><path d="M0 0h1360v1760H0z" fill="#fff"/><g filter="url(#a)"><path d="M417.03 540h334.5v232h-334.5z" fill="#fff"/><path d="M417.03 540h334.5v232h-334.5zM417.03 580h334.5M461.03 580v192M629.73 580v192" stroke="#666" fill="none"/><use xlink:href="#b" transform="matrix(1,0,0,1,427.03333333333336,539.9999961853027) translate(136.05 23.6)"/><use xlink:href="#c" transform="matrix(1,0,0,1,422.03333333333336,582.4999961853027) translate(5 17.1)"/><use xlink:href="#d" transform="matrix(1,0,0,1,466.03333333333336,582.4999961853027) translate(0 17.1)"/><use xlink:href="#e" transform="matrix(1,0,0,1,634.7333333333333,582.4999961853027) translate(0 17.1)"/><use xlink:href="#f" transform="matrix(1,0,0,1,466.03333333333336,614.4999961853027) translate(0 17.1)"/><use xlink:href="#g" transform="matrix(1,0,0,1,634.7333333333333,614.4999961853027) translate(0 17.1)"/><use xlink:href="#h" transform="matrix(1,0,0,1,466.03333333333336,646.4999961853027) translate(0 17.1)"/><use xlink:href="#i" transform="matrix(1,0,0,1,634.7333333333333,646.4999961853027) translate(0 17.1)"/><use xlink:href="#j" transform="matrix(1,0,0,1,422.03333333333336,678.4999961853027) translate(5.524999999999999 17.1)"/><use xlink:href="#k" transform="matrix(1,0,0,1,466.03333333333336,678.4999961853027) translate(0 17.1)"/><use xlink:href="#e" transform="matrix(1,0,0,1,634.7333333333333,678.4999961853027) translate(0 17.1)"/><use xlink:href="#j" transform="matrix(1,0,0,1,422.03333333333336,710.4999961853027) translate(5.524999999999999 17.1)"/><use xlink:href="#l" transform="matrix(1,0,0,1,466.03333333333336,710.4999961853027) translate(0 17.1)"/><use xlink:href="#e" transform="matrix(1,0,0,1,634.7333333333333,710.4999961853027) translate(0 17.1)"/><use xlink:href="#j" transform="matrix(1,0,0,1,422.03333333333336,742.4999961853027) translate(5.524999999999999 17.1)"/><use xlink:href="#m" transform="matrix(1,0,0,1,466.03333333333336,742.4999961853027) translate(0 17.1)"/><use xlink:href="#e" transform="matrix(1,0,0,1,634.7333333333333,742.4999961853027) translate(0 17.1)"/></g><g filter="url(#n)"><path d="M403.5 228h361.56v200H403.5z" fill="#fff"/><path d="M403.5 228h361.56v200H403.5zM403.5 268h361.56M447.5 268v160M643.26 268v160" stroke="#666" fill="none"/><use xlink:href="#o" transform="matrix(1,0,0,1,413.5083333333333,227.99999809265137) translate(129.075 23.6)"/><use xlink:href="#c" transform="matrix(1,0,0,1,408.5083333333333,270.49999809265137) translate(5 17.1)"/><use xlink:href="#p" transform="matrix(1,0,0,1,452.5083333333333,270.49999809265137) translate(0 17.1)"/><use xlink:href="#e" transform="matrix(1,0,0,1,648.2583333333333,270.49999809265137) translate(0 17.1)"/><use xlink:href="#q" transform="matrix(1,0,0,1,452.5083333333333,302.49999809265137) translate(0 17.1)"/><use xlink:href="#g" transform="matrix(1,0,0,1,648.2583333333333,302.49999809265137) translate(0 17.1)"/><use xlink:href="#r" transform="matrix(1,0,0,1,452.5083333333333,334.49999809265137) translate(0 17.1)"/><use xlink:href="#g" transform="matrix(1,0,0,1,648.2583333333333,334.49999809265137) translate(0 17.1)"/><use xlink:href="#j" transform="matrix(1,0,0,1,408.5083333333333,366.49999809265137) translate(5.524999999999999 17.1)"/><use xlink:href="#s" transform="matrix(1,0,0,1,452.5083333333333,366.49999809265137) translate(0 17.1)"/><use xlink:href="#e" transform="matrix(1,0,0,1,648.2583333333333,366.49999809265137) translate(0 17.1)"/><use xlink:href="#j" transform="matrix(1,0,0,1,408.5083333333333,398.49999809265137) translate(5.524999999999999 17.1)"/><use xlink:href="#t" transform="matrix(1,0,0,1,452.5083333333333,398.49999809265137) translate(0 17.1)"/><use xlink:href="#e" transform="matrix(1,0,0,1,648.2583333333333,398.49999809265137) translate(0 17.1)"/></g><path d="M584.78 520.1h-1v-18.3h1zm0-40.17h-1V448.5h1z" fill="#666"/><path fill="#fff"/><path d="M594.28 449h-20v-1h20z" fill="#666"/><path fill="#fff"/><path d="M584.78 448.5h-1v-20h1z" fill="#666"/><path d="M574.28 539.28l10-20 10 20z" fill="#fff"/><path d="M594.73 539.05l-.9.45-9.55-19.1-9.55 19.1-.9-.45 10.45-20.9z" fill="#666"/><path fill="#fff"/><path d="M584.78 539.28h-1v-20h1z" fill="#666"/><use xlink:href="#u" transform="matrix(1,0,0,1,519.5333333333333,479.9291973570897) translate(0.0049999999999954525 15.644444444444446)"/><use xlink:href="#v" transform="matrix(1,0,0,1,519.5333333333333,479.9291973570897) translate(32.80129629629629 15.644444444444446)"/><use xlink:href="#w" transform="matrix(1,0,0,1,519.5333333333333,479.9291973570897) translate(104.44327160493827 15.644444444444446)"/><g filter="url(#x)"><path d="M845.06 324h318.65v104H845.07z" fill="#fff"/><path d="M845.06 324h318.65v104H845.07zM845.06 364h318.65M889.06 364v64M1041.9 364v64" stroke="#666" fill="none"/><use xlink:href="#y" transform="matrix(1,0,0,1,855.0583333333334,323.99999809265137) translate(114.05 23.6)"/><use xlink:href="#c" transform="matrix(1,0,0,1,850.0583333333334,366.49999809265137) translate(5 17.1)"/><use xlink:href="#z" transform="matrix(1,0,0,1,894.0583333333334,366.49999809265137) translate(0 17.1)"/><use xlink:href="#e" transform="matrix(1,0,0,1,1046.9083333333333,366.49999809265137) translate(0 17.1)"/><use xlink:href="#A" transform="matrix(1,0,0,1,894.0583333333334,398.49999809265137) translate(0 17.1)"/><use xlink:href="#g" transform="matrix(1,0,0,1,1046.9083333333333,398.49999809265137) translate(0 17.1)"/></g><path d="M797.95 500.5H668.77v19.6h-1v-20.6h130.18zm206.93 0H906.7v-1h97.18v-51h1z" fill="#666"/><path fill="#fff"/><path d="M1014.38 449h-20v-1h20z" fill="#666"/><path fill="#fff"/><path d="M1004.88 448.5h-1v-20h1z" fill="#666"/><path d="M658.27 539.28l10-20 10 20z" fill="#fff"/><path d="M678.72 539.05l-.9.45-9.55-19.1-9.55 19.1-.9-.45 10.45-20.9z" fill="#666"/><path fill="#fff"/><path d="M668.77 539.28h-1v-20h1z" fill="#666"/><use xlink:href="#u" transform="matrix(1,0,0,1,797.94643285783,489.06666666666666) translate(0.005000000000002558 15.644444444444446)"/><use xlink:href="#B" transform="matrix(1,0,0,1,797.94643285783,489.06666666666666) translate(32.8012962962963 15.644444444444446)"/><use xlink:href="#C" transform="matrix(1,0,0,1,797.94643285783,489.06666666666666) translate(96.70870370370372 15.644444444444446)"/><g filter="url(#D)"><path d="M749.4 12H1112v104H749.4z" fill="#fff"/><path d="M749.4 12H1112v104H749.4zM749.4 52H1112M793.4 52v64M990.2 52v64" stroke="#666" fill="none"/><use xlink:href="#E" transform="matrix(1,0,0,1,759.4000000000001,12) translate(114.07499999999999 23.6)"/><use xlink:href="#c" transform="matrix(1,0,0,1,754.4000000000001,54.5) translate(5 17.1)"/><use xlink:href="#F" transform="matrix(1,0,0,1,798.4000000000001,54.5) translate(0 17.1)"/><use xlink:href="#e" transform="matrix(1,0,0,1,995.2,54.5) translate(0 17.1)"/><use xlink:href="#G" transform="matrix(1,0,0,1,798.4000000000001,86.5) translate(0 17.1)"/><use xlink:href="#g" transform="matrix(1,0,0,1,995.2,86.5) translate(0 17.1)"/></g><path d="M737.28 172.5h-91.94v35.6h-1v-36.6h92.94zm193.92 0h-92.94v-1h91.94v-35h1z" fill="#666"/><path fill="#fff"/><path d="M940.7 137h-20v-1h20z" fill="#666"/><path fill="#fff"/><path d="M931.2 136.5h-1v-20h1z" fill="#666"/><path d="M634.84 227.28l10-20 10 20z" fill="#fff"/><path d="M655.3 227.05l-.9.45-9.56-19.1-9.55 19.1-.9-.45 10.44-20.9z" fill="#666"/><path fill="#fff"/><path d="M645.34 227.28h-1v-20h1z" fill="#666"/><use xlink:href="#H" transform="matrix(1,0,0,1,737.280738425926,161.06666571299235) translate(0.005000000000002558 15.644444444444446)"/><use xlink:href="#w" transform="matrix(1,0,0,1,737.280738425926,161.06666571299235) translate(75.92475308641977 15.644444444444446)"/><g filter="url(#I)"><path d="M12 12h286.65v104H12z" fill="#fff"/><path d="M12 12h286.65v104H12zM12 52h286.65M56 52v64M176.85 52v64" stroke="#666" fill="none"/><use xlink:href="#J" transform="matrix(1,0,0,1,22,12) translate(114.05 23.6)"/><use xlink:href="#c" transform="matrix(1,0,0,1,17,54.5) translate(5 17.1)"/><use xlink:href="#K" transform="matrix(1,0,0,1,61,54.5) translate(0 17.1)"/><use xlink:href="#e" transform="matrix(1,0,0,1,181.85000000000002,54.5) translate(0 17.1)"/><use xlink:href="#L" transform="matrix(1,0,0,1,61,86.5) translate(0 17.1)"/><use xlink:href="#g" transform="matrix(1,0,0,1,181.85000000000002,86.5) translate(0 17.1)"/></g><g filter="url(#M)"><path d="M378.65 12H669.4v104H378.65z" fill="#fff"/><path d="M378.65 12H669.4v104H378.65zM378.65 52H669.4M422.65 52v64M547.6 52v64" stroke="#666" fill="none"/><use xlink:href="#N" transform="matrix(1,0,0,1,388.65000000000003,12) translate(114 23.6)"/><use xlink:href="#c" transform="matrix(1,0,0,1,383.65000000000003,54.5) translate(5 17.1)"/><use xlink:href="#O" transform="matrix(1,0,0,1,427.65000000000003,54.5) translate(0 17.1)"/><use xlink:href="#e" transform="matrix(1,0,0,1,552.6,54.5) translate(0 17.1)"/><use xlink:href="#P" transform="matrix(1,0,0,1,427.65000000000003,86.5) translate(0 17.1)"/><use xlink:href="#g" transform="matrix(1,0,0,1,552.6,86.5) translate(0 17.1)"/></g><path d="M524.52 172.5h-.3v35.6h-1v-36.32h1.3zm0-22.6h-1v-13.4h1z" fill="#666"/><path fill="#fff"/><path d="M534.02 137h-20v-1h20z" fill="#666"/><path fill="#fff"/><path d="M524.52 136.5h-1v-20h1z" fill="#666"/><path d="M513.72 227.28l10-20 10 20z" fill="#fff"/><path d="M534.17 227.05l-.9.45-9.55-19.1-9.55 19.1-.9-.45 10.45-20.9z" fill="#666"/><path fill="#fff"/><path d="M524.22 227.28h-1v-20h1z" fill="#666"/><use xlink:href="#Q" transform="matrix(1,0,0,1,481.7225308641976,149.91427559347196) translate(0.005000000000002558 15.644444444444446)"/><g filter="url(#R)"><path d="M12.53 244h285.6v168H12.52z" fill="#fff"/><path d="M12.53 244h285.6v168H12.52zM12.53 284h285.6M56.53 284v128M176.33 284v128" stroke="#666" fill="none"/><use xlink:href="#S" transform="matrix(1,0,0,1,22.525000000000006,243.99999809265137) translate(111.025 23.6)"/><use xlink:href="#c" transform="matrix(1,0,0,1,17.525000000000006,286.49999809265137) translate(5 17.1)"/><use xlink:href="#T" transform="matrix(1,0,0,1,61.525000000000006,286.49999809265137) translate(0 17.1)"/><use xlink:href="#e" transform="matrix(1,0,0,1,181.32500000000002,286.49999809265137) translate(0 17.1)"/><use xlink:href="#U" transform="matrix(1,0,0,1,61.525000000000006,318.49999809265137) translate(0 17.1)"/><use xlink:href="#g" transform="matrix(1,0,0,1,181.32500000000002,318.49999809265137) translate(0 17.1)"/><use xlink:href="#V" transform="matrix(1,0,0,1,61.525000000000006,350.49999809265137) translate(0 17.1)"/><use xlink:href="#g" transform="matrix(1,0,0,1,181.32500000000002,350.49999809265137) translate(0 17.1)"/><use xlink:href="#j" transform="matrix(1,0,0,1,17.525000000000006,382.49999809265137) translate(5.524999999999999 17.1)"/><use xlink:href="#W" transform="matrix(1,0,0,1,61.525000000000006,382.49999809265137) translate(0 17.1)"/><use xlink:href="#e" transform="matrix(1,0,0,1,181.32500000000002,382.49999809265137) translate(0 17.1)"/></g><path d="M500.8 483.5v36.6h-1v-35.6H311.27v-1zm-236.16 0v1H154.83v-52h1v51z" fill="#666"/><path fill="#fff"/><path d="M165.32 433h-20v-1h20z" fill="#666"/><path fill="#fff"/><path d="M155.82 432.5h-1v-20h1z" fill="#666"/><path d="M490.3 539.28l10-20 10 20z" fill="#fff"/><path d="M510.75 539.05l-.9.45-9.55-19.1-9.55 19.1-.9-.45 10.45-20.9z" fill="#666"/><path fill="#fff"/><path d="M500.8 539.28h-1v-20h1z" fill="#666"/><use xlink:href="#X" transform="matrix(1,0,0,1,264.642468045742,473.0666638056437) translate(0.004999999999999005 15.644444444444446)"/><path d="M155.82 224.1h-1v-43.07h1zm0-64.94h-1V136.5h1z" fill="#666"/><path fill="#fff"/><path d="M165.32 137h-20v-1h20z" fill="#666"/><path fill="#fff"/><path d="M155.82 136.5h-1v-20h1z" fill="#666"/><path d="M145.32 243.28l10-20 10 20z" fill="#fff"/><path d="M165.77 243.05l-.9.45-9.55-19.1-9.55 19.1-.9-.45 10.45-20.9z" fill="#666"/><path fill="#fff"/><path d="M155.82 243.28h-1v-20h1z" fill="#666"/><g><use xlink:href="#Y" transform="matrix(1,0,0,1,126.395987654321,159.1583910490355) translate(0.004999999999999005 15.644444444444446)"/></g><defs><path d="M24-231v-30h32v30H24zM24 0v-190h32V0H24" id="Z"/><path d="M59-47c-2 24 18 29 38 22v24C64 9 27 4 27-40v-127H5v-23h24l9-43h21v43h35v23H59v120" id="aa"/><path d="M100-194c63 0 86 42 84 106H49c0 40 14 67 53 68 26 1 43-12 49-29l28 8c-11 28-37 45-77 45C44 4 14-33 15-96c1-61 26-98 85-98zm52 81c6-60-76-77-97-28-3 7-6 17-6 28h103" id="ab"/><path d="M210-169c-67 3-38 105-44 169h-31v-121c0-29-5-50-35-48C34-165 62-65 56 0H25l-1-190h30c1 10-1 24 2 32 10-44 99-50 107 0 11-21 27-35 58-36 85-2 47 119 55 194h-31v-121c0-29-5-49-35-48" id="ac"/><path d="M135-143c-3-34-86-38-87 0 15 53 115 12 119 90S17 21 10-45l28-5c4 36 97 45 98 0-10-56-113-15-118-90-4-57 82-63 122-42 12 7 21 19 24 35" id="ad"/><g id="b"><use transform="matrix(0.05,0,0,0.05,0,0)" xlink:href="#Z"/><use transform="matrix(0.05,0,0,0.05,3.95,0)" xlink:href="#aa"/><use transform="matrix(0.05,0,0,0.05,8.95,0)" xlink:href="#ab"/><use transform="matrix(0.05,0,0,0.05,18.95,0)" xlink:href="#ac"/><use transform="matrix(0.05,0,0,0.05,33.9,0)" xlink:href="#ad"/></g><path d="M30-248c87 1 191-15 191 75 0 78-77 80-158 76V0H30v-248zm33 125c57 0 124 11 124-50 0-59-68-47-124-48v98" id="ae"/><path d="M194 0L95-120 63-95V0H30v-248h33v124l119-124h40L117-140 236 0h-42" id="af"/><g id="c"><use transform="matrix(0.05,0,0,0.05,0,0)" xlink:href="#ae"/><use transform="matrix(0.05,0,0,0.05,12,0)" xlink:href="#af"/></g><path d="M-5 72V49h209v23H-5" id="ag"/><path d="M33 0v-248h34V0H33" id="ah"/><path d="M30-248c118-7 216 8 213 122C240-48 200 0 122 0H30v-248zM63-27c89 8 146-16 146-99s-60-101-146-95v194" id="ai"/><g id="d"><use transform="matrix(0.05,0,0,0.05,0,0)" xlink:href="#ae"/><use transform="matrix(0.05,0,0,0.05,12,0)" xlink:href="#af"/><use transform="matrix(0.05,0,0,0.05,24,0)" xlink:href="#ag"/><use transform="matrix(0.05,0,0,0.05,34,0)" xlink:href="#Z"/><use transform="matrix(0.05,0,0,0.05,37.95,0)" xlink:href="#aa"/><use transform="matrix(0.05,0,0,0.05,42.95,0)" xlink:href="#ab"/><use transform="matrix(0.05,0,0,0.05,52.95,0)" xlink:href="#ac"/><use transform="matrix(0.05,0,0,0.05,67.9,0)" xlink:href="#ad"/><use transform="matrix(0.05,0,0,0.05,76.9,0)" xlink:href="#ag"/><use transform="matrix(0.05,0,0,0.05,86.9,0)" xlink:href="#ah"/><use transform="matrix(0.05,0,0,0.05,91.9,0)" xlink:href="#ai"/></g><path d="M117-194c89-4 53 116 60 194h-32v-121c0-31-8-49-39-48C34-167 62-67 57 0H25l-1-190h30c1 10-1 24 2 32 11-22 29-35 61-36" id="aj"/><g id="e"><use transform="matrix(0.05,0,0,0.05,0,0)" xlink:href="#Z"/><use transform="matrix(0.05,0,0,0.05,3.95,0)" xlink:href="#aj"/><use transform="matrix(0.05,0,0,0.05,13.949999999999998,0)" xlink:href="#aa"/></g><path d="M114-163C36-179 61-72 57 0H25l-1-190h30c1 12-1 29 2 39 6-27 23-49 58-41v29" id="ak"/><path d="M141-36C126-15 110 5 73 4 37 3 15-17 15-53c-1-64 63-63 125-63 3-35-9-54-41-54-24 1-41 7-42 31l-33-3c5-37 33-52 76-52 45 0 72 20 72 64v82c-1 20 7 32 28 27v20c-31 9-61-2-59-35zM48-53c0 20 12 33 32 33 41-3 63-29 60-74-43 2-92-5-92 41" id="al"/><path d="M24 0v-261h32V0H24" id="am"/><path d="M84 4C-5 8 30-112 23-190h32v120c0 31 7 50 39 49 72-2 45-101 50-169h31l1 190h-30c-1-10 1-25-2-33-11 22-28 36-60 37" id="an"/><path d="M115-194c53 0 69 39 70 98 0 66-23 100-70 100C84 3 66-7 56-30L54 0H23l1-261h32v101c10-23 28-34 59-34zm-8 174c40 0 45-34 45-75 0-40-5-75-45-74-42 0-51 32-51 76 0 43 10 73 51 73" id="ao"/><g id="f"><use transform="matrix(0.05,0,0,0.05,0,0)" xlink:href="#ad"/><use transform="matrix(0.05,0,0,0.05,9,0)" xlink:href="#ab"/><use transform="matrix(0.05,0,0,0.05,19,0)" xlink:href="#ak"/><use transform="matrix(0.05,0,0,0.05,24.95,0)" xlink:href="#Z"/><use transform="matrix(0.05,0,0,0.05,28.899999999999995,0)" xlink:href="#al"/><use transform="matrix(0.05,0,0,0.05,38.9,0)" xlink:href="#am"/><use transform="matrix(0.05,0,0,0.05,42.85,0)" xlink:href="#aj"/><use transform="matrix(0.05,0,0,0.05,52.85,0)" xlink:href="#an"/><use transform="matrix(0.05,0,0,0.05,62.85,0)" xlink:href="#ac"/><use transform="matrix(0.05,0,0,0.05,77.8,0)" xlink:href="#ao"/><use transform="matrix(0.05,0,0,0.05,87.8,0)" xlink:href="#ab"/><use transform="matrix(0.05,0,0,0.05,97.8,0)" xlink:href="#ak"/></g><path d="M108 0H70L1-190h34L89-25l56-165h34" id="ap"/><path d="M96-169c-40 0-48 33-48 73s9 75 48 75c24 0 41-14 43-38l32 2c-6 37-31 61-74 61-59 0-76-41-82-99-10-93 101-131 147-64 4 7 5 14 7 22l-32 3c-4-21-16-35-41-35" id="aq"/><path d="M106-169C34-169 62-67 57 0H25v-261h32l-1 103c12-21 28-36 61-36 89 0 53 116 60 194h-32v-121c2-32-8-49-39-48" id="ar"/><path d="M87 75C49 33 22-17 22-94c0-76 28-126 65-167h31c-38 41-64 92-64 168S80 34 118 75H87" id="as"/><path d="M101-251c82-7 93 87 43 132L82-64C71-53 59-42 53-27h129V0H18c2-99 128-94 128-182 0-28-16-43-45-43s-46 15-49 41l-32-3c6-41 34-60 81-64" id="at"/><path d="M54-142c48-35 137-8 131 61C196 18 31 33 14-55l32-4c7 23 22 37 52 37 35-1 51-22 54-58 4-55-73-65-99-34H22l8-134h141v27H59" id="au"/><path d="M33-261c38 41 65 92 65 168S71 34 33 75H2C39 34 66-17 66-93S39-220 2-261h31" id="av"/><g id="g"><use transform="matrix(0.05,0,0,0.05,0,0)" xlink:href="#ap"/><use transform="matrix(0.05,0,0,0.05,9,0)" xlink:href="#al"/><use transform="matrix(0.05,0,0,0.05,19,0)" xlink:href="#ak"/><use transform="matrix(0.05,0,0,0.05,24.95,0)" xlink:href="#aq"/><use transform="matrix(0.05,0,0,0.05,33.95,0)" xlink:href="#ar"/><use transform="matrix(0.05,0,0,0.05,43.95,0)" xlink:href="#al"/><use transform="matrix(0.05,0,0,0.05,53.95,0)" xlink:href="#ak"/><use transform="matrix(0.05,0,0,0.05,59.900000000000006,0)" xlink:href="#as"/><use transform="matrix(0.05,0,0,0.05,65.85000000000001,0)" xlink:href="#at"/><use transform="matrix(0.05,0,0,0.05,75.85000000000001,0)" xlink:href="#au"/><use transform="matrix(0.05,0,0,0.05,85.85000000000001,0)" xlink:href="#au"/><use transform="matrix(0.05,0,0,0.05,95.85000000000001,0)" xlink:href="#av"/></g><path d="M85-194c31 0 48 13 60 33l-1-100h32l1 261h-30c-2-10 0-23-3-31C134-8 116 4 85 4 32 4 16-35 15-94c0-66 23-100 70-100zm9 24c-40 0-46 34-46 75 0 40 6 74 45 74 42 0 51-32 51-76 0-42-9-74-50-73" id="aw"/><path d="M205 0l-28-72H64L36 0H1l101-248h38L239 0h-34zm-38-99l-47-123c-12 45-31 82-46 123h93" id="ax"/><g id="h"><use transform="matrix(0.05,0,0,0.05,0,0)" xlink:href="#aq"/><use transform="matrix(0.05,0,0,0.05,9,0)" xlink:href="#ak"/><use transform="matrix(0.05,0,0,0.05,14.949999999999998,0)" xlink:href="#ab"/><use transform="matrix(0.05,0,0,0.05,24.95,0)" xlink:href="#al"/><use transform="matrix(0.05,0,0,0.05,34.95,0)" xlink:href="#aa"/><use transform="matrix(0.05,0,0,0.05,39.95,0)" xlink:href="#ab"/><use transform="matrix(0.05,0,0,0.05,49.95,0)" xlink:href="#aw"/><use transform="matrix(0.05,0,0,0.05,59.95,0)" xlink:href="#ax"/><use transform="matrix(0.05,0,0,0.05,71.95,0)" xlink:href="#aa"/></g><path d="M115-194c55 1 70 41 70 98S169 2 115 4C84 4 66-9 55-30l1 105H24l-1-265h31l2 30c10-21 28-34 59-34zm-8 174c40 0 45-34 45-75s-6-73-45-74c-42 0-51 32-51 76 0 43 10 73 51 73" id="ay"/><g id="i"><use transform="matrix(0.05,0,0,0.05,0,0)" xlink:href="#aa"/><use transform="matrix(0.05,0,0,0.05,5,0)" xlink:href="#Z"/><use transform="matrix(0.05,0,0,0.05,8.95,0)" xlink:href="#ac"/><use transform="matrix(0.05,0,0,0.05,23.9,0)" xlink:href="#ab"/><use transform="matrix(0.05,0,0,0.05,33.9,0)" xlink:href="#ad"/><use transform="matrix(0.05,0,0,0.05,42.9,0)" xlink:href="#aa"/><use transform="matrix(0.05,0,0,0.05,47.9,0)" xlink:href="#al"/><use transform="matrix(0.05,0,0,0.05,57.900000000000006,0)" xlink:href="#ac"/><use transform="matrix(0.05,0,0,0.05,72.85,0)" xlink:href="#ay"/></g><path d="M63-220v92h138v28H63V0H30v-248h175v28H63" id="az"/><g id="j"><use transform="matrix(0.05,0,0,0.05,0,0)" xlink:href="#az"/><use transform="matrix(0.05,0,0,0.05,10.950000000000001,0)" xlink:href="#af"/></g><path d="M100-194c62-1 85 37 85 99 1 63-27 99-86 99S16-35 15-95c0-66 28-99 85-99zM99-20c44 1 53-31 53-75 0-43-8-75-51-75s-53 32-53 75 10 74 51 75" id="aA"/><g id="k"><use transform="matrix(0.05,0,0,0.05,0,0)" xlink:href="#az"/><use transform="matrix(0.05,0,0,0.05,10.950000000000001,0)" xlink:href="#af"/><use transform="matrix(0.05,0,0,0.05,22.950000000000003,0)" xlink:href="#ag"/><use transform="matrix(0.05,0,0,0.05,32.95,0)" xlink:href="#am"/><use transform="matrix(0.05,0,0,0.05,36.900000000000006,0)" xlink:href="#aA"/><use transform="matrix(0.05,0,0,0.05,46.900000000000006,0)" xlink:href="#aq"/><use transform="matrix(0.05,0,0,0.05,55.900000000000006,0)" xlink:href="#al"/><use transform="matrix(0.05,0,0,0.05,65.9,0)" xlink:href="#aa"/><use transform="matrix(0.05,0,0,0.05,70.9,0)" xlink:href="#Z"/><use transform="matrix(0.05,0,0,0.05,74.85000000000001,0)" xlink:href="#aA"/><use transform="matrix(0.05,0,0,0.05,84.85000000000001,0)" xlink:href="#aj"/><use transform="matrix(0.05,0,0,0.05,94.85000000000001,0)" xlink:href="#ad"/><use transform="matrix(0.05,0,0,0.05,103.85000000000001,0)" xlink:href="#ag"/><use transform="matrix(0.05,0,0,0.05,113.85000000000001,0)" xlink:href="#ah"/><use transform="matrix(0.05,0,0,0.05,118.85000000000001,0)" xlink:href="#ai"/></g><path d="M212-179c-10-28-35-45-73-45-59 0-87 40-87 99 0 60 29 101 89 101 43 0 62-24 78-52l27 14C228-24 195 4 139 4 59 4 22-46 18-125c-6-104 99-153 187-111 19 9 31 26 39 46" id="aB"/><g id="l"><use transform="matrix(0.05,0,0,0.05,0,0)" xlink:href="#az"/><use transform="matrix(0.05,0,0,0.05,10.950000000000001,0)" xlink:href="#af"/><use transform="matrix(0.05,0,0,0.05,22.950000000000003,0)" xlink:href="#ag"/><use transform="matrix(0.05,0,0,0.05,32.95,0)" xlink:href="#Z"/><use transform="matrix(0.05,0,0,0.05,36.900000000000006,0)" xlink:href="#aa"/><use transform="matrix(0.05,0,0,0.05,41.900000000000006,0)" xlink:href="#ab"/><use transform="matrix(0.05,0,0,0.05,51.900000000000006,0)" xlink:href="#ac"/><use transform="matrix(0.05,0,0,0.05,66.85000000000001,0)" xlink:href="#ad"/><use transform="matrix(0.05,0,0,0.05,75.85000000000001,0)" xlink:href="#aB"/><use transform="matrix(0.05,0,0,0.05,88.80000000000001,0)" xlink:href="#am"/><use transform="matrix(0.05,0,0,0.05,92.75000000000001,0)" xlink:href="#al"/><use transform="matrix(0.05,0,0,0.05,102.75,0)" xlink:href="#ad"/><use transform="matrix(0.05,0,0,0.05,111.75,0)" xlink:href="#ad"/><use transform="matrix(0.05,0,0,0.05,120.75,0)" xlink:href="#ag"/><use transform="matrix(0.05,0,0,0.05,130.75,0)" xlink:href="#ah"/><use transform="matrix(0.05,0,0,0.05,135.75,0)" xlink:href="#ai"/></g><path d="M127-220V0H93v-220H8v-28h204v28h-85" id="aC"/><g id="m"><use transform="matrix(0.05,0,0,0.05,0,0)" xlink:href="#am"/><use transform="matrix(0.05,0,0,0.05,3.95,0)" xlink:href="#ab"/><use transform="matrix(0.05,0,0,0.05,13.949999999999998,0)" xlink:href="#aj"/><use transform="matrix(0.05,0,0,0.05,23.95,0)" xlink:href="#aa"/><use transform="matrix(0.05,0,0,0.05,28.950000000000003,0)" xlink:href="#aC"/><use transform="matrix(0.05,0,0,0.05,37.9,0)" xlink:href="#aA"/></g><filter id="a" filterUnits="objectBoundingBox" x="-.03" y="-.02" width="1.06" height="1.09"><feOffset result="offOut" in="SourceAlpha" dy="6"/><feGaussianBlur result="blurOut" in="offOut" stdDeviation="5"/><feColorMatrix result="colorOut" in="blurOut" values="0 0 0 0 0 0 0 0 0 0 0 0 0 0 0 0 0 0 0.16862745098039217 0"/><feBlend in="SourceGraphic" in2="colorOut"/></filter><g id="o"><use transform="matrix(0.05,0,0,0.05,0,0)" xlink:href="#Z"/><use transform="matrix(0.05,0,0,0.05,3.95,0)" xlink:href="#aa"/><use transform="matrix(0.05,0,0,0.05,8.95,0)" xlink:href="#ab"/><use transform="matrix(0.05,0,0,0.05,18.95,0)" xlink:href="#ac"/><use transform="matrix(0.05,0,0,0.05,33.9,0)" xlink:href="#ad"/><use transform="matrix(0.05,0,0,0.05,42.9,0)" xlink:href="#aq"/><use transform="matrix(0.05,0,0,0.05,51.900000000000006,0)" xlink:href="#am"/><use transform="matrix(0.05,0,0,0.05,55.85,0)" xlink:href="#al"/><use transform="matrix(0.05,0,0,0.05,65.85,0)" xlink:href="#ad"/><use transform="matrix(0.05,0,0,0.05,74.85,0)" xlink:href="#ad"/></g><g id="p"><use transform="matrix(0.05,0,0,0.05,0,0)" xlink:href="#ae"/><use transform="matrix(0.05,0,0,0.05,12,0)" xlink:href="#af"/><use transform="matrix(0.05,0,0,0.05,24,0)" xlink:href="#ag"/><use transform="matrix(0.05,0,0,0.05,34,0)" xlink:href="#Z"/><use transform="matrix(0.05,0,0,0.05,37.95,0)" xlink:href="#aa"/><use transform="matrix(0.05,0,0,0.05,42.95,0)" xlink:href="#ab"/><use transform="matrix(0.05,0,0,0.05,52.95,0)" xlink:href="#ac"/><use transform="matrix(0.05,0,0,0.05,67.9,0)" xlink:href="#ad"/><use transform="matrix(0.05,0,0,0.05,76.9,0)" xlink:href="#aB"/><use transform="matrix(0.05,0,0,0.05,89.85000000000001,0)" xlink:href="#am"/><use transform="matrix(0.05,0,0,0.05,93.80000000000001,0)" xlink:href="#al"/><use transform="matrix(0.05,0,0,0.05,103.80000000000001,0)" xlink:href="#ad"/><use transform="matrix(0.05,0,0,0.05,112.80000000000001,0)" xlink:href="#ad"/><use transform="matrix(0.05,0,0,0.05,121.80000000000001,0)" xlink:href="#ag"/><use transform="matrix(0.05,0,0,0.05,131.8,0)" xlink:href="#ah"/><use transform="matrix(0.05,0,0,0.05,136.8,0)" xlink:href="#ai"/></g><path d="M190 0L58-211 59 0H30v-248h39L202-35l-2-213h31V0h-41" id="aD"/><g id="q"><use transform="matrix(0.05,0,0,0.05,0,0)" xlink:href="#Z"/><use transform="matrix(0.05,0,0,0.05,3.95,0)" xlink:href="#aa"/><use transform="matrix(0.05,0,0,0.05,8.95,0)" xlink:href="#ab"/><use transform="matrix(0.05,0,0,0.05,18.95,0)" xlink:href="#ac"/><use transform="matrix(0.05,0,0,0.05,33.9,0)" xlink:href="#ad"/><use transform="matrix(0.05,0,0,0.05,42.9,0)" xlink:href="#aB"/><use transform="matrix(0.05,0,0,0.05,55.85,0)" xlink:href="#am"/><use transform="matrix(0.05,0,0,0.05,59.800000000000004,0)" xlink:href="#al"/><use transform="matrix(0.05,0,0,0.05,69.80000000000001,0)" xlink:href="#ad"/><use transform="matrix(0.05,0,0,0.05,78.80000000000001,0)" xlink:href="#ad"/><use transform="matrix(0.05,0,0,0.05,87.80000000000001,0)" xlink:href="#aD"/><use transform="matrix(0.05,0,0,0.05,100.75000000000001,0)" xlink:href="#al"/><use transform="matrix(0.05,0,0,0.05,110.75,0)" xlink:href="#ac"/><use transform="matrix(0.05,0,0,0.05,125.7,0)" xlink:href="#ab"/></g><g id="r"><use transform="matrix(0.05,0,0,0.05,0,0)" xlink:href="#aw"/><use transform="matrix(0.05,0,0,0.05,10,0)" xlink:href="#ab"/><use transform="matrix(0.05,0,0,0.05,20,0)" xlink:href="#ad"/><use transform="matrix(0.05,0,0,0.05,29,0)" xlink:href="#aq"/><use transform="matrix(0.05,0,0,0.05,38,0)" xlink:href="#ak"/><use transform="matrix(0.05,0,0,0.05,43.95,0)" xlink:href="#Z"/><use transform="matrix(0.05,0,0,0.05,47.900000000000006,0)" xlink:href="#ay"/><use transform="matrix(0.05,0,0,0.05,57.900000000000006,0)" xlink:href="#aa"/><use transform="matrix(0.05,0,0,0.05,62.900000000000006,0)" xlink:href="#Z"/><use transform="matrix(0.05,0,0,0.05,66.85000000000001,0)" xlink:href="#aA"/><use transform="matrix(0.05,0,0,0.05,76.85000000000001,0)" xlink:href="#aj"/></g><path d="M179-190L93 31C79 59 56 82 12 73V49c39 6 53-20 64-50L1-190h34L92-34l54-156h33" id="aE"/><g id="s"><use transform="matrix(0.05,0,0,0.05,0,0)" xlink:href="#az"/><use transform="matrix(0.05,0,0,0.05,10.950000000000001,0)" xlink:href="#af"/><use transform="matrix(0.05,0,0,0.05,22.950000000000003,0)" xlink:href="#ag"/><use transform="matrix(0.05,0,0,0.05,32.95,0)" xlink:href="#aa"/><use transform="matrix(0.05,0,0,0.05,37.95,0)" xlink:href="#aE"/><use transform="matrix(0.05,0,0,0.05,46.95,0)" xlink:href="#ay"/><use transform="matrix(0.05,0,0,0.05,56.95,0)" xlink:href="#ab"/><use transform="matrix(0.05,0,0,0.05,66.95,0)" xlink:href="#ad"/><use transform="matrix(0.05,0,0,0.05,75.95,0)" xlink:href="#ag"/><use transform="matrix(0.05,0,0,0.05,85.95,0)" xlink:href="#ah"/><use transform="matrix(0.05,0,0,0.05,90.95,0)" xlink:href="#ai"/></g><path d="M101-234c-31-9-42 10-38 44h38v23H63V0H32v-167H5v-23h27c-7-52 17-82 69-68v24" id="aF"/><g id="t"><use transform="matrix(0.05,0,0,0.05,0,0)" xlink:href="#az"/><use transform="matrix(0.05,0,0,0.05,10.950000000000001,0)" xlink:href="#af"/><use transform="matrix(0.05,0,0,0.05,22.950000000000003,0)" xlink:href="#ag"/><use transform="matrix(0.05,0,0,0.05,32.95,0)" xlink:href="#ac"/><use transform="matrix(0.05,0,0,0.05,47.900000000000006,0)" xlink:href="#al"/><use transform="matrix(0.05,0,0,0.05,57.900000000000006,0)" xlink:href="#aj"/><use transform="matrix(0.05,0,0,0.05,67.9,0)" xlink:href="#an"/><use transform="matrix(0.05,0,0,0.05,77.9,0)" xlink:href="#aF"/><use transform="matrix(0.05,0,0,0.05,82.9,0)" xlink:href="#al"/><use transform="matrix(0.05,0,0,0.05,92.9,0)" xlink:href="#aq"/><use transform="matrix(0.05,0,0,0.05,101.9,0)" xlink:href="#aa"/><use transform="matrix(0.05,0,0,0.05,106.9,0)" xlink:href="#an"/><use transform="matrix(0.05,0,0,0.05,116.9,0)" xlink:href="#ak"/><use transform="matrix(0.05,0,0,0.05,122.85000000000001,0)" xlink:href="#ab"/><use transform="matrix(0.05,0,0,0.05,132.85000000000002,0)" xlink:href="#ak"/><use transform="matrix(0.05,0,0,0.05,138.8,0)" xlink:href="#ad"/><use transform="matrix(0.05,0,0,0.05,147.8,0)" xlink:href="#ag"/><use transform="matrix(0.05,0,0,0.05,157.8,0)" xlink:href="#ah"/><use transform="matrix(0.05,0,0,0.05,162.8,0)" xlink:href="#ai"/></g><filter id="n" filterUnits="objectBoundingBox" x="-.03" y="-.02" width="1.06" height="1.1"><feOffset result="offOut" in="SourceAlpha" dy="6"/><feGaussianBlur result="blurOut" in="offOut" stdDeviation="5"/><feColorMatrix result="colorOut" in="blurOut" values="0 0 0 0 0 0 0 0 0 0 0 0 0 0 0 0 0 0 0.16862745098039217 0"/><feBlend in="SourceGraphic" in2="colorOut"/></filter><path fill="#666" d="M135-143c-3-34-86-38-87 0 15 53 115 12 119 90S17 21 10-45l28-5c4 36 97 45 98 0-10-56-113-15-118-90-4-57 82-63 122-42 12 7 21 19 24 35" id="aG"/><path fill="#666" d="M24-231v-30h32v30H24zM24 0v-190h32V0H24" id="aH"/><path fill="#666" d="M117-194c89-4 53 116 60 194h-32v-121c0-31-8-49-39-48C34-167 62-67 57 0H25l-1-190h30c1 10-1 24 2 32 11-22 29-35 61-36" id="aI"/><path fill="#666" d="M85-194c31 0 48 13 60 33l-1-100h32l1 261h-30c-2-10 0-23-3-31C134-8 116 4 85 4 32 4 16-35 15-94c0-66 23-100 70-100zm9 24c-40 0-46 34-46 75 0 40 6 74 45 74 42 0 51-32 51-76 0-42-9-74-50-73" id="aJ"/><g id="u"><use transform="matrix(0.04320987654320988,0,0,0.04320987654320988,0,0)" xlink:href="#aG"/><use transform="matrix(0.04320987654320988,0,0,0.04320987654320988,7.777777777777779,0)" xlink:href="#aH"/><use transform="matrix(0.04320987654320988,0,0,0.04320987654320988,11.19135802469136,0)" xlink:href="#aI"/><use transform="matrix(0.04320987654320988,0,0,0.04320987654320988,19.833333333333336,0)" xlink:href="#aJ"/></g><path fill="#666" d="M141-36C126-15 110 5 73 4 37 3 15-17 15-53c-1-64 63-63 125-63 3-35-9-54-41-54-24 1-41 7-42 31l-33-3c5-37 33-52 76-52 45 0 72 20 72 64v82c-1 20 7 32 28 27v20c-31 9-61-2-59-35zM48-53c0 20 12 33 32 33 41-3 63-29 60-74-43 2-92-5-92 41" id="aK"/><path fill="#666" d="M115-194c53 0 69 39 70 98 0 66-23 100-70 100C84 3 66-7 56-30L54 0H23l1-261h32v101c10-23 28-34 59-34zm-8 174c40 0 45-34 45-75 0-40-5-75-45-74-42 0-51 32-51 76 0 43 10 73 51 73" id="aL"/><path fill="#666" d="M177-190C167-65 218 103 67 71c-23-6-38-20-44-43l32-5c15 47 100 32 89-28v-30C133-14 115 1 83 1 29 1 15-40 15-95c0-56 16-97 71-98 29-1 48 16 59 35 1-10 0-23 2-32h30zM94-22c36 0 50-32 50-73 0-42-14-75-50-75-39 0-46 34-46 75s6 73 46 73" id="aM"/><path fill="#666" d="M100-194c63 0 86 42 84 106H49c0 40 14 67 53 68 26 1 43-12 49-29l28 8c-11 28-37 45-77 45C44 4 14-33 15-96c1-61 26-98 85-98zm52 81c6-60-76-77-97-28-3 7-6 17-6 28h103" id="aN"/><path fill="#666" d="M24 0v-261h32V0H24" id="aO"/><path fill="#666" d="M59-47c-2 24 18 29 38 22v24C64 9 27 4 27-40v-127H5v-23h24l9-43h21v43h35v23H59v120" id="aP"/><g id="v"><use transform="matrix(0.04320987654320988,0,0,0.04320987654320988,0,0)" xlink:href="#aK"/><use transform="matrix(0.04320987654320988,0,0,0.04320987654320988,8.641975308641976,0)" xlink:href="#aL"/><use transform="matrix(0.04320987654320988,0,0,0.04320987654320988,17.283950617283953,0)" xlink:href="#aM"/><use transform="matrix(0.04320987654320988,0,0,0.04320987654320988,25.925925925925927,0)" xlink:href="#aN"/><use transform="matrix(0.04320987654320988,0,0,0.04320987654320988,34.567901234567906,0)" xlink:href="#aO"/><use transform="matrix(0.04320987654320988,0,0,0.04320987654320988,37.98148148148149,0)" xlink:href="#aN"/><use transform="matrix(0.04320987654320988,0,0,0.04320987654320988,46.62345679012346,0)" xlink:href="#aH"/><use transform="matrix(0.04320987654320988,0,0,0.04320987654320988,50.037037037037045,0)" xlink:href="#aP"/><use transform="matrix(0.04320987654320988,0,0,0.04320987654320988,54.35802469135803,0)" xlink:href="#aN"/><use transform="matrix(0.04320987654320988,0,0,0.04320987654320988,63.00000000000001,0)" xlink:href="#aP"/></g><path fill="#666" d="M108 0H70L1-190h34L89-25l56-165h34" id="aQ"/><path fill="#666" d="M100-194c62-1 85 37 85 99 1 63-27 99-86 99S16-35 15-95c0-66 28-99 85-99zM99-20c44 1 53-31 53-75 0-43-8-75-51-75s-53 32-53 75 10 74 51 75" id="aR"/><g id="w"><use transform="matrix(0.04320987654320988,0,0,0.04320987654320988,0,0)" xlink:href="#aQ"/><use transform="matrix(0.04320987654320988,0,0,0.04320987654320988,7.777777777777779,0)" xlink:href="#aR"/><use transform="matrix(0.04320987654320988,0,0,0.04320987654320988,16.419753086419753,0)" xlink:href="#aI"/></g><g id="y"><use transform="matrix(0.05,0,0,0.05,0,0)" xlink:href="#am"/><use transform="matrix(0.05,0,0,0.05,3.95,0)" xlink:href="#aA"/><use transform="matrix(0.05,0,0,0.05,13.949999999999998,0)" xlink:href="#aq"/><use transform="matrix(0.05,0,0,0.05,22.95,0)" xlink:href="#al"/><use transform="matrix(0.05,0,0,0.05,32.95,0)" xlink:href="#aa"/><use transform="matrix(0.05,0,0,0.05,37.95,0)" xlink:href="#Z"/><use transform="matrix(0.05,0,0,0.05,41.900000000000006,0)" xlink:href="#aA"/><use transform="matrix(0.05,0,0,0.05,51.900000000000006,0)" xlink:href="#aj"/><use transform="matrix(0.05,0,0,0.05,61.900000000000006,0)" xlink:href="#ad"/></g><g id="z"><use transform="matrix(0.05,0,0,0.05,0,0)" xlink:href="#ae"/><use transform="matrix(0.05,0,0,0.05,12,0)" xlink:href="#af"/><use transform="matrix(0.05,0,0,0.05,24,0)" xlink:href="#ag"/><use transform="matrix(0.05,0,0,0.05,34,0)" xlink:href="#am"/><use transform="matrix(0.05,0,0,0.05,37.95,0)" xlink:href="#aA"/><use transform="matrix(0.05,0,0,0.05,47.95,0)" xlink:href="#aq"/><use transform="matrix(0.05,0,0,0.05,56.95,0)" xlink:href="#al"/><use transform="matrix(0.05,0,0,0.05,66.95,0)" xlink:href="#aa"/><use transform="matrix(0.05,0,0,0.05,71.95,0)" xlink:href="#Z"/><use transform="matrix(0.05,0,0,0.05,75.9,0)" xlink:href="#aA"/><use transform="matrix(0.05,0,0,0.05,85.9,0)" xlink:href="#aj"/><use transform="matrix(0.05,0,0,0.05,95.9,0)" xlink:href="#ad"/><use transform="matrix(0.05,0,0,0.05,104.9,0)" xlink:href="#ag"/><use transform="matrix(0.05,0,0,0.05,114.9,0)" xlink:href="#ah"/><use transform="matrix(0.05,0,0,0.05,119.9,0)" xlink:href="#ai"/></g><g id="A"><use transform="matrix(0.05,0,0,0.05,0,0)" xlink:href="#am"/><use transform="matrix(0.05,0,0,0.05,3.95,0)" xlink:href="#aA"/><use transform="matrix(0.05,0,0,0.05,13.949999999999998,0)" xlink:href="#aq"/><use transform="matrix(0.05,0,0,0.05,22.95,0)" xlink:href="#al"/><use transform="matrix(0.05,0,0,0.05,32.95,0)" xlink:href="#aa"/><use transform="matrix(0.05,0,0,0.05,37.95,0)" xlink:href="#Z"/><use transform="matrix(0.05,0,0,0.05,41.900000000000006,0)" xlink:href="#aA"/><use transform="matrix(0.05,0,0,0.05,51.900000000000006,0)" xlink:href="#aj"/><use transform="matrix(0.05,0,0,0.05,61.900000000000006,0)" xlink:href="#ad"/><use transform="matrix(0.05,0,0,0.05,70.9,0)" xlink:href="#aD"/><use transform="matrix(0.05,0,0,0.05,83.85000000000001,0)" xlink:href="#al"/><use transform="matrix(0.05,0,0,0.05,93.85000000000001,0)" xlink:href="#ac"/><use transform="matrix(0.05,0,0,0.05,108.80000000000001,0)" xlink:href="#ab"/></g><filter id="x" filterUnits="objectBoundingBox" x="-.03" y="-.04" width="1.06" height="1.19"><feOffset result="offOut" in="SourceAlpha" dy="6"/><feGaussianBlur result="blurOut" in="offOut" stdDeviation="5"/><feColorMatrix result="colorOut" in="blurOut" values="0 0 0 0 0 0 0 0 0 0 0 0 0 0 0 0 0 0 0.16862745098039217 0"/><feBlend in="SourceGraphic" in2="colorOut"/></filter><g id="B"><use transform="matrix(0.04320987654320988,0,0,0.04320987654320988,0,0)" xlink:href="#aK"/><use transform="matrix(0.04320987654320988,0,0,0.04320987654320988,8.641975308641976,0)" xlink:href="#aL"/><use transform="matrix(0.04320987654320988,0,0,0.04320987654320988,17.283950617283953,0)" xlink:href="#aM"/><use transform="matrix(0.04320987654320988,0,0,0.04320987654320988,25.925925925925927,0)" xlink:href="#aN"/><use transform="matrix(0.04320987654320988,0,0,0.04320987654320988,34.567901234567906,0)" xlink:href="#aO"/><use transform="matrix(0.04320987654320988,0,0,0.04320987654320988,37.98148148148149,0)" xlink:href="#aN"/><use transform="matrix(0.04320987654320988,0,0,0.04320987654320988,46.62345679012346,0)" xlink:href="#aM"/><use transform="matrix(0.04320987654320988,0,0,0.04320987654320988,55.26543209876544,0)" xlink:href="#aP"/></g><g id="C"><use transform="matrix(0.04320987654320988,0,0,0.04320987654320988,0,0)" xlink:href="#aH"/><use transform="matrix(0.04320987654320988,0,0,0.04320987654320988,3.4135802469135808,0)" xlink:href="#aI"/></g><g id="E"><use transform="matrix(0.05,0,0,0.05,0,0)" xlink:href="#ac"/><use transform="matrix(0.05,0,0,0.05,14.950000000000001,0)" xlink:href="#al"/><use transform="matrix(0.05,0,0,0.05,24.950000000000003,0)" xlink:href="#aj"/><use transform="matrix(0.05,0,0,0.05,34.95,0)" xlink:href="#an"/><use transform="matrix(0.05,0,0,0.05,44.95,0)" xlink:href="#aF"/><use transform="matrix(0.05,0,0,0.05,49.95,0)" xlink:href="#al"/><use transform="matrix(0.05,0,0,0.05,59.95,0)" xlink:href="#aq"/><use transform="matrix(0.05,0,0,0.05,68.95,0)" xlink:href="#aa"/><use transform="matrix(0.05,0,0,0.05,73.95,0)" xlink:href="#an"/><use transform="matrix(0.05,0,0,0.05,83.95,0)" xlink:href="#ak"/><use transform="matrix(0.05,0,0,0.05,89.9,0)" xlink:href="#ab"/><use transform="matrix(0.05,0,0,0.05,99.9,0)" xlink:href="#ak"/><use transform="matrix(0.05,0,0,0.05,105.85000000000001,0)" xlink:href="#ad"/></g><g id="F"><use transform="matrix(0.05,0,0,0.05,0,0)" xlink:href="#ae"/><use transform="matrix(0.05,0,0,0.05,12,0)" xlink:href="#af"/><use transform="matrix(0.05,0,0,0.05,24,0)" xlink:href="#ag"/><use transform="matrix(0.05,0,0,0.05,34,0)" xlink:href="#ac"/><use transform="matrix(0.05,0,0,0.05,48.95,0)" xlink:href="#al"/><use transform="matrix(0.05,0,0,0.05,58.95,0)" xlink:href="#aj"/><use transform="matrix(0.05,0,0,0.05,68.95,0)" xlink:href="#an"/><use transform="matrix(0.05,0,0,0.05,78.95,0)" xlink:href="#aF"/><use transform="matrix(0.05,0,0,0.05,83.95,0)" xlink:href="#al"/><use transform="matrix(0.05,0,0,0.05,93.95,0)" xlink:href="#aq"/><use transform="matrix(0.05,0,0,0.05,102.95,0)" xlink:href="#aa"/><use transform="matrix(0.05,0,0,0.05,107.95,0)" xlink:href="#an"/><use transform="matrix(0.05,0,0,0.05,117.95,0)" xlink:href="#ak"/><use transform="matrix(0.05,0,0,0.05,123.9,0)" xlink:href="#ab"/><use transform="matrix(0.05,0,0,0.05,133.9,0)" xlink:href="#ak"/><use transform="matrix(0.05,0,0,0.05,139.85,0)" xlink:href="#ad"/><use transform="matrix(0.05,0,0,0.05,148.85,0)" xlink:href="#ag"/><use transform="matrix(0.05,0,0,0.05,158.85,0)" xlink:href="#ah"/><use transform="matrix(0.05,0,0,0.05,163.85,0)" xlink:href="#ai"/></g><g id="G"><use transform="matrix(0.05,0,0,0.05,0,0)" xlink:href="#ac"/><use transform="matrix(0.05,0,0,0.05,14.950000000000001,0)" xlink:href="#al"/><use transform="matrix(0.05,0,0,0.05,24.950000000000003,0)" xlink:href="#aj"/><use transform="matrix(0.05,0,0,0.05,34.95,0)" xlink:href="#an"/><use transform="matrix(0.05,0,0,0.05,44.95,0)" xlink:href="#aF"/><use transform="matrix(0.05,0,0,0.05,49.95,0)" xlink:href="#al"/><use transform="matrix(0.05,0,0,0.05,59.95,0)" xlink:href="#aq"/><use transform="matrix(0.05,0,0,0.05,68.95,0)" xlink:href="#aa"/><use transform="matrix(0.05,0,0,0.05,73.95,0)" xlink:href="#an"/><use transform="matrix(0.05,0,0,0.05,83.95,0)" xlink:href="#ak"/><use transform="matrix(0.05,0,0,0.05,89.9,0)" xlink:href="#ab"/><use transform="matrix(0.05,0,0,0.05,99.9,0)" xlink:href="#ak"/><use transform="matrix(0.05,0,0,0.05,105.85000000000001,0)" xlink:href="#ad"/><use transform="matrix(0.05,0,0,0.05,114.85000000000001,0)" xlink:href="#aD"/><use transform="matrix(0.05,0,0,0.05,127.80000000000001,0)" xlink:href="#al"/><use transform="matrix(0.05,0,0,0.05,137.8,0)" xlink:href="#ac"/><use transform="matrix(0.05,0,0,0.05,152.75,0)" xlink:href="#ab"/></g><filter id="D" filterUnits="objectBoundingBox" x="-.03" y="-.04" width="1.06" height="1.19"><feOffset result="offOut" in="SourceAlpha" dy="6"/><feGaussianBlur result="blurOut" in="offOut" stdDeviation="5"/><feColorMatrix result="colorOut" in="blurOut" values="0 0 0 0 0 0 0 0 0 0 0 0 0 0 0 0 0 0 0.16862745098039217 0"/><feBlend in="SourceGraphic" in2="colorOut"/></filter><path fill="#666" d="M106-169C34-169 62-67 57 0H25v-261h32l-1 103c12-21 28-36 61-36 89 0 53 116 60 194h-32v-121c2-32-8-49-39-48" id="aS"/><path fill="#666" d="M114-163C36-179 61-72 57 0H25l-1-190h30c1 12-1 29 2 39 6-27 23-49 58-41v29" id="aT"/><g id="H"><use transform="matrix(0.04320987654320988,0,0,0.04320987654320988,0,0)" xlink:href="#aS"/><use transform="matrix(0.04320987654320988,0,0,0.04320987654320988,8.641975308641976,0)" xlink:href="#aN"/><use transform="matrix(0.04320987654320988,0,0,0.04320987654320988,17.283950617283953,0)" xlink:href="#aT"/><use transform="matrix(0.04320987654320988,0,0,0.04320987654320988,22.425925925925927,0)" xlink:href="#aM"/><use transform="matrix(0.04320987654320988,0,0,0.04320987654320988,31.067901234567906,0)" xlink:href="#aN"/><use transform="matrix(0.04320987654320988,0,0,0.04320987654320988,39.70987654320988,0)" xlink:href="#aG"/><use transform="matrix(0.04320987654320988,0,0,0.04320987654320988,47.48765432098766,0)" xlink:href="#aP"/><use transform="matrix(0.04320987654320988,0,0,0.04320987654320988,51.808641975308646,0)" xlink:href="#aN"/><use transform="matrix(0.04320987654320988,0,0,0.04320987654320988,60.45061728395062,0)" xlink:href="#aO"/><use transform="matrix(0.04320987654320988,0,0,0.04320987654320988,63.8641975308642,0)" xlink:href="#aO"/><use transform="matrix(0.04320987654320988,0,0,0.04320987654320988,67.27777777777779,0)" xlink:href="#aP"/></g><g id="J"><use transform="matrix(0.05,0,0,0.05,0,0)" xlink:href="#ak"/><use transform="matrix(0.05,0,0,0.05,5.95,0)" xlink:href="#aA"/><use transform="matrix(0.05,0,0,0.05,15.949999999999998,0)" xlink:href="#am"/><use transform="matrix(0.05,0,0,0.05,19.9,0)" xlink:href="#ab"/><use transform="matrix(0.05,0,0,0.05,29.899999999999995,0)" xlink:href="#ad"/></g><g id="K"><use transform="matrix(0.05,0,0,0.05,0,0)" xlink:href="#ae"/><use transform="matrix(0.05,0,0,0.05,12,0)" xlink:href="#af"/><use transform="matrix(0.05,0,0,0.05,24,0)" xlink:href="#ag"/><use transform="matrix(0.05,0,0,0.05,34,0)" xlink:href="#ak"/><use transform="matrix(0.05,0,0,0.05,39.95,0)" xlink:href="#aA"/><use transform="matrix(0.05,0,0,0.05,49.95,0)" xlink:href="#am"/><use transform="matrix(0.05,0,0,0.05,53.900000000000006,0)" xlink:href="#ab"/><use transform="matrix(0.05,0,0,0.05,63.900000000000006,0)" xlink:href="#ad"/><use transform="matrix(0.05,0,0,0.05,72.9,0)" xlink:href="#ag"/><use transform="matrix(0.05,0,0,0.05,82.9,0)" xlink:href="#ah"/><use transform="matrix(0.05,0,0,0.05,87.9,0)" xlink:href="#ai"/></g><g id="L"><use transform="matrix(0.05,0,0,0.05,0,0)" xlink:href="#ak"/><use transform="matrix(0.05,0,0,0.05,5.95,0)" xlink:href="#aA"/><use transform="matrix(0.05,0,0,0.05,15.949999999999998,0)" xlink:href="#am"/><use transform="matrix(0.05,0,0,0.05,19.9,0)" xlink:href="#ab"/><use transform="matrix(0.05,0,0,0.05,29.899999999999995,0)" xlink:href="#ad"/><use transform="matrix(0.05,0,0,0.05,38.9,0)" xlink:href="#aD"/><use transform="matrix(0.05,0,0,0.05,51.85,0)" xlink:href="#al"/><use transform="matrix(0.05,0,0,0.05,61.85,0)" xlink:href="#ac"/><use transform="matrix(0.05,0,0,0.05,76.8,0)" xlink:href="#ab"/></g><filter id="I" filterUnits="objectBoundingBox" x="-.03" y="-.04" width="1.07" height="1.19"><feOffset result="offOut" in="SourceAlpha" dy="6"/><feGaussianBlur result="blurOut" in="offOut" stdDeviation="5"/><feColorMatrix result="colorOut" in="blurOut" values="0 0 0 0 0 0 0 0 0 0 0 0 0 0 0 0 0 0 0.16862745098039217 0"/><feBlend in="SourceGraphic" in2="colorOut"/></filter><g id="N"><use transform="matrix(0.05,0,0,0.05,0,0)" xlink:href="#aa"/><use transform="matrix(0.05,0,0,0.05,5,0)" xlink:href="#aE"/><use transform="matrix(0.05,0,0,0.05,14,0)" xlink:href="#ay"/><use transform="matrix(0.05,0,0,0.05,24,0)" xlink:href="#ab"/><use transform="matrix(0.05,0,0,0.05,34,0)" xlink:href="#ad"/></g><g id="O"><use transform="matrix(0.05,0,0,0.05,0,0)" xlink:href="#ae"/><use transform="matrix(0.05,0,0,0.05,12,0)" xlink:href="#af"/><use transform="matrix(0.05,0,0,0.05,24,0)" xlink:href="#ag"/><use transform="matrix(0.05,0,0,0.05,34,0)" xlink:href="#aa"/><use transform="matrix(0.05,0,0,0.05,39,0)" xlink:href="#aE"/><use transform="matrix(0.05,0,0,0.05,48,0)" xlink:href="#ay"/><use transform="matrix(0.05,0,0,0.05,58,0)" xlink:href="#ab"/><use transform="matrix(0.05,0,0,0.05,68,0)" xlink:href="#ad"/><use transform="matrix(0.05,0,0,0.05,77,0)" xlink:href="#ag"/><use transform="matrix(0.05,0,0,0.05,87,0)" xlink:href="#ah"/><use transform="matrix(0.05,0,0,0.05,92,0)" xlink:href="#ai"/></g><g id="P"><use transform="matrix(0.05,0,0,0.05,0,0)" xlink:href="#aa"/><use transform="matrix(0.05,0,0,0.05,5,0)" xlink:href="#aE"/><use transform="matrix(0.05,0,0,0.05,14,0)" xlink:href="#ay"/><use transform="matrix(0.05,0,0,0.05,24,0)" xlink:href="#ab"/><use transform="matrix(0.05,0,0,0.05,34,0)" xlink:href="#ad"/><use transform="matrix(0.05,0,0,0.05,43,0)" xlink:href="#aD"/><use transform="matrix(0.05,0,0,0.05,55.95,0)" xlink:href="#al"/><use transform="matrix(0.05,0,0,0.05,65.95,0)" xlink:href="#ac"/><use transform="matrix(0.05,0,0,0.05,80.9,0)" xlink:href="#ab"/></g><filter id="M" filterUnits="objectBoundingBox" x="-.03" y="-.04" width="1.07" height="1.19"><feOffset result="offOut" in="SourceAlpha" dy="6"/><feGaussianBlur result="blurOut" in="offOut" stdDeviation="5"/><feColorMatrix result="colorOut" in="blurOut" values="0 0 0 0 0 0 0 0 0 0 0 0 0 0 0 0 0 0 0.16862745098039217 0"/><feBlend in="SourceGraphic" in2="colorOut"/></filter><path fill="#666" d="M96-169c-40 0-48 33-48 73s9 75 48 75c24 0 41-14 43-38l32 2c-6 37-31 61-74 61-59 0-76-41-82-99-10-93 101-131 147-64 4 7 5 14 7 22l-32 3c-4-21-16-35-41-35" id="aU"/><g id="Q"><use transform="matrix(0.04320987654320988,0,0,0.04320987654320988,0,0)" xlink:href="#aL"/><use transform="matrix(0.04320987654320988,0,0,0.04320987654320988,8.641975308641976,0)" xlink:href="#aN"/><use transform="matrix(0.04320987654320988,0,0,0.04320987654320988,17.283950617283953,0)" xlink:href="#aG"/><use transform="matrix(0.04320987654320988,0,0,0.04320987654320988,25.06172839506173,0)" xlink:href="#aU"/><use transform="matrix(0.04320987654320988,0,0,0.04320987654320988,32.839506172839506,0)" xlink:href="#aS"/><use transform="matrix(0.04320987654320988,0,0,0.04320987654320988,41.48148148148148,0)" xlink:href="#aT"/><use transform="matrix(0.04320987654320988,0,0,0.04320987654320988,46.62345679012345,0)" xlink:href="#aN"/><use transform="matrix(0.04320987654320988,0,0,0.04320987654320988,55.26543209876543,0)" xlink:href="#aH"/><use transform="matrix(0.04320987654320988,0,0,0.04320987654320988,58.679012345679006,0)" xlink:href="#aL"/><use transform="matrix(0.04320987654320988,0,0,0.04320987654320988,67.32098765432099,0)" xlink:href="#aN"/><use transform="matrix(0.04320987654320988,0,0,0.04320987654320988,75.96296296296296,0)" xlink:href="#aI"/></g><g id="S"><use transform="matrix(0.05,0,0,0.05,0,0)" xlink:href="#an"/><use transform="matrix(0.05,0,0,0.05,10,0)" xlink:href="#ad"/><use transform="matrix(0.05,0,0,0.05,19,0)" xlink:href="#ab"/><use transform="matrix(0.05,0,0,0.05,29,0)" xlink:href="#ak"/><use transform="matrix(0.05,0,0,0.05,34.95,0)" xlink:href="#ad"/></g><g id="T"><use transform="matrix(0.05,0,0,0.05,0,0)" xlink:href="#ae"/><use transform="matrix(0.05,0,0,0.05,12,0)" xlink:href="#af"/><use transform="matrix(0.05,0,0,0.05,24,0)" xlink:href="#ag"/><use transform="matrix(0.05,0,0,0.05,34,0)" xlink:href="#an"/><use transform="matrix(0.05,0,0,0.05,44,0)" xlink:href="#ad"/><use transform="matrix(0.05,0,0,0.05,53,0)" xlink:href="#ab"/><use transform="matrix(0.05,0,0,0.05,63,0)" xlink:href="#ak"/><use transform="matrix(0.05,0,0,0.05,68.95,0)" xlink:href="#ad"/><use transform="matrix(0.05,0,0,0.05,77.95,0)" xlink:href="#ag"/><use transform="matrix(0.05,0,0,0.05,87.95,0)" xlink:href="#ah"/><use transform="matrix(0.05,0,0,0.05,92.95,0)" xlink:href="#ai"/></g><g id="U"><use transform="matrix(0.05,0,0,0.05,0,0)" xlink:href="#an"/><use transform="matrix(0.05,0,0,0.05,10,0)" xlink:href="#ad"/><use transform="matrix(0.05,0,0,0.05,19,0)" xlink:href="#ab"/><use transform="matrix(0.05,0,0,0.05,29,0)" xlink:href="#ak"/><use transform="matrix(0.05,0,0,0.05,34.95,0)" xlink:href="#aj"/><use transform="matrix(0.05,0,0,0.05,44.95,0)" xlink:href="#al"/><use transform="matrix(0.05,0,0,0.05,54.95,0)" xlink:href="#ac"/><use transform="matrix(0.05,0,0,0.05,69.9,0)" xlink:href="#ab"/></g><path d="M206 0h-36l-40-164L89 0H53L-1-190h32L70-26l43-164h34l41 164 42-164h31" id="aV"/><g id="V"><use transform="matrix(0.05,0,0,0.05,0,0)" xlink:href="#ay"/><use transform="matrix(0.05,0,0,0.05,10,0)" xlink:href="#al"/><use transform="matrix(0.05,0,0,0.05,20,0)" xlink:href="#ad"/><use transform="matrix(0.05,0,0,0.05,29,0)" xlink:href="#ad"/><use transform="matrix(0.05,0,0,0.05,38,0)" xlink:href="#aV"/><use transform="matrix(0.05,0,0,0.05,50.95,0)" xlink:href="#aA"/><use transform="matrix(0.05,0,0,0.05,60.95,0)" xlink:href="#ak"/><use transform="matrix(0.05,0,0,0.05,66.9,0)" xlink:href="#aw"/></g><g id="W"><use transform="matrix(0.05,0,0,0.05,0,0)" xlink:href="#az"/><use transform="matrix(0.05,0,0,0.05,10.950000000000001,0)" xlink:href="#af"/><use transform="matrix(0.05,0,0,0.05,22.950000000000003,0)" xlink:href="#ag"/><use transform="matrix(0.05,0,0,0.05,32.95,0)" xlink:href="#ak"/><use transform="matrix(0.05,0,0,0.05,38.900000000000006,0)" xlink:href="#aA"/><use transform="matrix(0.05,0,0,0.05,48.900000000000006,0)" xlink:href="#am"/><use transform="matrix(0.05,0,0,0.05,52.85,0)" xlink:href="#ab"/><use transform="matrix(0.05,0,0,0.05,62.85,0)" xlink:href="#ad"/><use transform="matrix(0.05,0,0,0.05,71.85000000000001,0)" xlink:href="#ag"/><use transform="matrix(0.05,0,0,0.05,81.85000000000001,0)" xlink:href="#ah"/><use transform="matrix(0.05,0,0,0.05,86.85000000000001,0)" xlink:href="#ai"/></g><filter id="R" filterUnits="objectBoundingBox" x="-.04" y="-.02" width="1.07" height="1.12"><feOffset result="offOut" in="SourceAlpha" dy="6"/><feGaussianBlur result="blurOut" in="offOut" stdDeviation="5"/><feColorMatrix result="colorOut" in="blurOut" values="0 0 0 0 0 0 0 0 0 0 0 0 0 0 0 0 0 0 0.16862745098039217 0"/><feBlend in="SourceGraphic" in2="colorOut"/></filter><path fill="#666" d="M30 0v-248h33v221h125V0H30" id="aW"/><g id="X"><use transform="matrix(0.04320987654320988,0,0,0.04320987654320988,0,0)" xlink:href="#aW"/><use transform="matrix(0.04320987654320988,0,0,0.04320987654320988,8.641975308641976,0)" xlink:href="#aN"/><use transform="matrix(0.04320987654320988,0,0,0.04320987654320988,17.283950617283953,0)" xlink:href="#aH"/><use transform="matrix(0.04320987654320988,0,0,0.04320987654320988,20.69753086419753,0)" xlink:href="#aS"/><use transform="matrix(0.04320987654320988,0,0,0.04320987654320988,29.339506172839503,0)" xlink:href="#aN"/><use transform="matrix(0.04320987654320988,0,0,0.04320987654320988,37.98148148148148,0)" xlink:href="#aI"/></g><path fill="#666" d="M9 0v-24l116-142H16v-24h144v24L44-24h123V0H9" id="aX"/><g id="Y"><use transform="matrix(0.04320987654320988,0,0,0.04320987654320988,0,0)" xlink:href="#aL"/><use transform="matrix(0.04320987654320988,0,0,0.04320987654320988,8.641975308641976,0)" xlink:href="#aN"/><use transform="matrix(0.04320987654320988,0,0,0.04320987654320988,17.283950617283953,0)" xlink:href="#aG"/><use transform="matrix(0.04320987654320988,0,0,0.04320987654320988,25.06172839506173,0)" xlink:href="#aH"/><use transform="matrix(0.04320987654320988,0,0,0.04320987654320988,28.47530864197531,0)" xlink:href="#aP"/><use transform="matrix(0.04320987654320988,0,0,0.04320987654320988,32.7962962962963,0)" xlink:href="#aX"/><use transform="matrix(0.04320987654320988,0,0,0.04320987654320988,40.574074074074076,0)" xlink:href="#aN"/><use transform="matrix(0.04320987654320988,0,0,0.04320987654320988,49.21604938271606,0)" xlink:href="#aI"/></g></defs></g></svg>